SplineFontDB: 3.2
FontName: linja-nanpa
FullName: linja-nanpa
FamilyName: linja-nanpa
Weight: Regular
Copyright: ""
FontLog: "#### toki tan ijo ni: ijo li tan anpa nanpa ####+AAoACgAA### tenpo sike ku nanpa tu la+AAoACgAKAAoA## tenpo mun nanpa tu la+AAoACgAK# tenpo suno nanpa luka luka luka tu tu la+AAoACgAA-wa. ni li ijo anu seme?? ken la mi kepeken ni.+AAoA-tenpo poka la ni li kama lon: linja nanpa!+AAoA-open la ona li sona ala e nasin pi nimi jan (cartouches) li ike lukin.+AAoA-tenpo suno wan pini la mi pali e ni: linja nanpa li pona lukin li sona e nasin pi nimi jan.+AAoA-tenpo lon la nanpa pi linja nanpa li: n2.2.+AAoACgAA---+AAoACgAA-tenpo ilo suli nanpa tu tu pi tenpo pimeja li kama. taso mi awen pali.+AAoA-tenpo lon la nasin pi nimi jan en te pi to suli li pona lukin. pona.+AAoACgAA## tenpo mun nanpa tu wan la+AAoACgAK# tenpo suno nanpa luka tu wan la+AAoACgAA-a. ni li ijo. mi pali e ijo mute lon linja nanpa. mi ante e nimi pi sitelen ale. kin la mi kama sin e +ACIA-Lookup Table+ACIA ale."
Version: 2.5
ItalicAngle: 0
UnderlinePosition: 0
UnderlineWidth: 0
Ascent: 1000
Descent: 0
InvalidEm: 0
sfntRevision: 0x00010000
LayerCount: 2
Layer: 0 0 "Back" 1
Layer: 1 0 "Fore" 0
XUID: [1021 511 -2811647 6872]
StyleMap: 0x0000
FSType: 0
OS2Version: 3
OS2_WeightWidthSlopeOnly: 0
OS2_UseTypoMetrics: 0
CreationTime: 1645217081
ModificationTime: 1646807776
PfmFamily: 81
TTFWeight: 400
TTFWidth: 5
LineGap: 0
VLineGap: 0
Panose: 0 0 8 9 0 0 0 6 0 0
OS2TypoAscent: 0
OS2TypoAOffset: 1
OS2TypoDescent: 0
OS2TypoDOffset: 1
OS2TypoLinegap: 0
OS2WinAscent: 0
OS2WinAOffset: 1
OS2WinDescent: 0
OS2WinDOffset: 1
HheadAscent: 0
HheadAOffset: 1
HheadDescent: 0
HheadDOffset: 1
OS2CapHeight: 1000
OS2XHeight: 500
OS2Vendor: 'XXXX'
OS2CodePages: 00000001.00000000
OS2UnicodeRanges: 00000000.00000000.04000000.00000000
Lookup: 4 0 1 "'liga' Joiner Step 1" { "'liga' Joiner Step 1-1"  } ['liga' ('DFLT' <'dflt' > ) ]

StartChar: aTok
Encoding: 0 989440 0
Width: 1000
VWidth: 950
Flags: HW
HStem: -50 100<439.527 561.352> 250 100<439.527 561.59>
VStem: 300 100<89.5269 210.473> 450 100<408.438 841.562> 600 199.956<-12.8384 177.5>
LayerCount: 2
Fore
SplineSet
500 50 m 0
 555 50 600 95 600 150 c 0
 600 205 555 250 500 250 c 0
 445 250 400 205 400 150 c 0
 400 95 445 50 500 50 c 0
799.956054688 -0.1005859375 m 0
 799.956054688 -25.576171875 779.702148438 -49.9560546875 749.899414062 -49.9560546875 c 0
 731.993164062 -49.9560546875 714.958984375 -40.5400390625 706 -24 c 2
 706 -24 670 44 670 44 c 1
 634 -12 572 -50 500 -50 c 0
 390 -50 300 40 300 150 c 0
 300 260 390 350 500 350 c 0
 581 350 650 302 682 233 c 0
 683 232 683 231 684 230 c 2
 684 230 794 24 794 24 c 2
 798.041015625 16.2294921875 799.956054688 7.9755859375 799.956054688 -0.1005859375 c 0
550 800 m 2
 550 800 550 450 550 450 c 2
 550 422 528 400 500 400 c 0
 472 400 450 422 450 450 c 2
 450 450 450 800 450 800 c 2
 450 828 472 850 500 850 c 0
 528 850 550 828 550 800 c 2
EndSplineSet
Substitution2: "'ss01' Add Cartouche Lines-1" aTok.cart
Substitution2: "'ss02' Add Container Lines-1" aTok.cont
EndChar

StartChar: akesiTok
Encoding: 1 989441 1
Width: 1000
VWidth: 950
Flags: W
HStem: -50 100<352.413 647.592> 100 100<83.4375 200 311 689 800 916.562> 250 100<58.4375 200 300 700 800 941.562> 400 100<83.4375 200 311 689 800 916.562> 550 100<351.976 647.587> 700 150<273.417 376.583 623.417 726.583>
VStem: 200 100<200 250 350 400> 250 150<723.417 826.583> 600 150<723.417 826.583> 700 100<200 250 350 400>
LayerCount: 2
Fore
SplineSet
675 700 m 0xfc80
 634 700 600 734 600 775 c 0
 600 816 634 850 675 850 c 0
 716 850 750 816 750 775 c 0
 750 734 716 700 675 700 c 0xfc80
311 100 m 1
 311 99 l 1
 318.436523438 89.4384765625 330.083007812 80.962890625 348 73 c 0
 385 57 440 50 500 50 c 0
 560 50 615 57 652 73 c 0
 670 81 682 90 689 99 c 1
 689 100 l 1
 563 100 437 100 311 100 c 1
300 200 m 1xfe40
 300 200 700 200 700 200 c 1
 700 200 700 250 700 250 c 1
 300 250 l 1
 300 200 l 1xfe40
300 400 m 1
 300 400 300 350 300 350 c 1
 300 350 700 350 700 350 c 1
 700 350 700 400 700 400 c 1
 300 400 l 1
500 550 m 0
 424.594726562 550 341.872070312 540.692382812 311 501 c 1
 311 500 l 1
 689 500 l 1
 689 500 689 501 689 501 c 1
 682 510 670 519 652 527 c 0
 615 543 560 550 500 550 c 0
204 500 m 1
 229.783203125 618.6015625 363.815429688 650 500 650 c 0
 636.166015625 650 770.21484375 618.609375 796 500 c 1
 796 500 875 500 875 500 c 2
 903 500 925 478 925 450 c 0
 925 422 903 400 875 400 c 2
 875 400 800 400 800 400 c 1
 800 400 800 350 800 350 c 1
 800 350 900 350 900 350 c 2
 928 350 950 328 950 300 c 0
 950 272 928 250 900 250 c 2
 900 250 800 250 800 250 c 1
 800 250 800 200 800 200 c 1
 800 200 875 200 875 200 c 2
 903 200 925 178 925 150 c 0
 925 122 903 100 875 100 c 2
 875 100 796 100 796 100 c 1
 770.216796875 -18.6015625 636.184570312 -50 500 -50 c 0
 363.833984375 -50 229.78515625 -18.609375 204 100 c 1
 204 100 125 100 125 100 c 2
 97 100 75 122 75 150 c 0
 75 178 97 200 125 200 c 2
 125 200 200 200 200 200 c 1
 200 200 200 250 200 250 c 1
 200 250 100 250 100 250 c 2
 72 250 50 272 50 300 c 0
 50 328 72 350 100 350 c 2
 100 350 200 350 200 350 c 1
 200 350 200 400 200 400 c 1
 200 400 125 400 125 400 c 2
 97 400 75 422 75 450 c 0
 75 478 97 500 125 500 c 2
 204 500 l 1
400 775 m 0xfd
 400 734 366 700 325 700 c 0
 284 700 250 734 250 775 c 0
 250 816 284 850 325 850 c 0
 366 850 400 816 400 775 c 0xfd
EndSplineSet
Substitution2: "'ss01' Add Cartouche Lines-1" akesiTok.cart
Substitution2: "'ss02' Add Container Lines-1" akesiTok.cont
EndChar

StartChar: alaTok
Encoding: 2 989442 2
Width: 1000
VWidth: 950
Flags: HW
HStem: 0 21G<136.796 156.375 843.625 863.209>
LayerCount: 2
Fore
SplineSet
100 750 m 0
 100 776.40866101 123.581991343 800 150 800 c 0
 162.75 800 175.5 795 185 785 c 2
 500 471 l 1
 815 785 l 2
 824.5 795 837.25 800 850 800 c 0
 876.40866101 800 900 776.418008657 900 750 c 0
 900 737.25 895 724.5 885 715 c 2
 571 400 l 1
 885 85 l 2
 895 75.5 900 62.75 900 50 c 0
 900 23.5913389903 876.418008657 0 850 0 c 0
 837.25 0 824.5 5 815 15 c 2
 500 329 l 1
 185 15 l 2
 175.5 5 162.75 0 150 0 c 0
 123.59133899 0 100 23.5819913434 100 50 c 0
 100 62.75 105 75.5 115 85 c 2
 429 400 l 1
 115 715 l 2
 105 724.5 100 737.25 100 750 c 0
EndSplineSet
Substitution2: "'ss01' Add Cartouche Lines-1" alaTok.cart
Substitution2: "'ss02' Add Container Lines-1" alaTok.cont
EndChar

StartChar: alasaTok
Encoding: 3 989443 3
Width: 1000
VWidth: 950
Flags: W
HStem: 350 100<58.4375 200 300 574 674 779>
VStem: 200 100<52 350 450 748> 574 100<219.922 350 450 580.078>
LayerCount: 2
Fore
SplineSet
300 350 m 1
 300 350 300 52 300 52 c 1
 418.07421875 61.5224609375 492.698242188 104.090820312 534 178 c 0
 564 232 572 295 574 350 c 1
 300 350 l 1
574 450 m 1
 572 505 564 568 534 622 c 0
 492.750976562 695.813476562 417.971679688 738.486328125 300 748 c 1
 300 748 300 450 300 450 c 1
 574 450 l 1
750 200 m 0
 723.171875 200 700 223.1640625 700 250 c 0
 700 263 705 276 715 285 c 2
 715 285 779 350 779 350 c 1
 779 350 674 350 674 350 c 1
 672 288 663 204 622 130 c 0
 558.776367188 17.099609375 436.293945312 -50 250 -50 c 0
 222 -50 200 -28 200 0 c 2
 200 0 200 350 200 350 c 1
 200 350 100 350 100 350 c 2
 72 350 50 372 50 400 c 0
 50 428 72 450 100 450 c 2
 100 450 200 450 200 450 c 1
 200 450 200 800 200 800 c 2
 200 828 222 850 250 850 c 0
 436.36328125 850 558.717773438 783.002929688 622 670 c 0
 663 596 672 512 674 450 c 1
 674 450 779 450 779 450 c 1
 779 450 715 515 715 515 c 2
 705 524 700 537 700 550 c 0
 700 576.828125 723.1640625 600 750 600 c 0
 763 600 776 595 785 585 c 2
 785 585 935 435 935 435 c 1
 943.958007812 427.833984375 950 414.641601562 950 400 c 0
 950 385.354492188 943.956054688 372.165039062 935 365 c 1
 935 365 785 215 785 215 c 2
 776 205 763 200 750 200 c 0
EndSplineSet
Substitution2: "'ss01' Add Cartouche Lines-1" alasaTok.cart
Substitution2: "'ss02' Add Container Lines-1" alasaTok.cont
EndChar

StartChar: aleTok
Encoding: 4 989444 4
Width: 1000
VWidth: 950
Flags: HW
HStem: 150 100<195.416 317.517 682.483 804.584> 550 100<195.416 317.517 682.483 804.584>
VStem: 50 100<300.773 499.227> 850 100<300.773 499.227>
LayerCount: 2
Fore
SplineSet
563 400 m 1
 599 354 628 318 657 292 c 0
 690 262 717 250 746 250 c 0
 776 250 800 262 818 285 c 0
 837 310 850 348 850 400 c 0
 850 452 837 490 818 515 c 0
 800 538 776 550 746 550 c 0
 717 550 690 538 657 508 c 0
 628 482 599 446 563 400 c 1
437 400 m 1
 401 446 372 482 343 508 c 0
 310 538 283 550 254 550 c 0
 224 550 200 538 182 515 c 0
 163 490 150 452 150 400 c 0
 150 348 163 310 182 285 c 0
 200 262 224 250 254 250 c 0
 283 250 310 262 343 292 c 0
 372 318 401 354 437 400 c 1
103 575 m 0
 139 622 192 650 254 650 c 0
 317 650 367 622 411 582 c 0
 440 555 470 520 500 482 c 1
 530 520 560 555 589 582 c 0
 633 622 683 650 746 650 c 0
 808 650 861 622 897 575 c 0
 933 530 950 468 950 400 c 0
 950 332 933 270 897 225 c 0
 861 178 808 150 746 150 c 0
 683 150 633 178 589 218 c 0
 560 245 530 280 500 318 c 1
 470 280 440 245 411 218 c 0
 367 178 317 150 254 150 c 0
 192 150 139 178 103 225 c 0
 67 270 50 332 50 400 c 0
 50 468 67 530 103 575 c 0
EndSplineSet
Substitution2: "'ss01' Add Cartouche Lines-1" aleTok.cart
Substitution2: "'ss02' Add Container Lines-1" aleTok.cont
EndChar

StartChar: anpaTok
Encoding: 5 989445 5
Width: 1000
VWidth: 950
Flags: HW
HStem: -50 150<448.417 551.583> 150 100<150 850>
VStem: 50 100<250 841.562> 425 150<-26.5827 76.5827> 850 100<250 841.562>
CounterMasks: 1 38
LayerCount: 2
Fore
SplineSet
575 25 m 0
 575 -16 541 -50 500 -50 c 0
 459 -50 425 -16 425 25 c 0
 425 66 459 100 500 100 c 0
 541 100 575 66 575 25 c 0
100 850 m 0
 128 850 150 828 150 800 c 2
 150 800 150 250 150 250 c 1
 150 250 850 250 850 250 c 1
 850 250 850 800 850 800 c 2
 850 828 872 850 900 850 c 0
 928 850 950 828 950 800 c 2
 950 800 950 200 950 200 c 2
 950 172 928 150 900 150 c 2
 900 150 100 150 100 150 c 2
 72 150 50 172 50 200 c 2
 50 200 50 800 50 800 c 2
 50 828 72 850 100 850 c 0
EndSplineSet
Substitution2: "'ss01' Add Cartouche Lines-1" anpaTok.cart
Substitution2: "'ss02' Add Container Lines-1" anpaTok.cont
EndChar

StartChar: anteTok
Encoding: 6 989446 6
Width: 1000
VWidth: 950
Flags: HW
LayerCount: 2
Fore
SplineSet
100.369140625 -50.1611328125 m 0
 75.03125 -50.1611328125 49.8388671875 -28.4951171875 49.8388671875 -0.369140625 c 0
 49.8388671875 14.8134765625 56.91015625 29.884765625 70 40 c 2
 470 340 l 2
 479 346.5 489.5 349.75 500 349.75 c 0
 510.5 349.75 521 346.5 530 340 c 2
 530 340 930 40 930 40 c 2
 943.08984375 29.884765625 950.161132812 14.8134765625 950.161132812 -0.369140625 c 0
 950.161132812 -28.474609375 924.970703125 -50.1611328125 899.630859375 -50.1611328125 c 0
 889.295898438 -50.1611328125 878.91015625 -46.884765625 870 -40 c 2
 870 -40 500 238 500 238 c 1
 500 238 130 -40 130 -40 c 2
 121.08984375 -46.884765625 110.704101562 -50.1611328125 100.369140625 -50.1611328125 c 0
899.630859375 850.161132812 m 0
 924.96875 850.161132812 950.161132812 828.495117188 950.161132812 800.369140625 c 0
 950.161132812 785.186523438 943.08984375 770.115234375 930 760 c 2
 530 460 l 2
 521 453.5 510.5 450.25 500 450.25 c 0
 489.5 450.25 479 453.5 470 460 c 2
 470 460 70 760 70 760 c 2
 56.91015625 770.115234375 49.8388671875 785.186523438 49.8388671875 800.369140625 c 0
 49.8388671875 828.474609375 75.029296875 850.161132812 100.369140625 850.161132812 c 0
 110.704101562 850.161132812 121.08984375 846.884765625 130 840 c 2
 130 840 500 563 500 563 c 1
 500 563 870 840 870 840 c 2
 878.91015625 846.884765625 889.295898438 850.161132812 899.630859375 850.161132812 c 0
EndSplineSet
Substitution2: "'ss01' Add Cartouche Lines-1" anteTok.cart
Substitution2: "'ss02' Add Container Lines-1" anteTok.cont
EndChar

StartChar: anuTok
Encoding: 7 989447 7
Width: 1000
VWidth: 950
Flags: HW
VStem: 450 100<-41.5625 424>
LayerCount: 2
Fore
SplineSet
49.916015625 799.715820312 m 0
 49.916015625 826.435546875 73.8203125 850.083984375 99.7158203125 850.083984375 c 0
 111.432617188 850.083984375 123.286132812 845.7890625 133 837 c 2
 133 837 500 513 500 513 c 1
 500 513 867 837 867 837 c 2
 876.713867188 845.7890625 888.567382812 850.083984375 900.284179688 850.083984375 c 0
 926.173828125 850.083984375 950.083984375 826.451171875 950.083984375 799.715820312 c 0
 950.083984375 786.102539062 944.286132812 772.673828125 933 763 c 2
 933 763 550 424 550 424 c 1
 550 424 550 0 550 0 c 2
 550 -28 528 -50 500 -50 c 0
 472 -50 450 -28 450 0 c 2
 450 0 450 424 450 424 c 1
 450 424 67 763 67 763 c 2
 55.7138671875 772.673828125 49.916015625 786.102539062 49.916015625 799.715820312 c 0
EndSplineSet
Substitution2: "'ss01' Add Cartouche Lines-1" anuTok.cart
Substitution2: "'ss02' Add Container Lines-1" anuTok.cont
EndChar

StartChar: awenTok
Encoding: 8 989448 8
Width: 1000
VWidth: 950
Flags: HW
HStem: -50 100<58.4375 261 739 941.562>
LayerCount: 2
Fore
SplineSet
500 850 m 0
 523 850 543 834 549 812 c 2
 549 812 739 50 739 50 c 1
 739 50 900 50 900 50 c 2
 928 50 950 28 950 0 c 0
 950 -28 928 -50 900 -50 c 2
 900 -50 700 -50 700 -50 c 2
 677 -50 657 -34 651 -12 c 2
 651 -12 500 594 500 594 c 1
 500 594 349 -12 349 -12 c 2
 343 -34 323 -50 300 -50 c 2
 300 -50 100 -50 100 -50 c 2
 72 -50 50 -28 50 0 c 0
 50 28 72 50 100 50 c 2
 100 50 261 50 261 50 c 1
 261 50 451 812 451 812 c 2
 457 834 477 850 500 850 c 0
EndSplineSet
Substitution2: "'ss01' Add Cartouche Lines-1" awenTok.cart
Substitution2: "'ss02' Add Container Lines-1" awenTok.cont
EndChar

StartChar: eTok
Encoding: 9 989449 9
Width: 1000
VWidth: 950
Flags: HW
LayerCount: 2
Fore
SplineSet
450 800 m 0
 450 826.408203125 473.58203125 850 500 850 c 0
 512.75 850 525.5 845 535 835 c 2
 935 435 l 2
 945 425.5 950 412.75 950 400 c 0
 950 387.25 945 374.5 935 365 c 2
 935 365 535 -35 535 -35 c 2
 525.5 -45 512.75 -50 500 -50 c 0
 473.591796875 -50 450 -26.41796875 450 0 c 0
 450 12.75 455 25.5 465 35 c 2
 465 35 829 400 829 400 c 1
 829 400 465 765 465 765 c 2
 455 774.5 450 787.25 450 800 c 0
50 800 m 0
 50 826.408203125 73.58203125 850 100 850 c 0
 112.75 850 125.5 845 135 835 c 2
 535 435 l 2
 545 425.5 550 412.75 550 400 c 0
 550 387.25 545 374.5 535 365 c 2
 535 365 135 -35 135 -35 c 2
 125.5 -45 112.75 -50 100 -50 c 0
 73.591796875 -50 50 -26.41796875 50 0 c 0
 50 12.75 55 25.5 65 35 c 2
 65 35 429 400 429 400 c 1
 429 400 65 765 65 765 c 2
 55 774.5 50 787.25 50 800 c 0
EndSplineSet
Substitution2: "'ss01' Add Cartouche Lines-1" eTok.cart
Substitution2: "'ss02' Add Container Lines-1" eTok.cont
EndChar

StartChar: enTok
Encoding: 10 989450 10
Width: 1000
VWidth: 950
Flags: HW
HStem: 350 100<58.4375 450 550 941.562>
VStem: 450 100<-41.5625 350 450 841.562>
LayerCount: 2
Fore
SplineSet
550 800 m 2
 550 800 550 450 550 450 c 1
 550 450 900 450 900 450 c 2
 928 450 950 428 950 400 c 0
 950 372 928 350 900 350 c 2
 900 350 550 350 550 350 c 1
 550 350 550 0 550 0 c 2
 550 -28 528 -50 500 -50 c 0
 472 -50 450 -28 450 0 c 2
 450 0 450 350 450 350 c 1
 450 350 100 350 100 350 c 2
 72 350 50 372 50 400 c 0
 50 428 72 450 100 450 c 2
 100 450 450 450 450 450 c 1
 450 450 450 800 450 800 c 2
 450 828 472 850 500 850 c 0
 528 850 550 828 550 800 c 2
EndSplineSet
Substitution2: "'ss01' Add Cartouche Lines-1" enTok.cart
Substitution2: "'ss02' Add Container Lines-1" enTok.cont
EndChar

StartChar: esunTok
Encoding: 11 989451 11
Width: 1000
VWidth: 950
Flags: HW
HStem: -55 100<168.615 298.248> 260 100<199.407 398> 440 100<599 792.414> 755 100<687.807 831.385>
VStem: 50 100<63.1263 212.687 672.749 846.562> 850 100<-46.5625 143.004 590.624 736.874>
LayerCount: 2
Fore
SplineSet
599 541 m 1
 624 540 650 540 678 540 c 0
 759 540 799 560 820 581 c 0
 841 602 850 633 850 670 c 0
 850 707 841 726 831 736 c 0
 822 746 803 755 767 755 c 0
 731 755 704 746 684 731 c 0
 665 716 648 693 637 656 c 1
 637 656 637 655 637 655 c 1
 628 627 615 587 599 541 c 1
398 259 m 1
 363 260 326 260 287 260 c 0
 227 260 195 242 178 221 c 0
 159 200 150 168 150 130 c 0
 150 93 159 74 169 64 c 0
 178 54 197 45 233 45 c 0
 262 45 291 58 316 80 c 0
 341 101 357 127 363 144 c 0
 370 172 383 213 398 259 c 1
459 114 m 1
 430.25 34.3857421875 344.342773438 -55 233 -55 c 0
 181 -55 133 -42 98 -6 c 0
 63 29 50 77 50 130 c 0
 50 182 63 240 102 286 c 0
 142 333 204 360 287 360 c 0
 339 360 386 359 431 358 c 1
 440.93359375 387.801757812 450.444335938 417.970703125 461 447 c 1
 284.059570312 461.745117188 141.666015625 499.889648438 83 627 c 0
 59 678 50 738 50 805 c 0
 50 833 72 855 100 855 c 0
 128 855 150 833 150 805 c 0
 150 692.467773438 172.99609375 634.529296875 246 596 c 0
 282 577 334 562 406 553 c 0
 433 549 463 547 495 545 c 1
 514 602 531 651 541 684 c 0
 557 737 584 781 624 811 c 0
 665 841 714 855 767 855 c 0
 819 855 867 842 902 806 c 0
 937 771 950 723 950 670 c 0
 950 617 937 558 891 511 c 0
 845 465 775 440 678 440 c 0
 638 440 600 440 565 442 c 1
 558 421 551 401 544 380 c 0
 541 371 538 362 535 353 c 1
 722.682617188 339.59375 873.434570312 306.670898438 926 170 c 0
 945 119 950 60 950 -5 c 0
 950 -33 928 -55 900 -55 c 0
 872 -55 850 -33 850 -5 c 0
 850 57 845 101 832 134 c 0
 821 164 802 186 770 204 c 0
 734 223 682 238 602 247 c 0
 572 250 539 253 502 255 c 1
 483 198 467 149 460 118 c 1
 459 116 l 1
 459 114 l 1
EndSplineSet
Substitution2: "'ss01' Add Cartouche Lines-1" esunTok.cart
Substitution2: "'ss02' Add Container Lines-1" esunTok.cont
EndChar

StartChar: ijoTok
Encoding: 12 989452 12
Width: 1000
VWidth: 950
Flags: W
HStem: -50 100<383.579 616.421> 750 100<383.579 616.421>
VStem: 50 100<283.579 516.421> 850 100<283.579 516.421>
LayerCount: 2
Fore
SplineSet
500 50 m 0
 693 50 850 207 850 400 c 0
 850 593 693 750 500 750 c 0
 307 750 150 593 150 400 c 0
 150 207 307 50 500 50 c 0
500 -50 m 0
 251 -50 50 151 50 400 c 0
 50 649 251 850 500 850 c 0
 749 850 950 649 950 400 c 0
 950 151 749 -50 500 -50 c 0
EndSplineSet
Substitution2: "'ss01' Add Cartouche Lines-1" ijoTok.cart
Substitution2: "'ss02' Add Container Lines-1" ijoTok.cont
EndChar

StartChar: ikeTok
Encoding: 13 989453 13
Width: 1000
VWidth: 950
Flags: HW
HStem: 550 100<383.579 616.421>
VStem: 50 100<158.438 312.619> 850 100<158.438 312.619>
LayerCount: 2
Fore
SplineSet
500 550 m 0
 307 550 150 393 150 200 c 0
 150 172 128 150 100 150 c 0
 72 150 50 172 50 200 c 0
 50 449 251 650 500 650 c 0
 749 650 950 449 950 200 c 0
 950 172 928 150 900 150 c 0
 872 150 850 172 850 200 c 0
 850 393 693 550 500 550 c 0
EndSplineSet
Substitution2: "'ss01' Add Cartouche Lines-1" ikeTok.cart
EndChar

StartChar: iloTok
Encoding: 14 989454 14
Width: 1000
VWidth: 950
Flags: HW
HStem: 350 100<150 450 550 850> 750 100<150 450 550 850>
VStem: 50 100<450 750> 450 100<-41.5625 350 450 750> 850 100<450 750>
CounterMasks: 1 38
LayerCount: 2
Fore
SplineSet
450 750 m 1
 450 750 150 750 150 750 c 1
 150 750 150 450 150 450 c 1
 150 450 450 450 450 450 c 1
 450 750 l 1
550 450 m 1
 550 450 850 450 850 450 c 1
 850 450 850 750 850 750 c 1
 850 750 550 750 550 750 c 1
 550 450 l 1
50 800 m 2
 50 828 72 850 100 850 c 2
 100 850 900 850 900 850 c 2
 928 850 950 828 950 800 c 2
 950 800 950 400 950 400 c 2
 950 372 928 350 900 350 c 2
 900 350 550 350 550 350 c 1
 550 350 550 0 550 0 c 2
 550 -28 528 -50 500 -50 c 0
 472 -50 450 -28 450 0 c 2
 450 0 450 350 450 350 c 1
 450 350 100 350 100 350 c 2
 72 350 50 372 50 400 c 2
 50 800 l 2
EndSplineSet
Substitution2: "'ss01' Add Cartouche Lines-1" iloTok.cart
Substitution2: "'ss02' Add Container Lines-1" iloTok.cont
EndChar

StartChar: insaTok
Encoding: 15 989455 15
Width: 1000
VWidth: 950
Flags: HW
HStem: -50 100<150 850> 300 200<438.358 561.642>
VStem: 50 100<50 841.562> 400 200<338.358 461.642> 850 100<50 841.562>
CounterMasks: 1 38
LayerCount: 2
Fore
SplineSet
600 400 m 0
 600 345 555 300 500 300 c 0
 445 300 400 345 400 400 c 0
 400 455 445 500 500 500 c 0
 555 500 600 455 600 400 c 0
100 850 m 0
 128 850 150 828 150 800 c 2
 150 800 150 50 150 50 c 1
 150 50 850 50 850 50 c 1
 850 50 850 800 850 800 c 2
 850 828 872 850 900 850 c 0
 928 850 950 828 950 800 c 2
 950 800 950 0 950 0 c 2
 950 -28 928 -50 900 -50 c 2
 900 -50 100 -50 100 -50 c 2
 72 -50 50 -28 50 0 c 2
 50 0 50 800 50 800 c 2
 50 828 72 850 100 850 c 0
EndSplineSet
Substitution2: "'ss01' Add Cartouche Lines-1" insaTok.cart
Substitution2: "'ss02' Add Container Lines-1" insaTok.cont
EndChar

StartChar: jakiTok
Encoding: 16 989456 16
Width: 1000
VWidth: 950
Flags: HW
HStem: -50 100<89.7012 203.86 459.706 691.192> 480 100.01<59.3081 149.306 462.149 617.816> 637 99.75<744 824.339> 750.286 99.5449<469.147 606.941>
VStem: 108.498 99.6377<180.565 396.37> 327 100<365.78 447.124> 645 99.6172<566.031 628> 848 100<153.62 314.374 500.535 616.156>
LayerCount: 2
Fore
SplineSet
564 333 m 1
 586 375 605 421 619 467 c 1
 589 475 558 479 530 480 c 0
 465 480 427 435 427 405 c 0
 427 394 435 376 459 357 c 0
 482 340 510 330 530 330 c 0
 541 331 552 331 564 333 c 1
629 244 m 1
 582.47265625 164.239257812 530.028320312 103.3515625 459 56 c 1
 484 52 508 50 530 50 c 0
 597 50 681 62 747 91 c 0
 812 120 848 161 848 218 c 0
 848 264 835 304 813 338 c 1
 761 297 697 263 629 244 c 1
742 410 m 1
 733 417 723 424 712 429 c 1
 707 412 701 396 694 379 c 1
 711 388 727 399 742 410 c 1
744 637 m 1
 744.416992188 629.6953125 744.6171875 622.346679688 744.6171875 614.954101562 c 0
 744.6171875 586.928710938 741.748046875 558.27734375 737 529 c 1
 760 518 783 505 803 490 c 0
 807 487 810 484 814 482 c 1
 821 492 828 502 833 512 c 0
 844.961914062 535.125976562 849.927734375 555.072265625 849.927734375 571.331054688 c 0
 849.927734375 595.362304688 838.602539062 611.065429688 825 619 c 0
 811 628 790 634 759 636 c 0
 754 636 749 637 744 637 c 1
612 724 m 1
 596.180664062 739.819335938 570.211914062 750.286132812 543.7421875 750.286132812 c 0
 522.770507812 750.286132812 500.571289062 744.5234375 477 733 c 0
 450 719 422 699 395 673 c 1
 468.953125 690.400390625 534.98046875 709.99609375 612 724 c 1
528.908203125 580.009765625 m 0
 564.91796875 580.009765625 603.486328125 574.125 641 565 c 1
 644 587 645 608 645 628 c 1
 583.033203125 617.064453125 524.435546875 600.430664062 464 587 c 0
 410 573 353 560 295 543 c 1
 253.422851562 470.239257812 208.135742188 365.599609375 208.135742188 265.068359375 c 0
 208.135742188 251.329101562 209.077148438 238.259765625 211 226 c 0
 219 177 259 134 324 100 c 0
 326 99 328 98 329 97 c 0
 391.540039062 124.943359375 456.5234375 173.698242188 501 233 c 1
 464 239 428 256 399 278 c 0
 362 305 327 350 327 405 c 0
 327 507.302734375 426.63671875 580.009765625 528.908203125 580.009765625 c 0
205 59 m 1
 145.232421875 108.373046875 108.498046875 167.821289062 108.498046875 267.543945312 c 0
 108.498046875 346.012695312 134.676757812 435.107421875 162 500 c 1
 148 495 133 489 119 483 c 0
 112.82421875 480.625 106.479492188 479.490234375 100.259765625 479.490234375 c 0
 75.0927734375 479.490234375 50.060546875 499.552734375 50.060546875 529.833984375 c 0
 50.060546875 549.452148438 62.1015625 568.440429688 81 576 c 0
 131 596 182 614 231 628 c 1
 239 642 248 654 258 667 c 0
 307 733 367 790 433 822 c 0
 468.822265625 839.383789062 506.864257812 849.831054688 545.225585938 849.831054688 c 0
 579.685546875 849.831054688 614.40234375 841.401367188 648 822 c 1
 648 822 650 822 650 822 c 1
 650 822 651 821 651 821 c 1
 684 799 707 770 722 736 c 1
 729 736.5 736.25 736.75 743.5 736.75 c 0
 856.98046875 736.75 950.01171875 684.865234375 950.01171875 568.938476562 c 0
 950.01171875 505.2734375 916.227539062 450.150390625 885 410 c 1
 923 358 948 294 948 218 c 0
 948 18.8173828125 714.766601562 -50 530 -50 c 0
 467 -50 395 -37 328 -11 c 1
 284.84765625 -26.103515625 215.153320312 -43.6279296875 173 -47 c 0
 160 -49 150 -49 143 -50 c 1
 131 -50 l 2
 104 -50 81 -28 81 0 c 0
 81 28 104 50 131 50 c 2
 138 50 l 1
 160.627929688 53.771484375 180.622070312 52.9052734375 205 59 c 1
EndSplineSet
Substitution2: "'ss01' Add Cartouche Lines-1" jakiTok.cart
Substitution2: "'ss02' Add Container Lines-1" jakiTok.cont
EndChar

StartChar: janTok
Encoding: 17 989457 17
Width: 1000
VWidth: 950
Flags: HW
HStem: 50 100<388.905 611.095> 750 100<390.166 609.834>
VStem: 100 100<339.974 559.834> 800 100<339.974 559.834>
LayerCount: 2
Fore
SplineSet
200 450 m 0
 200 284 334 150 500 150 c 0
 666 150 800 284 800 450 c 0
 800 616 666 750 500 750 c 0
 334 750 200 616 200 450 c 0
100.84375 -50.2431640625 m 0
 74.244140625 -50.2431640625 50.7568359375 -27.7080078125 50.7568359375 0.15625 c 0
 50.7568359375 14.23046875 56.55859375 28.193359375 68 38 c 2
 68 38 218 166 218 166 c 1
 145 239 100 339 100 450 c 0
 100 671 279 850 500 850 c 0
 721 850 900 671 900 450 c 0
 900 339 855 239 782 166 c 1
 782 166 932 38 932 38 c 2
 943.706054688 27.9658203125 949.819335938 13.892578125 949.819335938 -0.236328125 c 0
 949.819335938 -27.62109375 925.48046875 -49.8193359375 899.763671875 -49.8193359375 c 0
 888.545898438 -49.8193359375 877.293945312 -45.9658203125 868 -38 c 2
 868 -38 701 104 701 104 c 1
 642 70 573 50 500 50 c 0
 427 50 358 70 299 104 c 1
 299 104 134 -38 134 -38 c 2
 124.44140625 -46.193359375 112.603515625 -50.2431640625 100.84375 -50.2431640625 c 0
EndSplineSet
Substitution2: "'ss01' Add Cartouche Lines-1" janTok.cart
Substitution2: "'ss02' Add Container Lines-1" janTok.cont
EndChar

StartChar: jeloTok
Encoding: 18 989458 18
Width: 1000
VWidth: 950
Flags: HW
HStem: -50 100<240 760> 350 100<438.198 561.802> 500 100<208.438 312.045 687.955 791.562> 650 200<458.691 541.309>
VStem: 200 200<508.691 591.309> 450 100<737.955 841.562> 600 200<508.691 591.309>
CounterMasks: 1 0e
LayerCount: 2
Fore
SplineSet
500 350 m 0
 472 350 446 356 422 366 c 1
 422 366 240 50 240 50 c 1
 240 50 760 50 760 50 c 1
 760 50 578 366 578 366 c 1
 554 356 528 350 500 350 c 0
500 450 m 0
 555 450 600 495 600 550 c 0
 600 605 555 650 500 650 c 0
 445 650 400 605 400 550 c 0
 400 495 445 450 500 450 c 0
154 -50 m 2
 127.947265625 -50 103.25 -29.27734375 103.25 0 c 0
 103.25 8.75 105.5 17.5 110 25 c 2
 110 25 342 427 342 427 c 1
 326 448 313 473 306 500 c 1
 306 500 250 500 250 500 c 2
 222 500 200 522 200 550 c 0
 200 578 222 600 250 600 c 2
 250 600 306 600 306 600 c 1
 324 670 380 726 450 744 c 1
 450 744 450 800 450 800 c 2
 450 828 472 850 500 850 c 0
 528 850 550 828 550 800 c 2
 550 800 550 744 550 744 c 1
 620 726 676 670 694 600 c 1
 694 600 750 600 750 600 c 2
 778 600 800 578 800 550 c 0
 800 522 778 500 750 500 c 2
 750 500 694 500 694 500 c 1
 687 473 674 448 658 427 c 1
 658 427 890 25 890 25 c 2
 894.5 17.5 896.75 8.75 896.75 0 c 0
 896.75 -29.2626953125 872.049804688 -50 846 -50 c 2
 154 -50 l 2
EndSplineSet
Substitution2: "'ss01' Add Cartouche Lines-1" jeloTok.cart
Substitution2: "'ss02' Add Container Lines-1" jeloTok.cont
EndChar

StartChar: joTok
Encoding: 19 989459 19
Width: 1000
VWidth: 950
Flags: HW
HStem: -50 100<403.504 598.335> 250 100<508.438 745> 450 100<438.534 560.473> 750 100<439.527 560.473>
VStem: 150 100<203.504 400.645> 300 100<591.101 710.473> 600 100<589.527 710.473>
LayerCount: 2
Fore
SplineSet
600 650 m 0
 600 705 555 750 500 750 c 0
 445 750 400 705 400 650 c 0
 400 595 445 550 500 550 c 0
 555 550 600 595 600 650 c 0
700 650 m 0
 700 540 610 450 500 450 c 0
 445 450 396 472 360 507 c 1
 294 462 250 386 250 300 c 0
 250 162 362 50 500 50 c 0
 621 50 722 136 745 250 c 1
 745 250 550 250 550 250 c 2
 522 250 500 272 500 300 c 0
 500 328 522 350 550 350 c 2
 550 350 800 350 800 350 c 2
 828 350 850 328 850 300 c 0
 850 107 693 -50 500 -50 c 0
 307 -50 150 107 150 300 c 0
 150 423 213 530 308 593 c 1
 303 611 300 630 300 650 c 0
 300 760 390 850 500 850 c 0
 610 850 700 760 700 650 c 0
EndSplineSet
Substitution2: "'ss01' Add Cartouche Lines-1" joTok.cart
Substitution2: "'ss02' Add Container Lines-1" joTok.cont
EndChar

StartChar: kalaTok
Encoding: 20 989460 20
Width: 1000
VWidth: 950
Flags: HW
HStem: 150 100<58.4375 216.542 595.297 784.533> 550 100<58.4375 216.542 595.297 776.373>
VStem: 850 100<316.057 474.376>
LayerCount: 2
Fore
SplineSet
449 400 m 1
 507 301 598 250 712 250 c 0
 780 250 850 300 850 400 c 0
 850 484 777 550 712 550 c 0
 598 550 507 499 449 400 c 1
50 600 m 0
 50 628 72 650 100 650 c 0
 178 650 247 633 306 594 c 0
 341 570 371 538 396 500 c 1
 473 597 582 650 712 650 c 0
 835 650 950 536 950 400 c 0
 950 240 831 150 712 150 c 0
 582 150 473 203 396 300 c 1
 371 262 341 230 306 206 c 0
 247 167 178 150 100 150 c 0
 72 150 50 172 50 200 c 0
 50 228 72 250 100 250 c 0
 163 250 212 263 250 289 c 0
 284 312 313 347 337 400 c 1
 313 453 284 488 250 511 c 0
 212 537 163 550 100 550 c 0
 72 550 50 572 50 600 c 0
EndSplineSet
Substitution2: "'ss01' Add Cartouche Lines-1" kalaTok.cart
Substitution2: "'ss02' Add Container Lines-1" kalaTok.cont
EndChar

StartChar: kalamaTok
Encoding: 21 989461 21
Width: 1000
VWidth: 950
Flags: HW
HStem: -50 100<384.879 615.121> 350 100<154 846> 562 284<459.117 540.883>
VStem: 450 100<570.701 837.562>
LayerCount: 2
Fore
SplineSet
154 350 m 1
 178 180 324 50 500 50 c 0
 676 50 822 180 846 350 c 1
 154 350 l 1
50 400 m 0
 50 428 72 450 100 450 c 2
 100 450 900 450 900 450 c 2
 928 450 950 428 950 400 c 0
 950 151 749 -50 500 -50 c 0
 251 -50 50 151 50 400 c 0
500 846 m 0
 528 846 550 824 550 796 c 2
 550 796 550 612 550 612 c 2
 550 585 528 562 500 562 c 0
 472 562 450 585 450 612 c 2
 450 612 450 796 450 796 c 2
 450 824 472 846 500 846 c 0
170 680 m 0
 170 706.408203125 193.58203125 730 220 730 c 0
 232.75 730 245.5 725 255 715 c 2
 255 715 385 585 385 585 c 2
 395 575.5 400 562.75 400 550 c 0
 400 523.591796875 376.41796875 500 350 500 c 0
 337.25 500 324.5 505 315 515 c 2
 315 515 185 645 185 645 c 2
 175 654.5 170 667.25 170 680 c 0
650 500 m 0
 623.591796875 500 600 523.58203125 600 550 c 0
 600 562.75 605 575.5 615 585 c 2
 615 585 745 715 745 715 c 2
 754.5 725 767.25 730 780 730 c 0
 806.408203125 730 830 706.41796875 830 680 c 0
 830 667.25 825 654.5 815 645 c 2
 815 645 685 515 685 515 c 2
 675.5 505 662.75 500 650 500 c 0
EndSplineSet
Substitution2: "'ss01' Add Cartouche Lines-1" kalamaTok.cart
Substitution2: "'ss02' Add Container Lines-1" kalamaTok.cont
EndChar

StartChar: kamaTok
Encoding: 22 989462 22
Width: 1000
VWidth: 950
Flags: HW
HStem: -50 100<158.438 361 558.438 736>
LayerCount: 2
Fore
SplineSet
850.109375 0.8681640625 m 0
 850.109375 -27.392578125 826.979492188 -50 800 -50 c 2
 800 -50 600 -50 600 -50 c 2
 572 -50 550 -28 550 0 c 0
 550 28 572 50 600 50 c 2
 600 50 736 50 736 50 c 1
 736 50 600 594 600 594 c 1
 600 594 449 -12 449 -12 c 2
 443 -34 423 -50 400 -50 c 2
 400 -50 200 -50 200 -50 c 2
 172 -50 150 -28 150 0 c 0
 150 28 172 50 200 50 c 2
 200 50 361 50 361 50 c 1
 361 50 551 812 551 812 c 2
 557 834 577 850 600 850 c 0
 623 850 643 834 649 812 c 2
 649 812 849 12 849 12 c 2
 849.735351562 8.3251953125 850.109375 4.58984375 850.109375 0.8681640625 c 0
EndSplineSet
Substitution2: "'ss01' Add Cartouche Lines-1" kamaTok.cart
Substitution2: "'ss02' Add Container Lines-1" kamaTok.cont
EndChar

StartChar: kasiTok
Encoding: 23 989463 23
Width: 1000
VWidth: 950
Flags: HW
VStem: 450 100<-40.5625 408.136>
LayerCount: 2
Fore
SplineSet
563 508 m 1
 639.953125 518.993164062 725.202148438 544.989257812 764 585 c 0
 795.977539062 616.977539062 822.20703125 682.828125 837 742 c 1
 759.932617188 730.990234375 674.938476562 704.938476562 635 665 c 0
 604.155273438 633.012695312 577.74609375 566.985351562 563 508 c 1
364 666 m 0
 325.015625 704.984375 239.938476562 732.008789062 163 743 c 1
 177.760742188 683.955078125 204.131835938 618.010742188 235 586 c 0
 274.010742188 545.76953125 359.678710938 519.045898438 437 508 c 1
 422.00390625 567.983398438 395.967773438 634.032226562 364 666 c 0
102 850 m 2
 106 850 l 2
 107 850 110 849 113 849 c 0
 120 849 129 848 140 847 c 0
 163 844 194 840 228 832 c 0
 293 818 381 791 435 736 c 0
 463 708 484 670 500 633 c 1
 516 670 537 707 564 735 c 0
 619 791 707 818 772 832 c 0
 806 839 837 844 860 846 c 0
 871 848 880 849 887 849 c 0
 890 849 893 850 894 850 c 2
 897 850 l 2
 898.083007812 850.072265625 899.165039062 850.107421875 900.24609375 850.107421875 c 0
 926.592773438 850.107421875 949.864257812 828.294921875 949.864257812 801.348632812 c 0
 949.864257812 798.524414062 949.583984375 795.724609375 949 793 c 2
 949 790 l 2
 949 789 948 786 948 784 c 0
 942.62109375 751.724609375 937.04296875 727.650390625 926 689 c 0
 909 634 882 561 835 514 c 0
 781 459 693 432 628 418 c 0
 598 412 571 408 550 405 c 1
 550 405 550 1 550 1 c 2
 550 -27 528 -49 500 -49 c 0
 472 -49 450 -27 450 1 c 2
 450 1 450 405 450 405 c 1
 429 408 401 412 372 419 c 0
 307 433 219 460 164 515 c 0
 118 562 90 635 74 689 c 0
 62.9482421875 727.681640625 57.3916015625 751.649414062 52 784 c 0
 52 786 51 788 51 790 c 2
 51 793 l 2
 50.416015625 795.724609375 50.1357421875 798.486328125 50.1357421875 801.2578125 c 0
 50.1357421875 827.299804688 73.357421875 850.107421875 98.955078125 850.107421875 c 0
 99.9736328125 850.107421875 100.989257812 850.072265625 102 850 c 2
EndSplineSet
Substitution2: "'ss01' Add Cartouche Lines-1" kasiTok.cart
Substitution2: "'ss02' Add Container Lines-1" kasiTok.cont
EndChar

StartChar: kenTok
Encoding: 24 989464 24
Width: 1000
VWidth: 950
Flags: HW
HStem: 349 102<300 431.391>
VStem: 200 100<-41.5625 349 451 841.562> 700 100<-41.5625 100.28 699.818 841.562>
LayerCount: 2
Fore
SplineSet
800 7 m 2
 800 0 l 2
 800 -28 778 -50 750 -50 c 0
 722 -50 700 -28 700 0 c 2
 700 2 l 2
 700 18.142578125 698.250976562 30.994140625 693 52 c 0
 686 86 672 130 645 174 c 0
 596 252 500 336 300 349 c 1
 300 349 300 0 300 0 c 2
 300 -28 278 -50 250 -50 c 0
 222 -50 200 -28 200 0 c 2
 200 0 200 800 200 800 c 2
 200 828 222 850 250 850 c 0
 278 850 300 828 300 800 c 2
 300 800 300 451 300 451 c 1
 500 464 596 548 645 627 c 0
 672 670 686 714 693 748 c 0
 698.254882812 769.021484375 700 781.82421875 700 798 c 2
 700 800 l 2
 700 828 722 850 750 850 c 0
 778 850 800 828 800 800 c 2
 800 793 l 2
 800 790 799 785 799 778 c 0
 798 766 795 748 791 727 c 0
 758.768554688 580.168945312 671.479492188 462.567382812 524 400 c 1
 672.454101562 337.01953125 758.6328125 220.452148438 791 73 c 0
 795 52 798 34 799 22 c 0
 799 15 800 10 800 7 c 2
EndSplineSet
Substitution2: "'ss01' Add Cartouche Lines-1" kenTok.cart
Substitution2: "'ss02' Add Container Lines-1" kenTok.cont
EndChar

StartChar: kepekenTok
Encoding: 25 989465 25
Width: 1000
VWidth: 950
Flags: HW
HStem: 300 97<392.849 450 550 607.151> 450 100<200 450 550 800> 750 100<200 450 550 800>
VStem: 100 100<550 750> 450 100<394.72 450 550 750> 750 100<-41.5625 172.564> 800 100<550 750>
LayerCount: 2
Fore
SplineSet
450 750 m 1
 450 750 200 750 200 750 c 1
 200 750 200 550 200 550 c 1
 200 550 450 550 450 550 c 1
 450 750 l 1
550 550 m 1
 550 550 800 550 800 550 c 1
 800 550 800 750 800 750 c 1
 800 750 550 750 550 750 c 1
 550 550 l 1
50.26953125 300.22265625 m 0
 50.26953125 325.818359375 70.0068359375 349.73046875 100.22265625 349.73046875 c 0
 121.045898438 349.73046875 140.646484375 336.649414062 147 316 c 2
 147 316 180 217 180 217 c 1
 229 313 330 382 450 397 c 1
 450 397 450 450 450 450 c 1
 450 450 150 450 150 450 c 2
 122 450 100 472 100 500 c 2
 100 500 100 800 100 800 c 2
 100 828 122 850 150 850 c 2
 850 850 l 2
 878 850 900 828 900 800 c 2
 900 800 900 500 900 500 c 2
 900 472 878 450 850 450 c 2
 850 450 550 450 550 450 c 1
 550 450 550 397 550 397 c 1
 718 376 850 248 850 90 c 2
 850 90 850 0 850 0 c 2
 850 -28 828 -50 800 -50 c 0
 772 -50 750 -28 750 0 c 2
 750 0 750 90 750 90 c 2
 750 197 648 300 500 300 c 0
 352 300 250 197 250 90 c 2
 250 90 250 0 250 0 c 2
 250 -26.8359375 229.106445312 -49.6796875 199.790039062 -49.6796875 c 0
 178.732421875 -49.6796875 159.19921875 -36.369140625 153 -16 c 2
 153 -16 53 284 53 284 c 2
 51.1484375 289.350585938 50.26953125 294.827148438 50.26953125 300.22265625 c 0
EndSplineSet
Substitution2: "'ss01' Add Cartouche Lines-1" kepekenTok.cart
Substitution2: "'ss02' Add Container Lines-1" kepekenTok.cont
EndChar

StartChar: kiliTok
Encoding: 26 989466 26
Width: 1000
VWidth: 950
Flags: HW
HStem: -52 100<383.012 616.988> 610 100.144<187.21 340.235 664.212 806.097>
VStem: 50 100<281.012 558.843> 450 100<658 841.562> 850 100<281.012 552.304>
CounterMasks: 1 38
LayerCount: 2
Fore
SplineSet
850 398 m 0
 850 511 829 563 813 584 c 0
 802 599 789 606 761 606 c 0
 759.52734375 606.045898438 758.037109375 606.068359375 756.530273438 606.068359375 c 0
 706.195675716 606.068359375 626.741539413 575.498259767 576 561 c 0
 557 555 528 548 500 548 c 0
 471 548 442 556 423 562 c 0
 371.079101562 576.833984375 288.14453125 610 238 610 c 0
 211 610 198 603 187 588 c 0
 171 567 150 514 150 398 c 0
 150 203 305 48 500 48 c 0
 695 48 850 203 850 398 c 0
237.487304688 710.143554688 m 0
 310.890625 710.143554688 388.006835938 678.6640625 450 658 c 1
 450 658 450 800 450 800 c 2
 450 828 472 850 500 850 c 0
 528 850 550 828 550 800 c 2
 550 800 550 657 550 657 c 1
 611.006835938 677.3359375 687.619140625 706.080078125 759.888671875 706.080078125 c 0
 860.979492188 706.080078125 950 644.887695312 950 398 c 0
 950 148 750 -52 500 -52 c 0
 250 -52 50 148 50 398 c 0
 50 647.727539062 137.491210938 710.143554688 237.487304688 710.143554688 c 0
EndSplineSet
Substitution2: "'ss01' Add Cartouche Lines-1" kiliTok.cart
Substitution2: "'ss02' Add Container Lines-1" kiliTok.cont
EndChar

StartChar: kiwenTok
Encoding: 27 989467 27
Width: 1000
VWidth: 950
Flags: HW
HStem: 730 100<290 711>
LayerCount: 2
Fore
SplineSet
841 329 m 1
 841 329 711 730 711 730 c 1
 711 730 290 730 290 730 c 1
 290 730 160 329 160 329 c 1
 160 329 501 82 501 82 c 1
 841 329 l 1
530 -20 m 2
 521 -26.5 510.75 -29.75 500.5 -29.75 c 0
 490.25 -29.75 480 -26.5 471 -20 c 2
 471 -20 72 270 72 270 c 2
 58.6279296875 278.915039062 51.326171875 293.901367188 51.326171875 309.627929688 c 0
 51.326171875 315.0703125 52.2001953125 320.6015625 54 326 c 2
 54 326 206 795 206 795 c 2
 213 816 232 830 254 830 c 2
 254 830 747 830 747 830 c 2
 769 830 788 816 795 795 c 2
 795 795 948 326 948 326 c 2
 949.41015625 321.064453125 950.102539062 316.018554688 950.102539062 311.03125 c 0
 950.102539062 294.796875 942.76953125 279.1796875 929 270 c 2
 530 -20 l 2
EndSplineSet
Substitution2: "'ss01' Add Cartouche Lines-1" kiwenTok.cart
Substitution2: "'ss02' Add Container Lines-1" kiwenTok.cont
EndChar

StartChar: koTok
Encoding: 28 989468 28
Width: 1000
VWidth: 1029
Flags: HW
HStem: -40 100<291.783 427.694 570.831 708.143> 575 100<206.808 290.828 709.258 794.591> 740 100<429.978 569.003>
VStem: 50 100<381.176 520.763> 136 100<116.277 253.892> 764 100<116.827 253.031> 850 100<381.176 521.132>
LayerCount: 2
Fore
SplineSet
641 60 m 0
 710.88875242 60 764 120.64669179 764 183.333007812 c 0
 764 208.333007812 756 233.333007812 740 256.666992188 c 0
 733 265 731 275 731 286.666992188 c 0
 731 306.666992188 744 326.666992188 765 333.333007812 c 0
 817 350 850 398.333007812 850 450 c 0
 850 526.666992188 788 575 726 575 c 0
 714 575 701 573.333007812 689 568.333007812 c 0
 684 566.666992188 678 566.666992188 673 566.666992188 c 0
 647 566.666992188 623 586.666992188 623 616.666992188 c 0
 623 685 568 740 500 740 c 0
 433 740 379 688.333007812 376 621.666992188 c 0
 376 620 377 616.666992188 377 615 c 0
 377 585 351 566.666992188 327 566.666992188 c 0
 322 566.666992188 316 566.666992188 311 568.333007812 c 0
 298 573.333007812 286 575 273 575 c 0
 211 575 150 525 150 450 c 0
 150 398.333007812 183 350 235 333.333007812 c 0
 256 326.666992188 270 306.666992188 270 286.666992188 c 0
 270 271.666992188 265 260 257 253.333007812 c 0
 243 231.666992188 236 208.333007812 236 183.333007812 c 0
 236 120.650363742 289.061061995 60 359 60 c 0
 397 60 435 78.3330078125 459 111.666992188 c 0
 469 123.333007812 484 131.666992188 500 131.666992188 c 0
 515 131.666992188 530 123.333007812 540 111.666992188 c 0
 564 78.3330078125 603 60 641 60 c 0
50 450 m 0
 50 586.666992188 161 675 275 675 c 0
 278 675 281 675 284 675 c 0
 309 770 396 840 500 840 c 0
 603 840 690 770 716 675 c 1
 727 675 l 2
 840 675 950 586.666992188 950 450 c 0
 950 375 912 305 849 263.333007812 c 1
 859 238.333007812 864 211.666992188 864 183.333007812 c 0
 864 115 832 46.6669921875 771 1.6669921875 c 0
 732 -26.6669921875 686 -40 640 -40 c 0
 590 -40 540 -23.3330078125 500 8.3330078125 c 1
 460 -23.3330078125 410 -40 360 -40 c 0
 314 -40 268 -26.6669921875 228 1.6669921875 c 0
 168 45 136 113.333007812 136 183.333007812 c 0
 136 210 141 238.333007812 151 263.333007812 c 1
 88 305 50 375 50 450 c 0
EndSplineSet
Substitution2: "'ss01' Add Cartouche Lines-1" koTok.cart
Substitution2: "'ss02' Add Container Lines-1" koTok.cont
EndChar

StartChar: konTok
Encoding: 29 989469 29
Width: 1000
VWidth: 950
Flags: HW
HStem: -49.7471 99.6875<137.561 309.047 537.561 709.047> -35 96.8438<109.052 225.849 509.052 625.849> 738.166 96.834<374.151 490.874 774.151 890.874> 750.06 99.6777<290.985 462.392 690.985 862.392>
VStem: 100.25 106.956<517.437 672.46> 392.794 106.956<127.733 282.46> 500.25 106.956<517.437 672.46> 792.794 106.956<127.733 282.46>
LayerCount: 2
Fore
SplineSet
773.28515625 750.059570312 m 0
 690.584960938 750.059570312 607.206054688 689.916015625 607.206054688 593.513671875 c 0
 607.206054688 529.624023438 649.63671875 469.788085938 718 447 c 0
 719 447 720 446 721 446 c 0
 831.08984375 408.254882812 899.75 310.529296875 899.75 205.823242188 c 0
 899.75 177.376953125 894.681640625 148.4140625 884 120 c 0
 844.63671875 15.29296875 739.57421875 -49.7470703125 627.368164062 -49.7470703125 c 0
 597.048828125 -49.7470703125 566.208007812 -44.998046875 536 -35 c 0
 513.8984375 -27.8955078125 499.896484375 -8.330078125 499.896484375 12.384765625 c 0
 499.896484375 43.19921875 526.859375 61.84375 552.97265625 61.84375 c 0
 558.9296875 61.84375 565.010742188 60.9248046875 571 59 c 0
 589.444335938 52.8515625 608.248046875 49.9404296875 626.71484375 49.9404296875 c 0
 709.415039062 49.9404296875 792.793945312 110.083984375 792.793945312 206.486328125 c 0
 792.793945312 270.375976562 750.36328125 330.211914062 682 353 c 0
 681 353 680 354 679 354 c 0
 568.91015625 391.745117188 500.25 489.470703125 500.25 593.690429688 c 0
 500.25 622.004882812 505.318359375 650.798828125 516 679 c 0
 555.374023438 784.5234375 660.482421875 849.737304688 772.723632812 849.737304688 c 0
 803.013671875 849.737304688 833.823242188 844.98828125 864 835 c 0
 886.1015625 827.895507812 900.103515625 808.953125 900.103515625 788.500976562 c 0
 900.103515625 757.268554688 872.86328125 738.166015625 846.932617188 738.166015625 c 0
 841.005859375 738.166015625 834.958007812 739.084960938 829 741 c 0
 810.555664062 747.1484375 791.751953125 750.059570312 773.28515625 750.059570312 c 0
373.28515625 750.059570312 m 0
 290.584960938 750.059570312 207.206054688 689.916015625 207.206054688 593.513671875 c 0
 207.206054688 529.624023438 249.63671875 469.788085938 318 447 c 0
 319 447 320 446 321 446 c 0
 431.08984375 408.254882812 499.75 310.529296875 499.75 205.823242188 c 0
 499.75 177.376953125 494.681640625 148.4140625 484 120 c 0
 444.63671875 15.29296875 339.57421875 -49.7470703125 227.368164062 -49.7470703125 c 0
 197.048828125 -49.7470703125 166.208007812 -44.998046875 136 -35 c 0
 113.8984375 -27.8955078125 99.896484375 -8.330078125 99.896484375 12.384765625 c 0
 99.896484375 43.19921875 126.859375 61.84375 152.97265625 61.84375 c 0
 158.9296875 61.84375 165.010742188 60.9248046875 171 59 c 0
 189.444335938 52.8515625 208.248046875 49.9404296875 226.71484375 49.9404296875 c 0
 309.415039062 49.9404296875 392.793945312 110.083984375 392.793945312 206.486328125 c 0
 392.793945312 270.375976562 350.36328125 330.211914062 282 353 c 0
 281 353 280 354 279 354 c 0
 168.91015625 391.745117188 100.25 489.470703125 100.25 593.690429688 c 0
 100.25 622.004882812 105.318359375 650.798828125 116 679 c 0
 155.374023438 784.5234375 260.482421875 849.737304688 372.723632812 849.737304688 c 0
 403.013671875 849.737304688 433.823242188 844.98828125 464 835 c 0
 486.1015625 827.895507812 500.103515625 808.953125 500.103515625 788.500976562 c 0
 500.103515625 757.268554688 472.86328125 738.166015625 446.932617188 738.166015625 c 0
 441.005859375 738.166015625 434.958007812 739.084960938 429 741 c 0
 410.555664062 747.1484375 391.751953125 750.059570312 373.28515625 750.059570312 c 0
EndSplineSet
Substitution2: "'ss01' Add Cartouche Lines-1" konTok.cart
Substitution2: "'ss02' Add Container Lines-1" konTok.cont
EndChar

StartChar: kuleTok
Encoding: 30 989470 30
Width: 1000
VWidth: 950
Flags: HW
HStem: 0 100<197 803> 300 100<108.438 197 370 630 803 891.562>
LayerCount: 2
Fore
SplineSet
312 300 m 1
 312 300 197 100 197 100 c 1
 197 100 803 100 803 100 c 1
 803 100 688 300 688 300 c 1
 312 300 l 1
630 400 m 1
 630 400 500 625 500 625 c 1
 500 625 370 400 370 400 c 1
 630 400 l 1
110 0 m 2
 84.2666015625 0 60.25 21.1005859375 60.25 50 c 0
 60.25 58.75 62.5 67.5 67 75 c 2
 67 75 197 300 197 300 c 1
 197 300 150 300 150 300 c 2
 122 300 100 322 100 350 c 0
 100 378 122 400 150 400 c 2
 150 400 255 400 255 400 c 1
 255 400 457 750 457 750 c 2
 466 765 482 775 500 775 c 0
 518 775 534 765 543 750 c 2
 543 750 745 400 745 400 c 1
 745 400 850 400 850 400 c 2
 878 400 900 378 900 350 c 0
 900 322 878 300 850 300 c 2
 850 300 803 300 803 300 c 1
 803 300 933 75 933 75 c 2
 937.5 67.5 939.75 58.75 939.75 50 c 0
 939.75 21.1142578125 915.727539062 0 890 0 c 2
 110 0 l 2
EndSplineSet
Substitution2: "'ss01' Add Cartouche Lines-1" kuleTok.cart
Substitution2: "'ss02' Add Container Lines-1" kuleTok.cont
EndChar

StartChar: kulupuTok
Encoding: 31 989471 31
Width: 1000
VWidth: 950
Flags: HW
HStem: -12 92<205.533 344.842 655.533 794.842> 330 108<205.533 345.301 654.825 794.842> 377 92<431.252 571.204> 719 108<431.533 570.842>
VStem: 53 97<135.435 274.688> 279 97<525.2 663.688> 400 103<135.743 213 215 274.873> 503 97<135.743 213 215 274.354> 626 103<524.983 663.688> 850 103<135.435 274.688>
LayerCount: 2
Fore
SplineSet
503 213 m 1
 503 89 402 -12 278 -12 c 0
 154 -12 53 89 53 213 c 0
 53 337 154 438 278 438 c 0
 317 438 353 428 385 411 c 1
 322 450 279 521 279 602 c 0
 279 726 380 827 504 827 c 0
 628 827 729 726 729 602 c 0
 729 524 690 456 630 416 c 1
 660 430 693 438 728 438 c 0
 852 438 953 337 953 213 c 0
 953 89 852 -12 728 -12 c 0
 604 -12 503 89 503 213 c 1
503 215 m 1
 503 293 542 359 602 399 c 1
 572 385 539 377 504 377 c 0
 465 377 429 387 397 404 c 1
 460 365 503 293 503 215 c 1
501 469 m 0
 570 469 626 525 626 594 c 0
 626 663 570 719 501 719 c 0
 432 719 376 663 376 594 c 0
 376 525 432 469 501 469 c 0
725 80 m 0
 794 80 850 136 850 205 c 0
 850 274 794 330 725 330 c 0
 656 330 600 274 600 205 c 0
 600 136 656 80 725 80 c 0
400 205 m 0
 400 274 344 330 275 330 c 0
 206 330 150 274 150 205 c 0
 150 136 206 80 275 80 c 0
 344 80 400 136 400 205 c 0
EndSplineSet
Substitution2: "'ss01' Add Cartouche Lines-1" kulupuTok.cart
Substitution2: "'ss02' Add Container Lines-1" kulupuTok.cont
EndChar

StartChar: kuteTok
Encoding: 32 989472 32
Width: 1000
VWidth: 950
Flags: HW
HStem: -44 89<228 269.08> 750 100<467.126 595.418>
VStem: 201.073 95.9268<512 548.413> 505 95.0615<533.514 590.897> 734 100<451.925 610.833>
LayerCount: 2
Fore
SplineSet
549.883789062 600.061523438 m 0
 580.034179688 600.061523438 600.061523438 575.293945312 600.061523438 550.116210938 c 0
 600.061523438 542.694335938 598.428710938 535.142578125 595 528 c 0
 539 412 444 324 324 256 c 0
 316.338867188 251.849609375 308.065429688 249.83984375 299.896484375 249.83984375 c 0
 275.358398438 249.83984375 249.83984375 270.180664062 249.83984375 300.103515625 c 0
 249.83984375 317.5234375 258.98046875 334.46875 276 344 c 0
 382 404 460 478 505 572 c 0
 513.571289062 589.857421875 531.326171875 600.061523438 549.883789062 600.061523438 c 0
250.755859375 -49.9267578125 m 0
 226.3046875 -49.9267578125 201.073242188 -29.296875 201.073242188 0.244140625 c 0
 201.073242188 17.888671875 210.7109375 35.009765625 228 44 c 1
 228 44 228 45 229 45 c 0
 230 45 231 46 233 47 c 0
 258.0625 59.53125 276.233398438 71.1455078125 308 91 c 0
 419.502929688 156.991210938 578.977539062 272.124023438 662 375 c 0
 709 434 734 487 734 533 c 0
 734 579 708 633 663 678 c 0
 618 724 563 750 518 750 c 0
 503 750 482 742 454 719 c 0
 395.560546875 671.798828125 337.901367188 584.578125 301 520 c 0
 299 517 297 514 297 512 c 1
 296 512 296 511 295 510 c 0
 285.903320312 493.206054688 268.482421875 483.266601562 250.618164062 483.266601562 c 0
 221.196289062 483.266601562 201.073242188 508.599609375 201.073242188 533.086914062 c 0
 201.073242188 541.103515625 202.990234375 549.2890625 207 557 c 1
 207 558 l 1
 209.09375 558 212.251953125 565.50390625 214 569 c 0
 218 577 224 588 232 601 c 0
 271.561523438 665.287109375 329.061523438 748.047851562 392 797 c 0
 426 825 469 850 518 850 c 0
 598 850 677 806 733 749 c 0
 790 692 834 614 834 533 c 0
 834 453 793 378 740 312 c 0
 644.393554688 195.1484375 483.026367188 79.7802734375 360 5 c 0
 335 -10 313 -23 298 -31 c 0
 291 -35 285 -38 281 -41 c 0
 279 -42 277 -43 276 -43 c 1
 276 -44 275 -44 275 -44 c 1
 275 -44 274 -44 274 -44 c 1
 266.59765625 -48.009765625 258.625 -49.9267578125 250.755859375 -49.9267578125 c 0
EndSplineSet
Substitution2: "'ss01' Add Cartouche Lines-1" kuteTok.cart
Substitution2: "'ss02' Add Container Lines-1" kuteTok.cont
EndChar

StartChar: laTok
Encoding: 33 989473 33
Width: 1000
VWidth: 950
Flags: HW
HStem: -50 100<259.438 413.286> 750 100<259.438 413.286>
VStem: 651 100<283.579 516.421>
LayerCount: 2
Fore
SplineSet
651 400 m 0
 651 593 494 750 301 750 c 0
 273 750 251 772 251 800 c 0
 251 828 273 850 301 850 c 0
 549 850 751 649 751 400 c 0
 751 151 549 -50 301 -50 c 0
 273 -50 251 -28 251 0 c 0
 251 28 273 50 301 50 c 0
 494 50 651 207 651 400 c 0
EndSplineSet
Substitution2: "'ss01' Add Cartouche Lines-1" laTok.cart
Substitution2: "'ss02' Add Container Lines-1" laTok.cont
EndChar

StartChar: lapeTok
Encoding: 34 989474 34
Width: 1000
VWidth: 950
Flags: HW
HStem: 74 100<531.18 719.472> 350 100<58.4375 306.573> 624 100<531.423 719.472>
VStem: 304 96<307.143 350 450 491.482> 850 100<304.528 493.472>
LayerCount: 2
Fore
SplineSet
850 399 m 0
 850 523 749 624 625 624 c 0
 501 624 400 523 400 399 c 0
 400 275 501 174 625 174 c 0
 749 174 850 275 850 399 c 0
950 399 m 0
 950 220 804 74 625 74 c 0
 462 74 327 194 304 350 c 1
 304 350 100 350 100 350 c 2
 72 350 50 372 50 400 c 0
 50 428 72 450 100 450 c 2
 100 450 304 450 304 450 c 1
 328 605 463 724 625 724 c 0
 804 724 950 578 950 399 c 0
EndSplineSet
Substitution2: "'ss01' Add Cartouche Lines-1" lapeTok.cart
Substitution2: "'ss02' Add Container Lines-1" lapeTok.cont
EndChar

StartChar: lasoTok
Encoding: 35 989475 35
Width: 1000
VWidth: 950
Flags: HW
HStem: -50 100<283 717>
LayerCount: 2
Fore
SplineSet
500 425 m 1
 500 425 283 50 283 50 c 1
 283 50 717 50 717 50 c 1
 500 425 l 1
565 552 m 1
 628.025390625 559.002929688 698.049804688 586.049804688 728 616 c 0
 752.659179688 640.659179688 774.809570312 693.236328125 787 742 c 1
 723.100585938 727.799804688 656.524414062 710.729492188 624 677 c 0
 601 654 582 610 568 564 c 0
 567 560 566 556 565 552 c 1
214 742 m 1
 226.009765625 693.962890625 248.747070312 641.252929688 273 617 c 0
 305.91015625 582.87109375 373.219726562 566.173828125 437 552 c 1
 425.014648438 599.940429688 402.67578125 653.393554688 377 678 c 0
 347.842773438 708.279296875 277.45703125 734.94921875 214 742 c 1
900 793 m 2
 900 790 l 2
 900 782.5859375 897.458984375 774.8359375 895 765 c 0
 892 748 887 726 879 701 c 0
 865 653 841 588 799 546 c 0
 750 496 671 472 614 460 c 0
 609 458 603 457 597 456 c 1
 597 456 846 25 846 25 c 2
 850.5 17.5 852.75 8.75 852.75 0 c 0
 852.75 -28.8857421875 828.727539062 -50 803 -50 c 2
 803 -50 197 -50 197 -50 c 2
 171.266601562 -50 147.25 -28.8994140625 147.25 0 c 0
 147.25 8.75 149.5 17.5 154 25 c 2
 154 25 403 457 403 457 c 1
 336.375976562 470.325195312 256.07421875 491.92578125 202 546 c 0
 160 589 136 654 122 701 c 0
 110.93359375 735.58203125 107.653320312 756.734375 102 785 c 0
 101 787 101 789 101 790 c 2
 101 793 l 2
 100.416015625 795.724609375 100.135742188 798.486328125 100.135742188 801.2578125 c 0
 100.135742188 827.709960938 123.3515625 850.107421875 149.75390625 850.107421875 c 0
 150.834960938 850.107421875 151.916992188 850.072265625 153 850 c 2
 155 850 l 2
 157 850 159 850 162 849 c 0
 168 849 176 848 186 847 c 0
 206 845 233 841 263 834 c 0
 321 822 399 798 449 748 c 0
 470 726 488 698 501 669 c 1
 514 698 531 726 553 747 c 0
 602 797 680 822 737 834 c 0
 768 841 795 845 815 847 c 0
 825 848 833 849 839 849 c 0
 842 849 844 850 846 850 c 2
 848 850 l 2
 849.083007812 850.072265625 850.165039062 850.107421875 851.24609375 850.107421875 c 0
 877.592773438 850.107421875 900.864257812 828.294921875 900.864257812 801.348632812 c 0
 900.864257812 798.524414062 900.583984375 795.724609375 900 793 c 2
EndSplineSet
Substitution2: "'ss01' Add Cartouche Lines-1" lasoTok.cart
Substitution2: "'ss02' Add Container Lines-1" lasoTok.cont
EndChar

StartChar: lawaTok
Encoding: 36 989476 36
Width: 1000
VWidth: 950
Flags: HW
HStem: 25 100<320.142 529.858> 500 100<236 614 787 941.562> 675 100<320.636 529.325>
VStem: 50 100<295.142 496.114> 700 100<295.142 498.522>
LayerCount: 2
Fore
SplineSet
169 500 m 1
 157 469 150 435 150 400 c 0
 150 248 273 125 425 125 c 0
 577 125 700 248 700 400 c 0
 700 435 693 469 681 500 c 1
 169 500 l 1
236 600 m 1
 236 600 614 600 614 600 c 1
 564 646 498 675 425 675 c 0
 352 675 286 646 236 600 c 1
787 500 m 1
 795 468 800 435 800 400 c 0
 800 193 632 25 425 25 c 0
 218 25 50 193 50 400 c 0
 50 607 218 775 425 775 c 0
 559 775 676 705 742 600 c 1
 742 600 900 600 900 600 c 2
 928 600 950 578 950 550 c 0
 950 522 928 500 900 500 c 2
 787 500 l 1
EndSplineSet
Substitution2: "'ss01' Add Cartouche Lines-1" lawaTok.cart
Substitution2: "'ss02' Add Container Lines-1" lawaTok.cont
EndChar

StartChar: lenTok
Encoding: 37 989477 37
Width: 1000
VWidth: 950
Flags: HW
HStem: 150 100<250 450 550 750> 750 100<250 750>
VStem: 150 100<-41.5625 150 250 750> 450 100<-41.5625 150> 750 100<-41.5625 150 250 750>
CounterMasks: 1 38
LayerCount: 2
Fore
SplineSet
750 250 m 1
 750 250 750 750 750 750 c 1
 750 750 250 750 250 750 c 1
 250 750 250 250 250 250 c 1
 750 250 l 1
200 850 m 2
 200 850 800 850 800 850 c 2
 828 850 850 828 850 800 c 2
 850 800 850 0 850 0 c 2
 850 -28 828 -50 800 -50 c 0
 772 -50 750 -28 750 0 c 2
 750 0 750 150 750 150 c 1
 750 150 550 150 550 150 c 1
 550 150 550 0 550 0 c 2
 550 -28 528 -50 500 -50 c 0
 472 -50 450 -28 450 0 c 2
 450 0 450 150 450 150 c 1
 450 150 250 150 250 150 c 1
 250 150 250 0 250 0 c 2
 250 -28 228 -50 200 -50 c 0
 172 -50 150 -28 150 0 c 2
 150 0 150 800 150 800 c 2
 150 828 172 850 200 850 c 2
EndSplineSet
Substitution2: "'ss01' Add Cartouche Lines-1" lenTok.cart
Substitution2: "'ss02' Add Container Lines-1" lenTok.cont
EndChar

StartChar: leteTok
Encoding: 38 989478 38
Width: 1000
VWidth: 950
Flags: HW
HStem: 350 100<58.4375 413 587 941.562>
LayerCount: 2
Fore
SplineSet
700.651367188 796.63671875 m 0
 729.854492188 796.63671875 749.888671875 771.287109375 749.888671875 746.444335938 c 0
 749.888671875 737.77734375 747.666992188 729 743 721 c 2
 743 721 587 450 587 450 c 1
 587 450 900 450 900 450 c 2
 928 450 950 428 950 400 c 0
 950 372 928 350 900 350 c 2
 900 350 587 350 587 350 c 1
 587 350 743 79 743 79 c 2
 747.666992188 71 749.888671875 62.22265625 749.888671875 53.5556640625 c 0
 749.888671875 28.7099609375 729.8828125 3.36328125 700.651367188 3.36328125 c 0
 683.317382812 3.36328125 666.486328125 12.73828125 657 29 c 2
 657 29 500 300 500 300 c 1
 500 300 343 29 343 29 c 2
 333.513671875 12.73828125 316.682617188 3.36328125 299.348632812 3.36328125 c 0
 270.145507812 3.36328125 250.111328125 28.712890625 250.111328125 53.5556640625 c 0
 250.111328125 62.22265625 252.333007812 71 257 79 c 2
 257 79 413 350 413 350 c 1
 413 350 100 350 100 350 c 2
 72 350 50 372 50 400 c 0
 50 428 72 450 100 450 c 2
 100 450 413 450 413 450 c 1
 413 450 257 721 257 721 c 2
 252.333007812 729 250.111328125 737.77734375 250.111328125 746.444335938 c 0
 250.111328125 771.290039062 270.1171875 796.63671875 299.348632812 796.63671875 c 0
 316.682617188 796.63671875 333.513671875 787.26171875 343 771 c 2
 343 771 500 500 500 500 c 1
 500 500 657 771 657 771 c 2
 666.486328125 787.26171875 683.317382812 796.63671875 700.651367188 796.63671875 c 0
EndSplineSet
Substitution2: "'ss01' Add Cartouche Lines-1" leteTok.cart
Substitution2: "'ss02' Add Container Lines-1" leteTok.cont
EndChar

StartChar: liTok
Encoding: 39 989479 39
Width: 1000
VWidth: 950
Flags: W
LayerCount: 2
Fore
SplineSet
250 800 m 0
 250 826.408203125 273.58203125 850 300 850 c 0
 312.75 850 325.5 845 335 835 c 2
 735 435 l 2
 745 425.5 750 412.75 750 400 c 0
 750 387.25 745 374.5 735 365 c 2
 735 365 335 -35 335 -35 c 2
 325.5 -45 312.75 -50 300 -50 c 0
 273.591796875 -50 250 -26.41796875 250 0 c 0
 250 12.75 255 25.5 265 35 c 2
 265 35 629 400 629 400 c 1
 629 400 265 765 265 765 c 2
 255 774.5 250 787.25 250 800 c 0
EndSplineSet
Substitution2: "'ss01' Add Cartouche Lines-1" liTok.cart
Substitution2: "'ss02' Add Container Lines-1" liTok.cont
EndChar

StartChar: liliTok
Encoding: 40 989480 40
Width: 1000
VWidth: 950
Flags: HW
LayerCount: 2
Fore
SplineSet
200 550 m 0
 200 576.408203125 223.58203125 600 250 600 c 0
 262.75 600 275.5 595 285 585 c 2
 285 585 500 371 500 371 c 1
 500 371 715 585 715 585 c 2
 724.5 595 737.25 600 750 600 c 0
 776.408203125 600 800 576.41796875 800 550 c 0
 800 537.25 795 524.5 785 515 c 2
 785 515 535 265 535 265 c 2
 525.5 255 512.75 250 500 250 c 0
 487.25 250 474.5 255 465 265 c 2
 465 265 215 515 215 515 c 2
 205 524.5 200 537.25 200 550 c 0
EndSplineSet
Substitution2: "'ss01' Add Cartouche Lines-1" liliTok.cart
Substitution2: "'ss02' Add Container Lines-1" liliTok.cont
EndChar

StartChar: linjaTok
Encoding: 41 989481 41
Width: 1000
VWidth: 950
Flags: HW
HStem: 216.619 100.08<232.075 386.719> 483.301 100.08<613.281 767.925>
VStem: 61.6191 99.5713<390.482 548.743> 76 96.8438<467.911 575.023> 838.81 99.5713<251.257 409.518>
LayerCount: 2
Fore
SplineSet
123.768554688 583.73046875 m 0
 154.05078125 583.73046875 172.84375 557.991210938 172.84375 533.763671875 c 0
 172.84375 528.21484375 171.924804688 522.561523438 170 517 c 0
 164.0234375 500.349609375 161.190429688 483.334960938 161.190429688 466.59765625 c 0
 161.190429688 392.141601562 219.286132812 316.69921875 310.217773438 316.69921875 c 0
 372.331054688 316.69921875 430.8359375 355.2578125 453 417 c 0
 489.248046875 519.439453125 585.7265625 583.380859375 688.61328125 583.380859375 c 0
 840.4765625 583.380859375 938.380859375 458.427734375 938.380859375 333.38671875 c 0
 938.380859375 305.706054688 933.751953125 277.560546875 924 250 c 0
 916.8515625 229.350585938 897.087890625 216.26953125 876.231445312 216.26953125 c 0
 845.94921875 216.26953125 827.15625 242.008789062 827.15625 266.236328125 c 0
 827.15625 271.78515625 828.075195312 277.438476562 830 283 c 0
 835.9765625 299.650390625 838.809570312 316.665039062 838.809570312 333.40234375 c 0
 838.809570312 407.858398438 780.713867188 483.30078125 689.782226562 483.30078125 c 0
 627.668945312 483.30078125 569.1640625 444.7421875 547 383 c 0
 510.751953125 280.560546875 414.2734375 216.619140625 311.38671875 216.619140625 c 0
 159.5234375 216.619140625 61.619140625 341.572265625 61.619140625 466.61328125 c 0
 61.619140625 494.293945312 66.248046875 522.439453125 76 550 c 0
 83.1484375 570.649414062 102.912109375 583.73046875 123.768554688 583.73046875 c 0
EndSplineSet
Substitution2: "'ss01' Add Cartouche Lines-1" linjaTok.cart
Substitution2: "'ss02' Add Container Lines-1" linjaTok.cont
EndChar

StartChar: lipuTok
Encoding: 42 989482 42
Width: 1000
VWidth: 950
Flags: HW
HStem: -50 100<250 750> 750 100<250 750>
VStem: 150 100<50 750> 750 100<50 750>
LayerCount: 2
Fore
SplineSet
250 750 m 1
 250 750 250 50 250 50 c 1
 250 50 750 50 750 50 c 1
 750 50 750 750 750 750 c 1
 250 750 l 1
150 800 m 2
 150 828 172 850 200 850 c 2
 200 850 800 850 800 850 c 2
 828 850 850 828 850 800 c 2
 850 800 850 0 850 0 c 2
 850 -28 828 -50 800 -50 c 2
 800 -50 200 -50 200 -50 c 2
 172 -50 150 -28 150 0 c 2
 150 800 l 2
EndSplineSet
Substitution2: "'ss01' Add Cartouche Lines-1" lipuTok.cart
Substitution2: "'ss02' Add Container Lines-1" lipuTok.cont
EndChar

StartChar: lojeTok
Encoding: 43 989483 43
Width: 1000
VWidth: 950
Flags: HW
HStem: -26 100<240 760> 400 100<426.221 573.779> 750 100<204 796>
LayerCount: 2
Fore
SplineSet
500 500 m 0
 649 500 772 608 796 750 c 1
 796 750 204 750 204 750 c 1
 228 608 351 500 500 500 c 0
568 406 m 1
 546 402 523 400 500 400 c 0
 477 400 454 402 432 406 c 1
 432 406 240 74 240 74 c 1
 240 74 760 74 760 74 c 1
 568 406 l 1
154 -26 m 2
 127.947265625 -26 103.25 -5.27734375 103.25 24 c 0
 103.25 32.75 105.5 41.5 110 49 c 2
 110 49 334 436 334 436 c 1
 196 499 100 638 100 800 c 0
 100 828 122 850 150 850 c 2
 150 850 850 850 850 850 c 2
 878 850 900 828 900 800 c 0
 900 638 804 499 666 436 c 1
 666 436 890 49 890 49 c 2
 894.5 41.5 896.75 32.75 896.75 24 c 0
 896.75 -5.2626953125 872.049804688 -26 846 -26 c 2
 154 -26 l 2
EndSplineSet
Substitution2: "'ss01' Add Cartouche Lines-1" lojeTok.cart
Substitution2: "'ss02' Add Container Lines-1" lojeTok.cont
EndChar

StartChar: lonTok
Encoding: 44 989484 44
Width: 1000
VWidth: 900
Flags: HW
HStem: 150 100<59.2247 940.775> 400 200<438.262 561.738>
VStem: 400 200<438.262 561.738>
LayerCount: 2
Fore
SplineSet
600 500 m 0
 600 444.772460938 555.227539062 400 500 400 c 0
 444.772460938 400 400 444.772460938 400 500 c 0
 400 555.227539062 444.772460938 600 500 600 c 0
 555.227539062 600 600 555.227539062 600 500 c 0
50 200 m 0
 50 227.614257812 72.3857421875 250 100 250 c 2
 900 250 l 2
 927.614257812 250 950 227.614257812 950 200 c 0
 950 172.385742188 927.614257812 150 900 150 c 2
 100 150 l 2
 72.3857421875 150 50 172.385742188 50 200 c 0
EndSplineSet
Substitution2: "'ss01' Add Cartouche Lines-1" lonTok.cart
Substitution2: "'ss02' Add Container Lines-1" lonTok.cont
EndChar

StartChar: lukaTok
Encoding: 45 989485 45
Width: 1000
VWidth: 950
Flags: W
HStem: 700 100<503.504 696.496>
VStem: 250 100<187 545.711> 850 100<-41.5625 545.711>
LayerCount: 2
Fore
SplineSet
49.36328125 347.559570312 m 0
 49.36328125 373.145507812 70.7265625 397.888671875 100.185546875 397.888671875 c 0
 117.22265625 397.888671875 133.666992188 389 143 373 c 2
 143 373 250 187 250 187 c 1
 250 187 250 450 250 450 c 2
 250 643 407 800 600 800 c 0
 793 800 950 643 950 450 c 2
 950 450 950 0 950 0 c 2
 950 -28 928 -50 900 -50 c 0
 872 -50 850 -28 850 0 c 2
 850 0 850 450 850 450 c 2
 850 588 738 700 600 700 c 0
 462 700 350 588 350 450 c 2
 350 450 350 0 350 0 c 2
 350 -26.15234375 330.260742188 -50.7294921875 300.138671875 -50.7294921875 c 0
 282.502929688 -50.7294921875 265.859375 -41.1083984375 257 -25 c 2
 257 -25 56 323 56 323 c 2
 51.486328125 330.73828125 49.36328125 339.204101562 49.36328125 347.559570312 c 0
EndSplineSet
Substitution2: "'ss01' Add Cartouche Lines-1" lukaTok.cart
Substitution2: "'ss02' Add Container Lines-1" lukaTok.cont
EndChar

StartChar: lukinTok
Encoding: 46 989486 46
Width: 1000
VWidth: 950
Flags: HW
HStem: 125 100<370.405 629.595> 300 200<438.358 561.642> 575 100<370.405 629.595>
VStem: 400 200<338.358 461.642>
CounterMasks: 1 e0
LayerCount: 2
Fore
SplineSet
831 400 m 1
 759 506 637 575 500 575 c 0
 363 575 241 506 169 400 c 1
 241 294 363 225 500 225 c 0
 637 225 759 294 831 400 c 1
880 500 m 1
 881 499 l 1
 906 469 929 436 947 400 c 1
 928 364 906 330 880 300 c 0
 788 193 652 125 500 125 c 0
 348 125 212 193 120 300 c 0
 94 330 72 364 53 400 c 1
 72 436 94 470 120 500 c 0
 212 607 348 675 500 675 c 0
 652 675 788 607 880 500 c 1
600 400 m 0
 600 345 555 300 500 300 c 0
 445 300 400 345 400 400 c 0
 400 455 445 500 500 500 c 0
 555 500 600 455 600 400 c 0
EndSplineSet
Substitution2: "'ss01' Add Cartouche Lines-1" lukinTok.cart
Substitution2: "'ss02' Add Container Lines-1" lukinTok.cont
EndChar

StartChar: lupaTok
Encoding: 47 989487 47
Width: 1000
VWidth: 950
Flags: HW
HStem: -50 100<383.579 616.421>
VStem: 50 100<287.381 841.562> 850 100<287.381 841.562>
LayerCount: 2
Fore
SplineSet
500 50 m 0
 693 50 850 207 850 400 c 2
 850 400 850 800 850 800 c 2
 850 828 872 850 900 850 c 0
 928 850 950 828 950 800 c 2
 950 800 950 400 950 400 c 2
 950 151 749 -50 500 -50 c 0
 251 -50 50 151 50 400 c 2
 50 400 50 800 50 800 c 2
 50 828 72 850 100 850 c 0
 128 850 150 828 150 800 c 2
 150 800 150 400 150 400 c 2
 150 207 307 50 500 50 c 0
EndSplineSet
Substitution2: "'ss01' Add Cartouche Lines-1" lupaTok.cart
Substitution2: "'ss02' Add Container Lines-1" lupaTok.cont
EndChar

StartChar: maTok
Encoding: 48 989488 48
Width: 1000
VWidth: 950
Flags: HW
HStem: -50 104<376.64 450 550 623.36> 350 100<154 450 550 846> 746 104<376.64 450 550 623.36>
VStem: 50 104<276.64 350 450 523.36> 450 100<54 350 450 746> 846 104<276.64 350 450 523.36>
CounterMasks: 1 fc
LayerCount: 2
Fore
SplineSet
450 746 m 1
 297 725 175 603 154 450 c 1
 154 450 450 450 450 450 c 1
 450 746 l 1
550 450 m 1
 550 450 846 450 846 450 c 1
 825 603 703 725 550 746 c 1
 550 450 l 1
450 54 m 1
 450 54 450 350 450 350 c 1
 450 350 154 350 154 350 c 1
 175 197 297 75 450 54 c 1
550 54 m 1
 703 75 825 197 846 350 c 1
 846 350 550 350 550 350 c 1
 550 54 l 1
500 -50 m 0
 251 -50 50 151 50 400 c 0
 50 649 251 850 500 850 c 0
 749 850 950 649 950 400 c 0
 950 151 749 -50 500 -50 c 0
EndSplineSet
Substitution2: "'ss01' Add Cartouche Lines-1" maTok.cart
Substitution2: "'ss02' Add Container Lines-1" maTok.cont
EndChar

StartChar: mamaTok
Encoding: 49 989489 49
Width: 1000
VWidth: 950
Flags: HW
HStem: -50 100<439.527 560.473> 150 100<402.587 597.413> 750 100<403.504 596.496>
VStem: 150 100<401.679 596.496> 300 100<89.5269 163.855> 600 100<89.5269 163.855> 750 100<401.679 596.496>
LayerCount: 2
Fore
SplineSet
599 164 m 1
 568 155 534 150 500 150 c 0
 466 150 432 155 401 164 c 1
 400 160 400 155 400 150 c 0
 400 95 445 50 500 50 c 0
 555 50 600 95 600 150 c 0
 600 155 600 160 599 164 c 1
250 500 m 0
 250 362 362 250 500 250 c 0
 638 250 750 362 750 500 c 0
 750 638 638 750 500 750 c 0
 362 750 250 638 250 500 c 0
500 850 m 0
 693 850 850 693 850 500 c 0
 850 377 787 270 692 207 c 1
 697 189 700 170 700 150 c 0
 700 40 610 -50 500 -50 c 0
 390 -50 300 40 300 150 c 0
 300 170 303 189 308 207 c 1
 213 270 150 377 150 500 c 0
 150 693 307 850 500 850 c 0
EndSplineSet
Substitution2: "'ss01' Add Cartouche Lines-1" mamaTok.cart
Substitution2: "'ss02' Add Container Lines-1" mamaTok.cont
EndChar

StartChar: maniTok
Encoding: 50 989490 50
Width: 1000
VWidth: 950
Flags: HW
HStem: -50 100<390.166 609.834> 650 100<388.966 611.034>
VStem: 50.3535 97.6465<759.719 841.255> 100 100<240.166 461.242> 800 100<240.166 461.242> 852 97.6465<759.719 841.255>
LayerCount: 2
Fore
SplineSet
800 350 m 0
 800 516 666 650 500 650 c 0
 334 650 200 516 200 350 c 0
 200 184 334 50 500 50 c 0
 666 50 800 184 800 350 c 0
50.353515625 799.826171875 m 0
 50.353515625 825.34765625 69.873046875 849.646484375 99.826171875 849.646484375 c 0
 122.096679688 849.646484375 142.115234375 834.856445312 148 813 c 0
 158 775 172 751 191 733 c 0
 210 714 237 699 281 686 c 1
 282 686 l 1
 345 726 420 750 500 750 c 0
 580 750 655 726 718 686 c 1
 718 686 719 686 719 686 c 1
 763 699 790 714 809 733 c 0
 828 751 842 775 852 813 c 0
 857.884765625 834.856445312 877.903320312 849.646484375 900.173828125 849.646484375 c 0
 930.124023438 849.646484375 949.646484375 825.342773438 949.646484375 799.826171875 c 0
 949.646484375 795.604492188 949.115234375 791.302734375 948 787 c 0
 935 737 914 695 879 661 c 0
 858 640 832 624 803 611 c 1
 864 541 900 450 900 350 c 0
 900 129 721 -50 500 -50 c 0
 279 -50 100 129 100 350 c 0
 100 450 136 541 197 611 c 1
 168 624 142 640 121 661 c 0
 86 695 65 737 52 787 c 0
 50.884765625 791.302734375 50.353515625 795.604492188 50.353515625 799.826171875 c 0
EndSplineSet
Substitution2: "'ss01' Add Cartouche Lines-1" maniTok.cart
Substitution2: "'ss02' Add Container Lines-1" maniTok.cont
EndChar

StartChar: meliTok
Encoding: 51 989491 51
Width: 1000
VWidth: 950
Flags: HW
HStem: 100 100<409.912 590.088> 600 100<409.912 590.088> 750 100<383.579 616.421>
VStem: 50 100<-41.5625 512.619> 200 100<309.912 490.088> 700 100<309.912 490.088> 850 100<-41.5625 512.619>
LayerCount: 2
Fore
SplineSet
200 400 m 0
 200 566 334 700 500 700 c 0
 666 700 800 566 800 400 c 0
 800 234 666 100 500 100 c 0
 334 100 200 234 200 400 c 0
500 600 m 0
 390 600 300 510 300 400 c 0
 300 290 390 200 500 200 c 0
 610 200 700 290 700 400 c 0
 700 510 610 600 500 600 c 0
500 750 m 0
 307 750 150 593 150 400 c 2
 150 400 150 0 150 0 c 2
 150 -28 128 -50 100 -50 c 0
 72 -50 50 -28 50 0 c 2
 50 0 50 400 50 400 c 2
 50 649 251 850 500 850 c 0
 749 850 950 649 950 400 c 2
 950 400 950 0 950 0 c 2
 950 -28 928 -50 900 -50 c 0
 872 -50 850 -28 850 0 c 2
 850 0 850 400 850 400 c 2
 850 593 693 750 500 750 c 0
EndSplineSet
Substitution2: "'ss01' Add Cartouche Lines-1" meliTok.cart
Substitution2: "'ss02' Add Container Lines-1" meliTok.cont
EndChar

StartChar: miTok
Encoding: 52 989492 52
Width: 1000
VWidth: 950
Flags: HW
HStem: 250 100<409.722 590.088> 750 100<409.912 590.088>
VStem: 200 100<-41.5625 326 459.151 639.328> 700 100<459.912 640.088>
LayerCount: 2
Fore
SplineSet
300 550 m 0
 300 440 390 350 500 350 c 0
 610 350 700 440 700 550 c 0
 700 660 610 750 500 750 c 0
 390 750 300 660 300 550 c 0
300 326 m 1
 300 326 300 0 300 0 c 2
 300 -28 278 -50 250 -50 c 0
 222 -50 200 -28 200 0 c 2
 200 0 200 550 200 550 c 2
 200 716 334 850 500 850 c 0
 666 850 800 716 800 550 c 0
 800 384 666 250 500 250 c 0
 423 250 353 279 300 326 c 1
EndSplineSet
Substitution2: "'ss01' Add Cartouche Lines-1" miTok.cart
Substitution2: "'ss02' Add Container Lines-1" miTok.cont
EndChar

StartChar: mijeTok
Encoding: 53 989493 53
Width: 1000
VWidth: 950
Flags: HW
HStem: -50 250<58.4375 141.562 858.438 941.562> 50 100<389.634 610.366> 100 100<150 188 812 850> 750 100<390.166 609.834>
VStem: 50 100<-41.5625 100> 100 100<339.393 559.834> 800 100<339.393 559.834> 850 100<-41.5625 100>
LayerCount: 2
Fore
SplineSet
500 750 m 0
 334 750 200 616 200 450 c 0
 200 284 334 150 500 150 c 0
 666 150 800 284 800 450 c 0
 800 616 666 750 500 750 c 0
100 450 m 0
 100 671 279 850 500 850 c 0
 721 850 900 671 900 450 c 0
 900 355 867 268 812 200 c 1
 812 200 900 200 900 200 c 2
 928 200 950 178 950 150 c 2
 950 150 950 0 950 0 c 2
 950 -28 928 -50 900 -50 c 0
 872 -50 850 -28 850 0 c 2
 850 0 850 100 850 100 c 1
 850 100 694 100 694 100 c 1
 636 68 570 50 500 50 c 0
 430 50 364 68 306 100 c 1
 306 100 150 100 150 100 c 1
 150 100 150 0 150 0 c 2
 150 -28 128 -50 100 -50 c 0
 72 -50 50 -28 50 0 c 2
 50 0 50 150 50 150 c 2
 50 178 72 200 100 200 c 2
 100 200 188 200 188 200 c 1
 133 268 100 355 100 450 c 0
EndSplineSet
Substitution2: "'ss01' Add Cartouche Lines-1" mijeTok.cart
Substitution2: "'ss02' Add Container Lines-1" mijeTok.cont
EndChar

StartChar: mokuTok
Encoding: 54 989494 54
Width: 1000
VWidth: 950
Flags: HW
HStem: 300 150<392.849 607.151> 750 100<154 846>
VStem: 750 100<-41.5625 170.187>
LayerCount: 2
Fore
SplineSet
500 450 m 0
 676 450 822 580 846 750 c 1
 846 750 154 750 154 750 c 1
 178 580 324 450 500 450 c 0
50.26953125 300.22265625 m 0
 50.26953125 325.818359375 70.0068359375 349.73046875 100.22265625 349.73046875 c 0
 121.045898438 349.73046875 140.646484375 336.649414062 147 316 c 2
 147 316 180 217 180 217 c 1
 216 287 279 342 357 373 c 1
 179 433 50 601 50 800 c 0
 50 828 72 850 100 850 c 2
 100 850 900 850 900 850 c 2
 928 850 950 828 950 800 c 0
 950 601 821 433 643 373 c 1
 764 325 850 217 850 90 c 2
 850 90 850 0 850 0 c 2
 850 -28 828 -50 800 -50 c 0
 772 -50 750 -28 750 0 c 2
 750 0 750 90 750 90 c 2
 750 197 648 300 500 300 c 0
 352 300 250 197 250 90 c 2
 250 90 250 0 250 0 c 2
 250 -26.8359375 229.106445312 -49.6796875 199.790039062 -49.6796875 c 0
 178.732421875 -49.6796875 159.19921875 -36.369140625 153 -16 c 2
 153 -16 53 284 53 284 c 2
 51.1484375 289.350585938 50.26953125 294.827148438 50.26953125 300.22265625 c 0
EndSplineSet
Substitution2: "'ss01' Add Cartouche Lines-1" mokuTok.cart
Substitution2: "'ss02' Add Container Lines-1" mokuTok.cont
EndChar

StartChar: moliTok
Encoding: 55 989495 55
Width: 1000
VWidth: 950
Flags: HW
HStem: -50 100<383.579 616.421> 275 250<248.592 316.875 383.125 451.408 548.592 616.875 683.125 751.408> 750 100<383.579 616.421>
VStem: 50 100<283.579 516.421> 850 100<283.579 516.421>
CounterMasks: 1 e0
LayerCount: 2
Fore
SplineSet
850 400 m 0
 850 593 693 750 500 750 c 0
 307 750 150 593 150 400 c 0
 150 207 307 50 500 50 c 0
 693 50 850 207 850 400 c 0
950 400 m 0
 950 151 749 -50 500 -50 c 0
 251 -50 50 151 50 400 c 0
 50 649 251 850 500 850 c 0
 749 850 950 649 950 400 c 0
525 475 m 0
 525 501.408203125 548.58203125 525 575 525 c 0
 587.75 525 600.5 520 610 510 c 2
 610 510 650 471 650 471 c 1
 650 471 690 510 690 510 c 2
 699.5 520 712.25 525 725 525 c 0
 751.408203125 525 775 501.41796875 775 475 c 0
 775 462.25 770 449.5 760 440 c 2
 760 440 721 400 721 400 c 1
 721 400 760 360 760 360 c 2
 770 350.5 775 337.75 775 325 c 0
 775 298.591796875 751.41796875 275 725 275 c 0
 712.25 275 699.5 280 690 290 c 2
 690 290 650 329 650 329 c 1
 650 329 610 290 610 290 c 2
 600.5 280 587.75 275 575 275 c 0
 548.591796875 275 525 298.58203125 525 325 c 0
 525 337.75 530 350.5 540 360 c 2
 540 360 579 400 579 400 c 1
 579 400 540 440 540 440 c 2
 530 449.5 525 462.25 525 475 c 0
225 475 m 0
 225 501.408203125 248.58203125 525 275 525 c 0
 287.75 525 300.5 520 310 510 c 2
 310 510 350 471 350 471 c 1
 350 471 390 510 390 510 c 2
 399.5 520 412.25 525 425 525 c 0
 451.408203125 525 475 501.41796875 475 475 c 0
 475 462.25 470 449.5 460 440 c 2
 460 440 421 400 421 400 c 1
 421 400 460 360 460 360 c 2
 470 350.5 475 337.75 475 325 c 0
 475 298.591796875 451.41796875 275 425 275 c 0
 412.25 275 399.5 280 390 290 c 2
 390 290 350 329 350 329 c 1
 350 329 310 290 310 290 c 2
 300.5 280 287.75 275 275 275 c 0
 248.591796875 275 225 298.58203125 225 325 c 0
 225 337.75 230 350.5 240 360 c 2
 240 360 279 400 279 400 c 1
 279 400 240 440 240 440 c 2
 230 449.5 225 462.25 225 475 c 0
EndSplineSet
Substitution2: "'ss01' Add Cartouche Lines-1" moliTok.cart
Substitution2: "'ss02' Add Container Lines-1" moliTok.cont
EndChar

StartChar: monsiTok
Encoding: 56 989496 56
Width: 1000
VWidth: 950
Flags: HW
HStem: -50 100<350 941.562> 325 150<73.4173 176.583> 750 100<350 941.562>
VStem: 50 150<348.417 451.583> 250 100<50 750>
CounterMasks: 1 e0
LayerCount: 2
Fore
SplineSet
125 325 m 0
 84 325 50 359 50 400 c 0
 50 441 84 475 125 475 c 0
 166 475 200 441 200 400 c 0
 200 359 166 325 125 325 c 0
950 800 m 0
 950 772 928 750 900 750 c 2
 900 750 350 750 350 750 c 1
 350 750 350 50 350 50 c 1
 350 50 900 50 900 50 c 2
 928 50 950 28 950 0 c 0
 950 -28 928 -50 900 -50 c 2
 900 -50 300 -50 300 -50 c 2
 272 -50 250 -28 250 0 c 2
 250 0 250 800 250 800 c 2
 250 828 272 850 300 850 c 2
 300 850 900 850 900 850 c 2
 928 850 950 828 950 800 c 0
EndSplineSet
Substitution2: "'ss01' Add Cartouche Lines-1" monsiTok.cart
Substitution2: "'ss02' Add Container Lines-1" monsiTok.cont
EndChar

StartChar: muTok
Encoding: 57 989497 57
Width: 1000
VWidth: 950
Flags: HW
HStem: -50 100<390.166 609.834> 125 150<448.417 551.583> 450 100<214.821 310.202 689.798 785.179> 650 100<450.141 549.859> 750 100<189.527 311.767 688.233 810.473>
VStem: 50 100<589.057 710.473> 100 100<240.166 451.826> 350 100<592.077 648.873> 425 150<148.417 251.583> 550 100<592.077 648.873> 800 100<240.166 451.826> 850 100<589.057 710.473>
LayerCount: 2
Fore
SplineSet
750 550 m 0
 805 550 850 595 850 650 c 0
 850 705 805 750 750 750 c 0
 695 750 650 705 650 650 c 0
 650 595 695 550 750 550 c 0
450 646 m 1
 448 537 359 450 250 450 c 0
 239 450 228 451 218 453 c 1
 206 421 200 386 200 350 c 0
 200 184 334 50 500 50 c 0
 666 50 800 184 800 350 c 0
 800 386 794 421 782 453 c 1
 772 451 761 450 750 450 c 0
 641 450 552 537 550 646 c 1
 534 649 517 650 500 650 c 0
 483 650 466 649 450 646 c 1
350 650 m 0
 350 705 305 750 250 750 c 0
 195 750 150 705 150 650 c 0
 150 595 195 550 250 550 c 0
 305 550 350 595 350 650 c 0
900 350 m 0
 900 129 721 -50 500 -50 c 0
 279 -50 100 129 100 350 c 0
 100 400 109 448 126 493 c 1
 80 529 50 586 50 650 c 0
 50 760 140 850 250 850 c 0
 327 850 393 807 427 743 c 1
 451 748 475 750 500 750 c 0
 525 750 549 748 573 743 c 1
 607 807 673 850 750 850 c 0
 860 850 950 760 950 650 c 0
 950 586 920 529 874 493 c 1
 891 448 900 400 900 350 c 0
500 125 m 0
 459 125 425 159 425 200 c 0
 425 241 459 275 500 275 c 0
 541 275 575 241 575 200 c 0
 575 159 541 125 500 125 c 0
EndSplineSet
Substitution2: "'ss01' Add Cartouche Lines-1" muTok.cart
Substitution2: "'ss02' Add Container Lines-1" muTok.cont
EndChar

StartChar: munTok
Encoding: 58 989498 58
Width: 1000
VWidth: 950
Flags: HW
HStem: -50 100<332.678 568.254> 750 100<332.678 568.254>
VStem: 252 100<297.995 502.005> 802 100<283.579 516.421>
LayerCount: 2
Fore
SplineSet
111 694 m 0
 194 790 316 850 452 850 c 0
 700 850 902 649 902 400 c 0
 902 151 700 -50 452 -50 c 0
 316 -50 194 10 111 106 c 0
 103.176757812 114.60546875 99.025390625 125.659179688 99.025390625 137.24609375 c 0
 99.025390625 158.2734375 108.461914062 173.731445312 125 182 c 0
 201 225 252 307 252 400 c 0
 252 493 201 575 124 618 c 0
 108.557617188 626.315429688 99.025390625 641.907226562 99.025390625 662.75390625 c 0
 99.025390625 674.340820312 103.176757812 685.39453125 111 694 c 0
227 668 m 1
 303 604 352 508 352 400 c 0
 352 292 303 196 227 132 c 1
 288 81 366 50 452 50 c 0
 645 50 802 207 802 400 c 0
 802 593 645 750 452 750 c 0
 366 750 288 719 227 668 c 1
EndSplineSet
Substitution2: "'ss01' Add Cartouche Lines-1" munTok.cart
Substitution2: "'ss02' Add Container Lines-1" munTok.cont
EndChar

StartChar: musiTok
Encoding: 59 989499 59
Width: 1000
VWidth: 950
Flags: HW
HStem: -50 100<390.166 609.834> 450 100<214.821 310.473 689.527 785.179> 750 100<189.527 310.473 689.527 810.473>
VStem: 50 100<589.057 710.473> 100 100<240.166 451.826> 350 100<589.527 710.473> 550 100<589.527 710.473> 800 100<240.166 451.826> 850 100<589.057 710.473>
LayerCount: 2
Fore
SplineSet
850 650 m 0
 850 705 805 750 750 750 c 0
 695 750 650 705 650 650 c 0
 650 595 695 550 750 550 c 0
 805 550 850 595 850 650 c 0
250 550 m 0
 305 550 350 595 350 650 c 0
 350 705 305 750 250 750 c 0
 195 750 150 705 150 650 c 0
 150 595 195 550 250 550 c 0
250 450 m 0
 239 450 228 451 218 453 c 1
 206 421 200 386 200 350 c 0
 200 184 334 50 500 50 c 0
 666 50 800 184 800 350 c 0
 800 386 794 421 782 453 c 1
 772 451 761 450 750 450 c 0
 640 450 550 540 550 650 c 0
 550 760 640 850 750 850 c 0
 860 850 950 760 950 650 c 0
 950 586 920 529 874 493 c 1
 891 448 900 400 900 350 c 0
 900 129 721 -50 500 -50 c 0
 279 -50 100 129 100 350 c 0
 100 400 109 448 126 493 c 1
 80 529 50 586 50 650 c 0
 50 760 140 850 250 850 c 0
 360 850 450 760 450 650 c 0
 450 540 360 450 250 450 c 0
EndSplineSet
Substitution2: "'ss01' Add Cartouche Lines-1" musiTok.cart
Substitution2: "'ss02' Add Container Lines-1" musiTok.cont
EndChar

StartChar: muteTok
Encoding: 60 989500 60
Width: 1000
VWidth: 950
Flags: HW
VStem: 200 100<-16.5625 816.562> 450 100<-41.5625 841.562> 700 100<-16.5625 816.562>
CounterMasks: 1 e0
LayerCount: 2
Fore
SplineSet
250 -25 m 0
 222 -25 200 -3 200 25 c 2
 200 25 200 775 200 775 c 2
 200 803 222 825 250 825 c 0
 278 825 300 803 300 775 c 2
 300 775 300 25 300 25 c 2
 300 -3 278 -25 250 -25 c 0
500 -50 m 0
 472 -50 450 -28 450 0 c 2
 450 0 450 800 450 800 c 2
 450 828 472 850 500 850 c 0
 528 850 550 828 550 800 c 2
 550 800 550 0 550 0 c 2
 550 -28 528 -50 500 -50 c 0
750 -25 m 0
 722 -25 700 -3 700 25 c 2
 700 25 700 775 700 775 c 2
 700 803 722 825 750 825 c 0
 778 825 800 803 800 775 c 2
 800 775 800 25 800 25 c 2
 800 -3 778 -25 750 -25 c 0
EndSplineSet
Substitution2: "'ss01' Add Cartouche Lines-1" muteTok.cart
Substitution2: "'ss02' Add Container Lines-1" muteTok.cont
EndChar

StartChar: nanpaTok
Encoding: 61 989501 61
Width: 1000
VWidth: 950
Flags: HW
HStem: 200 100<58.4375 300 400 600 700 931.562> 500 100<68.4375 300 400 600 700 941.562>
VStem: 300 100<-41.5625 200 300 500 600 841.562> 600 100<-41.5625 200 300 500 600 831.562>
LayerCount: 2
Fore
SplineSet
600 500 m 1
 600 500 400 500 400 500 c 1
 400 500 400 300 400 300 c 1
 400 300 600 300 600 300 c 1
 600 500 l 1
940 250 m 0
 940 222 918 200 890 200 c 2
 890 200 700 200 700 200 c 1
 700 200 700 0 700 0 c 2
 700 -28 678 -50 650 -50 c 0
 622 -50 600 -28 600 0 c 2
 600 0 600 200 600 200 c 1
 600 200 400 200 400 200 c 1
 400 200 400 0 400 0 c 2
 400 -28 378 -50 350 -50 c 0
 322 -50 300 -28 300 0 c 2
 300 0 300 200 300 200 c 1
 300 200 100 200 100 200 c 2
 72 200 50 222 50 250 c 0
 50 278 72 300 100 300 c 2
 100 300 300 300 300 300 c 1
 300 300 300 500 300 500 c 1
 300 500 110 500 110 500 c 2
 82 500 60 522 60 550 c 0
 60 578 82 600 110 600 c 2
 110 600 300 600 300 600 c 1
 300 600 300 800 300 800 c 2
 300 828 322 850 350 850 c 0
 378 850 400 828 400 800 c 2
 400 800 400 600 400 600 c 1
 400 600 600 600 600 600 c 1
 600 600 600 790 600 790 c 2
 600 818 622 840 650 840 c 0
 678 840 700 818 700 790 c 2
 700 790 700 600 700 600 c 1
 700 600 900 600 900 600 c 2
 928 600 950 578 950 550 c 0
 950 522 928 500 900 500 c 2
 900 500 700 500 700 500 c 1
 700 500 700 300 700 300 c 1
 700 300 890 300 890 300 c 2
 918 300 940 278 940 250 c 0
EndSplineSet
Substitution2: "'ss01' Add Cartouche Lines-1" nanpaTok.cart
Substitution2: "'ss02' Add Container Lines-1" nanpaTok.cont
EndChar

StartChar: nasaTok
Encoding: 62 989502 62
Width: 1000
VWidth: 950
Flags: HW
HStem: -24 100<379.037 576.302> 174 100.982<423.974 539.18> 354 99.5322<486.423 549.391> 531 83.9424<459.362 634.352> 729 100<417.498 677.886>
VStem: 95 100<279.278 507.598> 293 100<310 469.64> 553 100<290.777 350.464> 749 100<246.501 419.525>
LayerCount: 2
Fore
SplineSet
476.254882812 274.982421875 m 0
 521.100585938 274.982421875 553 296.811523438 553 330 c 0
 553 345.65234375 537.762695312 351.319335938 519 354 c 0
 494.91796875 357.567382812 477.19921875 378.637695312 477.19921875 402.30859375 c 0
 477.19921875 432.396484375 500.317382812 453.532226562 527.560546875 453.532226562 c 0
 626.231445312 453.532226562 653 404.268554688 653 337 c 0
 653 255 572 174 473 174 c 0
 361.537109375 174 293 288 293 396 c 0
 293 539.573242188 418.663085938 614.942382812 550.505859375 614.942382812 c 0
 695.990234375 614.942382812 849 523.170898438 849 330 c 0
 849 126 682.305664062 -24 484 -24 c 0
 271 -24 95 154.719726562 95 371 c 0
 95 618 282.217773438 829 528 829 c 0
 708 829 933.243164062 724 933.243164062 627.84375 c 0
 933.243164062 601.716796875 911.275390625 577.756835938 883.682617188 577.756835938 c 0
 847.34375 577.756835938 847.241210938 598.607421875 815 630 c 0
 777 667 710 729 533 729 c 0
 347.932617188 729 195 578 195 397 c 0
 195 229.495117188 315 76 482 76 c 0
 626.006835938 76 749 223 749 331 c 0
 749 443.008789062 655.62890625 531 544 531 c 0
 451 531 393 474 393 394 c 0
 393 315.94140625 428.147460938 274.982421875 476.254882812 274.982421875 c 0
EndSplineSet
Substitution2: "'ss01' Add Cartouche Lines-1" nasaTok.cart
Substitution2: "'ss02' Add Container Lines-1" nasaTok.cont
EndChar

StartChar: nasinTok
Encoding: 63 989503 63
Width: 1000
VWidth: 950
Flags: HW
VStem: 450 100<-41.5625 429 571 841.562>
LayerCount: 2
Fore
SplineSet
250 250 m 0
 223.591796875 250 200 273.58203125 200 300 c 0
 200 312.75 205 325.5 215 335 c 2
 215 335 450 571 450 571 c 1
 450 571 450 800 450 800 c 2
 450 828 472 850 500 850 c 0
 528 850 550 828 550 800 c 2
 550 800 550 571 550 571 c 1
 550 571 785 335 785 335 c 2
 795 325.5 800 312.75 800 300 c 0
 800 273.591796875 776.41796875 250 750 250 c 0
 737.25 250 724.5 255 715 265 c 2
 715 265 550 429 550 429 c 1
 550 429 550 0 550 0 c 2
 550 -28 528 -50 500 -50 c 0
 472 -50 450 -28 450 0 c 2
 450 0 450 429 450 429 c 1
 450 429 285 265 285 265 c 2
 275.5 255 262.75 250 250 250 c 0
EndSplineSet
Substitution2: "'ss01' Add Cartouche Lines-1" nasinTok.cart
Substitution2: "'ss02' Add Container Lines-1" nasinTok.cont
EndChar

StartChar: nenaTok
Encoding: 64 989504 64
Width: 1000
VWidth: 950
Flags: HW
HStem: 750 100<383.579 616.421>
VStem: 50 100<-41.5625 512.619> 850 100<-41.5625 512.619>
LayerCount: 2
Fore
SplineSet
500 750 m 0
 307 750 150 593 150 400 c 2
 150 400 150 0 150 0 c 2
 150 -28 128 -50 100 -50 c 0
 72 -50 50 -28 50 0 c 2
 50 0 50 400 50 400 c 2
 50 649 251 850 500 850 c 0
 749 850 950 649 950 400 c 2
 950 400 950 0 950 0 c 2
 950 -28 928 -50 900 -50 c 0
 872 -50 850 -28 850 0 c 2
 850 0 850 400 850 400 c 2
 850 593 693 750 500 750 c 0
EndSplineSet
Substitution2: "'ss01' Add Cartouche Lines-1" nenaTok.cart
Substitution2: "'ss02' Add Container Lines-1" nenaTok.cont
EndChar

StartChar: niTok
Encoding: 65 989505 65
Width: 1000
VWidth: 950
Flags: W
VStem: 450 100<121 841.562>
LayerCount: 2
Fore
SplineSet
200 250 m 0
 200 276.408203125 223.58203125 300 250 300 c 0
 262.75 300 275.5 295 285 285 c 2
 285 285 450 121 450 121 c 1
 450 121 450 800 450 800 c 2
 450 828 472 850 500 850 c 0
 528 850 550 828 550 800 c 2
 550 800 550 121 550 121 c 1
 550 121 715 285 715 285 c 2
 724.5 295 737.25 300 750 300 c 0
 776.408203125 300 800 276.41796875 800 250 c 0
 800 237.25 795 224.5 785 215 c 2
 785 215 535 -35 535 -35 c 1
 527.833984375 -43.9580078125 514.641601562 -50 500 -50 c 0
 485.354492188 -50 472.165039062 -43.9560546875 465 -35 c 1
 465 -35 215 215 215 215 c 2
 205 224.5 200 237.25 200 250 c 0
EndSplineSet
Substitution2: "'ss01' Add Cartouche Lines-1" niTok.cart
Substitution2: "'ss02' Add Container Lines-1" niTok.cont
EndChar

StartChar: nimiTok
Encoding: 66 989506 66
Width: 1000
VWidth: 950
Flags: HW
HStem: 150 100<198.081 801.919> 550 100<198.081 801.919>
VStem: 50 100<298.081 501.919> 850 100<298.081 501.919>
LayerCount: 2
Fore
SplineSet
150 361 m 2
 150 300 200 250 261 250 c 2
 261 250 739 250 739 250 c 2
 800 250 850 300 850 361 c 2
 850 361 850 439 850 439 c 2
 850 500 800 550 739 550 c 2
 739 550 261 550 261 550 c 2
 200 550 150 500 150 439 c 2
 150 361 l 2
261 150 m 2
 144 150 50 244 50 361 c 2
 50 361 50 439 50 439 c 2
 50 556 144 650 261 650 c 2
 261 650 739 650 739 650 c 2
 856 650 950 556 950 439 c 2
 950 439 950 361 950 361 c 2
 950 244 856 150 739 150 c 2
 261 150 l 2
EndSplineSet
Substitution2: "'ss01' Add Cartouche Lines-1" nimiTok.cart
Substitution2: "'ss02' Add Container Lines-1" nimiTok.cont
EndChar

StartChar: nokaTok
Encoding: 67 989507 67
Width: 1000
VWidth: 950
Flags: HW
HStem: -50 100<200 759.304> 250 100<500 759.304>
VStem: 100 100<50 841.562> 400 100<350 841.562> 800 100<89.5269 210.473>
LayerCount: 2
Fore
SplineSet
150 850 m 0
 178 850 200 828 200 800 c 2
 200 800 200 50 200 50 c 1
 200 50 700 50 700 50 c 2
 755 50 800 95 800 150 c 0
 800 205 755 250 700 250 c 2
 700 250 450 250 450 250 c 2
 422 250 400 272 400 300 c 2
 400 300 400 800 400 800 c 2
 400 828 422 850 450 850 c 0
 478 850 500 828 500 800 c 2
 500 800 500 350 500 350 c 1
 500 350 700 350 700 350 c 2
 810 350 900 260 900 150 c 0
 900 40 810 -50 700 -50 c 2
 700 -50 150 -50 150 -50 c 2
 122 -50 100 -28 100 0 c 2
 100 0 100 800 100 800 c 2
 100 828 122 850 150 850 c 0
EndSplineSet
Substitution2: "'ss01' Add Cartouche Lines-1" nokaTok.cart
Substitution2: "'ss02' Add Container Lines-1" nokaTok.cont
EndChar

StartChar: oTok
Encoding: 68 989508 68
Width: 1000
VWidth: 950
Flags: HW
HStem: -50 100<439.527 560.473> 250 100<439.527 560.473>
VStem: 300 100<89.5269 210.473> 450 100<408.438 841.562> 600 100<89.5269 210.473>
CounterMasks: 1 38
LayerCount: 2
Fore
SplineSet
500 850 m 0
 528 850 550 828 550 800 c 2
 550 800 550 450 550 450 c 2
 550 422 528 400 500 400 c 0
 472 400 450 422 450 450 c 2
 450 450 450 800 450 800 c 2
 450 828 472 850 500 850 c 0
500 50 m 0
 555 50 600 95 600 150 c 0
 600 205 555 250 500 250 c 0
 445 250 400 205 400 150 c 0
 400 95 445 50 500 50 c 0
500 -50 m 0
 390 -50 300 40 300 150 c 0
 300 260 390 350 500 350 c 0
 610 350 700 260 700 150 c 0
 700 40 610 -50 500 -50 c 0
EndSplineSet
Substitution2: "'ss01' Add Cartouche Lines-1" oTok.cart
Substitution2: "'ss02' Add Container Lines-1" oTok.cont
EndChar

StartChar: olinTok
Encoding: 69 989509 69
Width: 1000
VWidth: 950
Flags: W
HStem: -50.25 109.148<471.968 529.311> 550 100<216.126 381.117 618.884 783.874> 767 83<257.607 407.629 592.367 742.393>
VStem: 50 100<364.25 490.038> 125 83<637.277 720.113> 451 98<429.671 491.597> 459 82<664.092 723.613> 792 83<637.277 720.113> 850 100<364.25 490.038>
LayerCount: 2
Fore
SplineSet
300 550 m 0xf480
 210 550 150 489 150 429 c 0
 150 403 166 366 202 320 c 0
 266.283203125 239.1875 384.801757812 141.760742188 467 84 c 0
 479 74 491 66 500 60 c 0
 501.137695312 59.2412109375 502.32421875 58.8984375 503.551757812 58.8984375 c 0
 512.03515625 58.8984375 522.517578125 75.2646484375 533 84 c 0
 615.073242188 141.672851562 733.813476562 239.307617188 798 320 c 0
 834 366 850 403 850 429 c 0
 850 489 790 550 700 550 c 0
 639.584960938 550 588.5234375 515.654296875 560 480 c 0
 552 469 549 462 549 460 c 0
 548 458 548 456 547 454 c 0
 540.698242188 437.614257812 522.677734375 421 500 421 c 0
 477.3203125 421 459.297851562 437.625976562 453 454 c 0
 452 456 452 458 451 460 c 0
 451 462 448 469 440 480 c 0
 411.512695312 515.608398438 360.384765625 550 300 550 c 0xf480
500 660 m 0
 474.712890625 660 467.267578125 675.465820312 459 692 c 0
 459 694 457 699 450 708 c 0
 429.29296875 739.060546875 380.979492188 767 333 767 c 0
 258 767 208 716 208 666 c 0
 208 657 210 648 215 637 c 1
 242 645 271 650 300 650 c 0
 368 650 426 623 468 591 c 0
 480 582 491 573 500 563 c 0
 501.294921875 561.561523438 502.630859375 560.9296875 504.005859375 560.9296875 c 0
 512.185546875 560.9296875 521.7265625 583.294921875 532 591 c 0
 574 623 632 650 700 650 c 0
 729 650 758 645 785 637 c 1
 790 648 792 657 792 666 c 0
 792 716 742 767 667 767 c 0
 618.982421875 767 570.725585938 739.088867188 550 708 c 0
 543 699 541 694 541 692 c 0xeb
 532.725585938 675.450195312 525.3046875 660 500 660 c 0
500 778 m 1
 537.81640625 815.81640625 594.305664062 850 667 850 c 0
 775 850 875 773 875 666 c 0xe9
 875 643 869 620 860 599 c 1
 914 559 950 500 950 429 c 0
 950 368 916 309 877 259 c 0
 805.509765625 166.0625 682.001953125 65.9482421875 592 2 c 0
 570 -13 549 -28 527 -42 c 0
 519 -47.5 509.5 -50.25 500 -50.25 c 0
 490.5 -50.25 481 -47.5 473 -42 c 0
 397.252929688 6.2021484375 346.5703125 44.6708984375 267 112 c 0
 216 156 163 207 123 259 c 0
 84 309 50 368 50 429 c 0xf080
 50 500 86 559 140 599 c 1
 131 620 125 643 125 666 c 0
 125 773 225 850 333 850 c 0
 405.6796875 850 462.197265625 815.802734375 500 778 c 1
EndSplineSet
Substitution2: "'ss01' Add Cartouche Lines-1" olinTok.cart
Substitution2: "'ss02' Add Container Lines-1" olinTok.cont
EndChar

StartChar: onaTok
Encoding: 70 989510 70
Width: 1000
VWidth: 950
Flags: HW
HStem: 100 100<58.4375 426 559.151 739.328> 600 100<559.912 740.088>
VStem: 350 100<309.722 490.088> 850 100<309.912 490.088>
LayerCount: 2
Fore
SplineSet
650 200 m 0
 760 200 850 290 850 400 c 0
 850 510 760 600 650 600 c 0
 540 600 450 510 450 400 c 0
 450 290 540 200 650 200 c 0
650 100 m 2
 650 100 100 100 100 100 c 2
 72 100 50 122 50 150 c 0
 50 178 72 200 100 200 c 2
 100 200 426 200 426 200 c 1
 379 253 350 323 350 400 c 0
 350 566 484 700 650 700 c 0
 816 700 950 566 950 400 c 0
 950 234 816 100 650 100 c 2
EndSplineSet
Substitution2: "'ss01' Add Cartouche Lines-1" onaTok.cart
Substitution2: "'ss02' Add Container Lines-1" onaTok.cont
EndChar

StartChar: openTok
Encoding: 71 989511 71
Width: 1000
VWidth: 950
Flags: HW
HStem: -50 100<150 850> 150 100<150 850>
VStem: 50 100<50 150 250 841.562> 850 100<50 150 250 841.562>
LayerCount: 2
Fore
SplineSet
150 150 m 1
 150 150 150 50 150 50 c 1
 150 50 850 50 850 50 c 1
 850 50 850 150 850 150 c 1
 150 150 l 1
150 800 m 2
 150 800 150 250 150 250 c 1
 150 250 850 250 850 250 c 1
 850 250 850 800 850 800 c 2
 850 828 872 850 900 850 c 0
 928 850 950 828 950 800 c 2
 950 800 950 0 950 0 c 2
 950 -28 928 -50 900 -50 c 2
 900 -50 100 -50 100 -50 c 2
 72 -50 50 -28 50 0 c 2
 50 0 50 800 50 800 c 2
 50 828 72 850 100 850 c 0
 128 850 150 828 150 800 c 2
EndSplineSet
Substitution2: "'ss01' Add Cartouche Lines-1" openTok.cart
Substitution2: "'ss02' Add Container Lines-1" openTok.cont
EndChar

StartChar: pakalaTok
Encoding: 72 989512 72
Width: 1000
VWidth: 950
Flags: HW
HStem: -50 100<250 343 462 750> 350 100<462 538> 750 100<250 538 657 750>
VStem: 150 100<50 750> 750 100<50 750>
CounterMasks: 1 e0
LayerCount: 2
Fore
SplineSet
630 450 m 2
 655.252929688 450 680.168945312 429.479492188 680.168945312 400.224609375 c 0
 680.168945312 390.63671875 677.393554688 381.090820312 672 373 c 2
 462 50 l 1
 462 50 750 50 750 50 c 1
 750 50 750 750 750 750 c 1
 750 750 657 750 657 750 c 1
 657 750 462 450 462 450 c 1
 630 450 l 2
370 350 m 2
 344.747070312 350 319.831054688 370.520507812 319.831054688 399.775390625 c 0
 319.831054688 409.36328125 322.606445312 418.909179688 328 427 c 2
 328 427 538 750 538 750 c 1
 538 750 250 750 250 750 c 1
 250 50 l 1
 250 50 343 50 343 50 c 1
 343 50 538 350 538 350 c 1
 370 350 l 2
200 850 m 2
 200 850 800 850 800 850 c 2
 828 850 850 828 850 800 c 2
 850 800 850 0 850 0 c 2
 850 -28 828 -50 800 -50 c 2
 800 -50 200 -50 200 -50 c 2
 172 -50 150 -28 150 0 c 2
 150 0 150 800 150 800 c 2
 150 828 172 850 200 850 c 2
EndSplineSet
Substitution2: "'ss01' Add Cartouche Lines-1" pakalaTok.cart
Substitution2: "'ss02' Add Container Lines-1" pakalaTok.cont
EndChar

StartChar: paliTok
Encoding: 73 989513 73
Width: 1000
VWidth: 950
Flags: HW
HStem: 300 100<416.429 583.571> 750 100<417.304 582.696>
VStem: 225 100<492.292 657.696> 675 100<492.292 657.696> 750 100<-41.5625 172.564>
LayerCount: 2
Fore
SplineSet
500 400 m 0
 597 400 675 478 675 575 c 0
 675 672 597 750 500 750 c 0
 403 750 325 672 325 575 c 0
 325 478 403 400 500 400 c 0
50.26953125 300.22265625 m 0
 50.26953125 325.818359375 70.0068359375 349.73046875 100.22265625 349.73046875 c 0
 121.045898438 349.73046875 140.646484375 336.649414062 147 316 c 2
 147 316 180 217 180 217 c 1
 211 278 263 328 328 360 c 1
 265 411 225 488 225 575 c 0
 225 727 348 850 500 850 c 0
 652 850 775 727 775 575 c 0
 775 488 735 411 672 360 c 1
 778 307 850 207 850 90 c 2
 850 90 850 0 850 0 c 2
 850 -28 828 -50 800 -50 c 0
 772 -50 750 -28 750 0 c 2
 750 0 750 90 750 90 c 2
 750 197 648 300 500 300 c 0
 352 300 250 197 250 90 c 2
 250 90 250 0 250 0 c 2
 250 -26.8359375 229.106445312 -49.6796875 199.790039062 -49.6796875 c 0
 178.732421875 -49.6796875 159.19921875 -36.369140625 153 -16 c 2
 153 -16 53 284 53 284 c 2
 51.1484375 289.350585938 50.26953125 294.827148438 50.26953125 300.22265625 c 0
EndSplineSet
Substitution2: "'ss01' Add Cartouche Lines-1" paliTok.cart
Substitution2: "'ss02' Add Container Lines-1" paliTok.cont
EndChar

StartChar: palisaTok
Encoding: 74 989514 74
Width: 1000
VWidth: 950
Flags: HW
HStem: -50 100<440.765 561.235> 750 100<440.765 561.235>
VStem: 302 100<89.7881 710.212> 600 100<89.7881 710.212>
LayerCount: 2
Fore
SplineSet
501 750 m 0
 446 750 402 706 402 651 c 2
 402 651 402 149 402 149 c 2
 402 94 446 50 501 50 c 0
 556 50 600 94 600 149 c 2
 600 149 600 651 600 651 c 2
 600 706 556 750 501 750 c 0
302 651 m 2
 302 761 391 850 501 850 c 0
 611 850 700 761 700 651 c 2
 700 651 700 149 700 149 c 2
 700 39 611 -50 501 -50 c 0
 391 -50 302 39 302 149 c 2
 302 651 l 2
EndSplineSet
Substitution2: "'ss01' Add Cartouche Lines-1" palisaTok.cart
Substitution2: "'ss02' Add Container Lines-1" palisaTok.cont
EndChar

StartChar: panTok
Encoding: 75 989515 75
Width: 1000
VWidth: 950
Flags: HW
LayerCount: 2
Fore
SplineSet
200 250 m 0
 200 276.408203125 223.58203125 300 250 300 c 0
 262.75 300 275.5 295 285 285 c 2
 285 285 500 71 500 71 c 1
 500 71 715 285 715 285 c 2
 724.5 295 737.25 300 750 300 c 0
 776.408203125 300 800 276.41796875 800 250 c 0
 800 237.25 795 224.5 785 215 c 2
 785 215 535 -35 535 -35 c 2
 525.5 -45 512.75 -50 500 -50 c 0
 487.25 -50 474.5 -45 465 -35 c 2
 465 -35 215 215 215 215 c 2
 205 224.5 200 237.25 200 250 c 0
200 525 m 0
 200 551.408203125 223.58203125 575 250 575 c 0
 262.75 575 275.5 570 285 560 c 2
 285 560 500 346 500 346 c 1
 500 346 715 560 715 560 c 2
 724.5 570 737.25 575 750 575 c 0
 776.408203125 575 800 551.41796875 800 525 c 0
 800 512.25 795 499.5 785 490 c 2
 785 490 535 240 535 240 c 2
 525.5 230 512.75 225 500 225 c 0
 487.25 225 474.5 230 465 240 c 2
 465 240 215 490 215 490 c 2
 205 499.5 200 512.25 200 525 c 0
200 800 m 0
 200 826.408203125 223.58203125 850 250 850 c 0
 262.75 850 275.5 845 285 835 c 2
 285 835 500 621 500 621 c 1
 500 621 715 835 715 835 c 2
 724.5 845 737.25 850 750 850 c 0
 776.408203125 850 800 826.41796875 800 800 c 0
 800 787.25 795 774.5 785 765 c 2
 785 765 535 515 535 515 c 2
 525.5 505 512.75 500 500 500 c 0
 487.25 500 474.5 505 465 515 c 2
 465 515 215 765 215 765 c 2
 205 774.5 200 787.25 200 800 c 0
EndSplineSet
Substitution2: "'ss01' Add Cartouche Lines-1" panTok.cart
Substitution2: "'ss02' Add Container Lines-1" panTok.cont
EndChar

StartChar: panaTok
Encoding: 76 989516 76
Width: 1000
VWidth: 950
Flags: HW
HStem: 548 100<503.504 696.496> 648.922 152.156<370.656 432.23 770.053 831.965> 700 150<559.701 642.562>
VStem: 250 100<187 393.711> 342.478 117.032<682.09 768.387> 551 100<709.117 840.883> 742.023 117.36<681.563 766.58> 850 100<-41.5625 393.711>
LayerCount: 2
Fore
SplineSet
342.477539062 748.463867188 m 0
 342.477539062 773.498046875 361.78125 801.078125 392.678710938 801.078125 c 0
 411.9453125 801.078125 429.514648438 789.4609375 437 770 c 2
 437 770 456 721 456 721 c 2
 458.375 714.82421875 459.509765625 708.422851562 459.509765625 702.090820312 c 0
 459.509765625 677.1015625 440.036132812 648.921875 408.901367188 648.921875 c 0
 390.0546875 648.921875 372.485351562 660.5390625 365 680 c 2
 365 680 346 730 346 730 c 2
 343.610351562 735.973632812 342.477539062 742.233398438 342.477539062 748.463867188 c 0
808.759765625 801.078125 m 0
 839.604492188 801.078125 859.383789062 772.615234375 859.383789062 747.767578125 c 0
 859.383789062 741.766601562 858.30078125 735.750976562 856 730 c 2
 856 730 837 680 837 680 c 2
 829.514648438 660.5390625 811.385742188 648.921875 792.255859375 648.921875 c 0
 760.953125 648.921875 742.0234375 677.581054688 742.0234375 703.186523438 c 0
 742.0234375 709.16015625 742.985351562 715.180664062 745 721 c 2
 745 721 765 770 765 770 c 1
 771.736328125 789.4609375 789.677734375 801.078125 808.759765625 801.078125 c 0
601 850 m 0
 629 850 651 828 651 800 c 2
 651 800 651 750 651 750 c 2
 651 722 629 700 601 700 c 0
 574 700 551 722 551 750 c 2
 551 750 551 800 551 800 c 2
 551 828 574 850 601 850 c 0
50.111328125 348.444335938 m 0
 50.111328125 373.548828125 69.7861328125 398.192382812 99.515625 398.192382812 c 0
 117.090820312 398.192382812 134.184570312 389.275390625 143 373 c 2
 143 373 250 187 250 187 c 1
 250 187 250 298 250 298 c 2
 250 491 407 648 600 648 c 0
 793 648 950 491 950 298 c 2
 950 298 950 0 950 0 c 2
 950 -28 928 -50 900 -50 c 0
 872 -50 850 -28 850 0 c 2
 850 0 850 298 850 298 c 2
 850 436 738 548 600 548 c 0
 462 548 350 436 350 298 c 2
 350 298 350 0 350 0 c 2
 350 -26.40234375 329.734375 -49.8330078125 299.4140625 -49.8330078125 c 0
 282.047851562 -49.8330078125 265.73828125 -40.8876953125 257 -25 c 2
 257 -25 57 323 57 323 c 2
 52.3330078125 331 50.111328125 339.77734375 50.111328125 348.444335938 c 0
EndSplineSet
Substitution2: "'ss01' Add Cartouche Lines-1" panaTok.cart
Substitution2: "'ss02' Add Container Lines-1" panaTok.cont
EndChar

StartChar: piTok
Encoding: 77 989517 77
Width: 1000
VWidth: 950
Flags: HW
HStem: 0 100<200 891.562>
VStem: 100 100<100 791.562>
LayerCount: 2
Fore
SplineSet
150 800 m 0
 178 800 200 778 200 750 c 2
 200 750 200 100 200 100 c 1
 200 100 850 100 850 100 c 2
 878 100 900 78 900 50 c 0
 900 22 878 0 850 0 c 2
 850 0 150 0 150 0 c 2
 122 0 100 22 100 50 c 2
 100 50 100 750 100 750 c 2
 100 778 122 800 150 800 c 0
EndSplineSet
Substitution2: "'ss01' Add Cartouche Lines-1" piTok.cart
Substitution2: "'ss02' Add Container Lines-1" piTok.cont
EndChar

StartChar: pilinTok
Encoding: 78 989518 78
Width: 1000
VWidth: 950
Flags: HW
HStem: 0.25 111.729<475.147 525.591> 10 101.979<475.083 499.508 500.492 525.505> 700 100<223.917 374.245 626.312 776.083>
VStem: 50 100<471.52 626.083> 850 100<471.52 626.083>
LayerCount: 2
Fore
SplineSet
300 700 m 0
 217 700 150 633 150 550 c 0
 150 515 168 469 204 415 c 0
 239 363 287 309 335 260 c 0
 384 212 433 169 470 138 c 0
 481 129 491 120 500 113 c 0
 501.0546875 112.296875 502.123046875 111.978515625 503.206054688 111.978515625 c 0
 511.357421875 111.978515625 520.2890625 130.0546875 530 138 c 0
 567 169 616 212 665 260 c 0
 713 309 761 363 796 415 c 0
 832 469 850 515 850 550 c 0
 850 633 783 700 700 700 c 0
 660 700 624 682 596 656 c 0
 566 630 551 601 549 590 c 0
 544 567 524 550 500 550 c 0
 476 550 456 567 451 590 c 0
 449 601 434 630 404 656 c 0
 376 682 340 700 300 700 c 0
469 11 m 2
 464.317382812 15.6826171875 459.96875 18.6875 452 24 c 0
 389.850585938 74.849609375 335.297851562 118.323242188 265 190 c 0
 213 241 161 300 121 360 c 0
 82 419 50 485 50 550 c 0
 50 688 162 800 300 800 c 0
 371 800 430 768 471 731 c 0
 479.637695312 723.225585938 488.276367188 699.036132812 496.26953125 699.036132812 c 0
 497.529296875 699.036132812 498.774414062 699.637695312 500 701 c 0
 542.26171875 752.653320312 611.829101562 800 700 800 c 0
 838 800 950 688 950 550 c 0
 950 485 918 419 879 360 c 0
 808.500976562 254.251953125 685.7578125 136.040039062 595 62 c 0
 568.3046875 40.6435546875 555.50390625 27.6689453125 535 14 c 0
 533 13 532 12 531 11 c 2
 531 11 531 10 530 10 c 0
 521 3.5 510.5 0.25 500 0.25 c 0
 489.5 0.25 479 3.5 470 10 c 0
 469 10 469 11 469 11 c 2
EndSplineSet
Substitution2: "'ss01' Add Cartouche Lines-1" pilinTok.cart
Substitution2: "'ss02' Add Container Lines-1" pilinTok.cont
EndChar

StartChar: pimejaTok
Encoding: 79 989519 79
Width: 1000
VWidth: 950
Flags: HW
HStem: 0 100<197 271 386 613 729 803>
LayerCount: 2
Fore
SplineSet
537 561 m 1
 537 561 500 625 500 625 c 1
 500 625 463 561 463 561 c 1
 463 561 500 497 500 497 c 1
 537 561 l 1
729 100 m 1
 729 100 803 100 803 100 c 1
 803 100 595 461 595 461 c 1
 595 461 558 397 558 397 c 1
 729 100 l 1
386 100 m 1
 386 100 613 100 613 100 c 1
 613 100 500 297 500 297 c 1
 386 100 l 1
271 100 m 1
 271 100 442 397 442 397 c 1
 442 397 405 461 405 461 c 1
 405 461 197 100 197 100 c 1
 271 100 l 1
110 0 m 2
 84.2666015625 0 60.25 21.1005859375 60.25 50 c 0
 60.25 58.75 62.5 67.5 67 75 c 2
 67 75 457 750 457 750 c 2
 466 765 482 775 500 775 c 0
 518 775 534 765 543 750 c 2
 543 750 933 75 933 75 c 2
 937.5 67.5 939.75 58.75 939.75 50 c 0
 939.75 21.1142578125 915.727539062 0 890 0 c 2
 110 0 l 2
EndSplineSet
Substitution2: "'ss01' Add Cartouche Lines-1" pimejaTok.cart
Substitution2: "'ss02' Add Container Lines-1" pimejaTok.cont
EndChar

StartChar: piniTok
Encoding: 80 989520 80
Width: 1000
VWidth: 950
Flags: HW
HStem: -50 100<58.4375 450 550 941.562> 750 100<58.4375 450 550 941.562>
VStem: 450 100<50 750>
LayerCount: 2
Fore
SplineSet
550 750 m 1
 550 750 550 50 550 50 c 1
 550 50 900 50 900 50 c 2
 928 50 950 28 950 0 c 0
 950 -28 928 -50 900 -50 c 2
 900 -50 100 -50 100 -50 c 2
 72 -50 50 -28 50 0 c 0
 50 28 72 50 100 50 c 2
 100 50 450 50 450 50 c 1
 450 50 450 750 450 750 c 1
 450 750 100 750 100 750 c 2
 72 750 50 772 50 800 c 0
 50 828 72 850 100 850 c 2
 100 850 900 850 900 850 c 2
 928 850 950 828 950 800 c 0
 950 772 928 750 900 750 c 2
 550 750 l 1
EndSplineSet
Substitution2: "'ss01' Add Cartouche Lines-1" piniTok.cart
Substitution2: "'ss02' Add Container Lines-1" piniTok.cont
EndChar

StartChar: pipiTok
Encoding: 81 989521 81
Width: 1000
VWidth: 950
Flags: HW
HStem: 50 100<83.4375 450 550 916.562> 250 100<58.4375 450 550 941.562> 450 100<88.4375 450 550 921.562> 700 150<273.417 376.583 623.417 726.583>
VStem: 250 150<723.417 826.583> 450 100<-41.5625 50 150 250 350 450 550 691.562> 600 150<723.417 826.583>
CounterMasks: 1 0e
LayerCount: 2
Fore
SplineSet
750 775 m 0
 750 734 716 700 675 700 c 0
 634 700 600 734 600 775 c 0
 600 816 634 850 675 850 c 0
 716 850 750 816 750 775 c 0
80 500 m 0
 80 528 102 550 130 550 c 2
 130 550 450 550 450 550 c 1
 450 550 450 650 450 650 c 2
 450 678 472 700 500 700 c 0
 528 700 550 678 550 650 c 2
 550 650 550 550 550 550 c 1
 550 550 880 550 880 550 c 2
 908 550 930 528 930 500 c 0
 930 472 908 450 880 450 c 2
 880 450 550 450 550 450 c 1
 550 450 550 350 550 350 c 1
 550 350 900 350 900 350 c 2
 928 350 950 328 950 300 c 0
 950 272 928 250 900 250 c 2
 900 250 550 250 550 250 c 1
 550 250 550 150 550 150 c 1
 550 150 875 150 875 150 c 2
 903 150 925 128 925 100 c 0
 925 72 903 50 875 50 c 2
 875 50 550 50 550 50 c 1
 550 50 550 0 550 0 c 2
 550 -28 528 -50 500 -50 c 0
 472 -50 450 -28 450 0 c 2
 450 0 450 50 450 50 c 1
 450 50 125 50 125 50 c 2
 97 50 75 72 75 100 c 0
 75 128 97 150 125 150 c 2
 125 150 450 150 450 150 c 1
 450 150 450 250 450 250 c 1
 450 250 100 250 100 250 c 2
 72 250 50 272 50 300 c 0
 50 328 72 350 100 350 c 2
 100 350 450 350 450 350 c 1
 450 350 450 450 450 450 c 1
 450 450 130 450 130 450 c 2
 102 450 80 472 80 500 c 0
325 700 m 0
 284 700 250 734 250 775 c 0
 250 816 284 850 325 850 c 0
 366 850 400 816 400 775 c 0
 400 734 366 700 325 700 c 0
EndSplineSet
Substitution2: "'ss01' Add Cartouche Lines-1" pipiTok.cart
Substitution2: "'ss02' Add Container Lines-1" pipiTok.cont
EndChar

StartChar: pokaTok
Encoding: 82 989522 82
Width: 1000
VWidth: 950
Flags: HW
HStem: 75 100<150 650> 325 150<823.417 926.583>
VStem: 50 100<175 716.562> 650 100<175 716.562> 800 150<348.417 451.583>
LayerCount: 2
Fore
SplineSet
950 400 m 0
 950 359 916 325 875 325 c 0
 834 325 800 359 800 400 c 0
 800 441 834 475 875 475 c 0
 916 475 950 441 950 400 c 0
100 725 m 0
 128 725 150 703 150 675 c 2
 150 675 150 175 150 175 c 1
 150 175 650 175 650 175 c 1
 650 175 650 675 650 675 c 2
 650 703 672 725 700 725 c 0
 728 725 750 703 750 675 c 2
 750 675 750 125 750 125 c 2
 750 97 728 75 700 75 c 2
 700 75 100 75 100 75 c 2
 72 75 50 97 50 125 c 2
 50 125 50 675 50 675 c 2
 50 703 72 725 100 725 c 0
EndSplineSet
Substitution2: "'ss01' Add Cartouche Lines-1" pokaTok.cart
Substitution2: "'ss02' Add Container Lines-1" pokaTok.cont
EndChar

StartChar: pokiTok
Encoding: 83 989523 83
Width: 1000
VWidth: 950
Flags: HW
HStem: -50 100<150 850>
VStem: 50 100<50 841.562> 850 100<50 841.562>
LayerCount: 2
Fore
SplineSet
100 850 m 0
 128 850 150 828 150 800 c 2
 150 800 150 50 150 50 c 1
 150 50 850 50 850 50 c 1
 850 50 850 800 850 800 c 2
 850 828 872 850 900 850 c 0
 928 850 950 828 950 800 c 2
 950 800 950 0 950 0 c 2
 950 -28 928 -50 900 -50 c 2
 900 -50 100 -50 100 -50 c 2
 72 -50 50 -28 50 0 c 2
 50 0 50 800 50 800 c 2
 50 828 72 850 100 850 c 0
EndSplineSet
Substitution2: "'ss01' Add Cartouche Lines-1" pokiTok.cart
Substitution2: "'ss02' Add Container Lines-1" pokiTok.cont
EndChar

StartChar: ponaTok
Encoding: 84 989524 84
Width: 1000
VWidth: 950
Flags: HW
HStem: 150 100<383.579 616.421>
VStem: 50 100<487.381 641.562> 850 100<487.381 641.562>
LayerCount: 2
Fore
SplineSet
500 250 m 0
 693 250 850 407 850 600 c 0
 850 628 872 650 900 650 c 0
 928 650 950 628 950 600 c 0
 950 351 749 150 500 150 c 0
 251 150 50 351 50 600 c 0
 50 628 72 650 100 650 c 0
 128 650 150 628 150 600 c 0
 150 407 307 250 500 250 c 0
EndSplineSet
Substitution2: "'ss01' Add Cartouche Lines-1" ponaTok.cart
Substitution2: "'ss02' Add Container Lines-1" ponaTok.cont
EndChar

StartChar: puTok
Encoding: 85 989525 85
Width: 1000
VWidth: 950
Flags: HW
HStem: -50 100<250 750> 100 60<419.923 580.077> 200 60<449.259 550.741> 500 60<419.923 580.077> 584 121<476.214 526.785> 750 100<250 750>
VStem: 150 100<50 750> 270 60<249.923 410.077> 370 60<279.312 358.894> 476 51<584.416 704.616> 570 60<279.312 358.894> 670 60<249.923 410.077> 750 100<50 750>
LayerCount: 2
Fore
SplineSet
501 705 m 0
 515 705 527 694 527 680 c 2
 527 680 527 609 527 609 c 2
 527 596 515 584 501 584 c 0
 488 584 476 596 476 609 c 2
 476 609 476 680 476 680 c 2
 476 694 488 705 501 705 c 0
651.875 535.25 m 0
 637.956054688 535.25 626.5 546.3046875 626.5 560 c 0
 626.5 566.5 629 573 634 578 c 2
 634 578 684 628 684 628 c 2
 689 632.5 695.5 634.75 702 634.75 c 0
 716.147460938 634.75 726.75 624.159179688 726.75 610 c 0
 726.75 603.5 724.5 597 720 592 c 2
 720 592 669 542 669 542 c 2
 664.5 537.5 658.25 535.25 651.875 535.25 c 0
275.5 610 m 0
 275.5 623.278320312 286.284179688 634.75 300.125 634.75 c 0
 306.5 634.75 313 632.5 318 628 c 2
 318 628 368 578 368 578 c 2
 373 573 375.5 566.5 375.5 560 c 0
 375.5 546.516601562 364.181640625 535.25 350.5 535.25 c 0
 344.25 535.25 338 537.5 333 542 c 2
 333 542 283 592 283 592 c 2
 278 597 275.5 603.5 275.5 610 c 0
570 330 m 0
 570 347 583 360 600 360 c 0
 617 360 630 347 630 330 c 0
 630 258 572 200 500 200 c 0
 428 200 370 258 370 330 c 0
 370 347 383 360 400 360 c 0
 417 360 430 347 430 330 c 0
 430 291 461 260 500 260 c 0
 539 260 570 291 570 330 c 0
500 100 m 0
 373 100 270 203 270 330 c 0
 270 457 373 560 500 560 c 0
 627 560 730 457 730 330 c 0
 730 203 627 100 500 100 c 0
670 330 m 0
 670 424 594 500 500 500 c 0
 406 500 330 424 330 330 c 0
 330 236 406 160 500 160 c 0
 594 160 670 236 670 330 c 0
250 750 m 1
 250 750 250 50 250 50 c 1
 250 50 750 50 750 50 c 1
 750 50 750 750 750 750 c 1
 250 750 l 1
150 800 m 2
 150 828 172 850 200 850 c 2
 200 850 800 850 800 850 c 2
 828 850 850 828 850 800 c 2
 850 800 850 0 850 0 c 2
 850 -28 828 -50 800 -50 c 2
 800 -50 200 -50 200 -50 c 2
 172 -50 150 -28 150 0 c 2
 150 800 l 2
EndSplineSet
Substitution2: "'ss01' Add Cartouche Lines-1" puTok.cart
Substitution2: "'ss02' Add Container Lines-1" puTok.cont
EndChar

StartChar: samaTok
Encoding: 86 989526 86
Width: 1000
VWidth: 950
Flags: HW
HStem: 100 100<58.4375 941.562> 600 100<58.4375 941.562>
LayerCount: 2
Fore
SplineSet
950 150 m 0
 950 122 928 100 900 100 c 2
 900 100 100 100 100 100 c 2
 72 100 50 122 50 150 c 0
 50 178 72 200 100 200 c 2
 100 200 900 200 900 200 c 2
 928 200 950 178 950 150 c 0
950 650 m 0
 950 622 928 600 900 600 c 2
 900 600 100 600 100 600 c 2
 72 600 50 622 50 650 c 0
 50 678 72 700 100 700 c 2
 100 700 900 700 900 700 c 2
 928 700 950 678 950 650 c 0
EndSplineSet
Substitution2: "'ss01' Add Cartouche Lines-1" samaTok.cart
Substitution2: "'ss02' Add Container Lines-1" samaTok.cont
EndChar

StartChar: seliTok
Encoding: 87 989527 87
Width: 1000
VWidth: 950
Flags: HW
HStem: -50 150<448.417 551.583>
VStem: 425 150<-26.5827 76.5827> 450 100<258.438 841.562>
LayerCount: 2
Fore
SplineSet
100.130859375 727.318359375 m 0
 100.130859375 752.510742188 120.53125 776.869140625 150.318359375 776.869140625 c 0
 169.099609375 776.869140625 187.033203125 766.106445312 195 748 c 2
 195 748 407 295 407 295 c 2
 409.887695312 288.436523438 411.259765625 281.529296875 411.259765625 274.7109375 c 0
 411.259765625 249.251953125 390.990234375 224.130859375 360.846679688 224.130859375 c 0
 342.299804688 224.130859375 324.69140625 234.893554688 316 253 c 2
 316 253 105 706 105 706 c 2
 101.69140625 712.893554688 100.130859375 720.16796875 100.130859375 727.318359375 c 0
849.846679688 776.869140625 m 0
 879.963867188 776.869140625 900.259765625 751.744140625 900.259765625 726.2890625 c 0
 900.259765625 719.470703125 898.887695312 712.563476562 896 706 c 2
 896 706 684 253 684 253 c 2
 676.033203125 234.893554688 658.099609375 224.130859375 639.318359375 224.130859375 c 0
 609.556640625 224.130859375 589.130859375 248.4921875 589.130859375 273.681640625 c 0
 589.130859375 280.83203125 590.69140625 288.106445312 594 295 c 2
 594 295 805 748 805 748 c 2
 813.69140625 766.106445312 831.299804688 776.869140625 849.846679688 776.869140625 c 0
500 850 m 0
 528 850 550 828 550 800 c 2
 550 800 550 300 550 300 c 2
 550 272 528 250 500 250 c 0
 472 250 450 272 450 300 c 2
 450 300 450 800 450 800 c 2
 450 828 472 850 500 850 c 0
575 25 m 0
 575 -16 541 -50 500 -50 c 0
 459 -50 425 -16 425 25 c 0
 425 66 459 100 500 100 c 0
 541 100 575 66 575 25 c 0
EndSplineSet
Substitution2: "'ss01' Add Cartouche Lines-1" seliTok.cart
Substitution2: "'ss02' Add Container Lines-1" seliTok.cont
EndChar

StartChar: seloTok
Encoding: 88 989528 88
Width: 1000
VWidth: 950
Flags: HW
HStem: 0 21G<286 314 686 714> 750 100<150 250 350 650 750 850>
VStem: 50 100<-41.5625 750> 250 100<8.4375 750> 650 100<8.4375 750> 850 100<-41.5625 750>
LayerCount: 2
Fore
SplineSet
100 -50 m 0
 72 -50 50 -28 50 0 c 2
 50 0 50 800 50 800 c 2
 50 828 72 850 100 850 c 2
 100 850 900 850 900 850 c 2
 928 850 950 828 950 800 c 2
 950 800 950 0 950 0 c 2
 950 -28 928 -50 900 -50 c 0
 872 -50 850 -28 850 0 c 2
 850 0 850 750 850 750 c 1
 850 750 750 750 750 750 c 1
 750 750 750 50 750 50 c 2
 750 22 728 0 700 0 c 0
 672 0 650 22 650 50 c 2
 650 50 650 750 650 750 c 1
 650 750 350 750 350 750 c 1
 350 750 350 50 350 50 c 2
 350 22 328 0 300 0 c 0
 272 0 250 22 250 50 c 2
 250 50 250 750 250 750 c 1
 250 750 150 750 150 750 c 1
 150 750 150 0 150 0 c 2
 150 -28 128 -50 100 -50 c 0
EndSplineSet
Substitution2: "'ss01' Add Cartouche Lines-1" seloTok.cart
Substitution2: "'ss02' Add Container Lines-1" seloTok.cont
EndChar

StartChar: semeTok
Encoding: 89 989529 89
Width: 1000
VWidth: 950
Flags: W
HStem: -50 150<448.417 551.583> 750 100<358.542 641.458>
VStem: 150 100<558.438 668.743> 425 150<-26.5827 76.5827> 450 100<208.438 344.507> 750 100<561.291 669.432>
LayerCount: 2
Fore
SplineSet
500 850 m 0xec
 679.758789062 850 850 777.533203125 850 600 c 0
 850 544 819 505 784 478 c 0
 726.2890625 429.907226562 632.063476562 400.272460938 580 355 c 0
 559 337 550 320 550 300 c 2
 550 300 550 250 550 250 c 2
 550 222 528 200 500 200 c 0
 472 200 450 222 450 250 c 2
 450 250 450 300 450 300 c 2
 450 414 556.458007812 465.228515625 632 503 c 0
 669 522 700 538 722 556 c 0
 744 573 750 587 750 600 c 0
 750 649 727 684 686 709 c 0
 643 735 578 750 500 750 c 0
 422 750 357 735 314 709 c 0
 273 684 250 649 250 600 c 0
 250 572 228 550 200 550 c 0
 172 550 150 572 150 600 c 0
 150 777.49609375 320.245117188 850 500 850 c 0xec
575 25 m 0xf4
 575 -16 541 -50 500 -50 c 0
 459 -50 425 -16 425 25 c 0
 425 66 459 100 500 100 c 0
 541 100 575 66 575 25 c 0xf4
EndSplineSet
Substitution2: "'ss01' Add Cartouche Lines-1" semeTok.cart
Substitution2: "'ss02' Add Container Lines-1" semeTok.cont
EndChar

StartChar: sewiTok
Encoding: 90 989530 90
Width: 1000
VWidth: 950
Flags: HW
HStem: 550 100<150 850> 700 150<448.417 551.583>
VStem: 50 100<-41.5625 550> 425 150<723.417 826.583> 850 100<-41.5625 550>
CounterMasks: 1 38
LayerCount: 2
Fore
SplineSet
575 775 m 0
 575 734 541 700 500 700 c 0
 459 700 425 734 425 775 c 0
 425 816 459 850 500 850 c 0
 541 850 575 816 575 775 c 0
100 -50 m 0
 72 -50 50 -28 50 0 c 2
 50 0 50 600 50 600 c 2
 50 628 72 650 100 650 c 2
 100 650 900 650 900 650 c 2
 928 650 950 628 950 600 c 2
 950 600 950 0 950 0 c 2
 950 -28 928 -50 900 -50 c 0
 872 -50 850 -28 850 0 c 2
 850 0 850 550 850 550 c 1
 850 550 150 550 150 550 c 1
 150 550 150 0 150 0 c 2
 150 -28 128 -50 100 -50 c 0
EndSplineSet
Substitution2: "'ss01' Add Cartouche Lines-1" sewiTok.cart
Substitution2: "'ss02' Add Container Lines-1" sewiTok.cont
EndChar

StartChar: sijeloTok
Encoding: 91 989531 91
Width: 1000
VWidth: 950
Flags: HW
HStem: 0 21G<486 514> 750 100<150 450 550 850>
VStem: 50 100<-41.5625 750> 450 100<8.4375 750> 850 100<-41.5625 750>
CounterMasks: 1 38
LayerCount: 2
Fore
SplineSet
150 0 m 2
 150 -28 128 -50 100 -50 c 0
 72 -50 50 -28 50 0 c 2
 50 0 50 800 50 800 c 2
 50 828 72 850 100 850 c 2
 100 850 900 850 900 850 c 2
 928 850 950 828 950 800 c 2
 950 800 950 0 950 0 c 2
 950 -28 928 -50 900 -50 c 0
 872 -50 850 -28 850 0 c 2
 850 0 850 750 850 750 c 1
 850 750 550 750 550 750 c 1
 550 750 550 50 550 50 c 2
 550 22 528 0 500 0 c 0
 472 0 450 22 450 50 c 2
 450 50 450 750 450 750 c 1
 450 750 150 750 150 750 c 1
 150 0 l 2
EndSplineSet
Substitution2: "'ss01' Add Cartouche Lines-1" sijeloTok.cart
Substitution2: "'ss02' Add Container Lines-1" sijeloTok.cont
EndChar

StartChar: sikeTok
Encoding: 92 989532 92
Width: 1000
VWidth: 950
Flags: HW
HStem: -50 100<383.579 616.421> 150 100<423.917 576.083> 550 100<423.917 576.083> 750 100<383.579 616.421>
VStem: 50 100<283.579 516.421> 250 100<323.917 476.083> 650 100<323.917 476.083> 850 100<283.579 516.421>
LayerCount: 2
Fore
SplineSet
500 150 m 0
 362 150 250 262 250 400 c 0
 250 538 362 650 500 650 c 0
 638 650 750 538 750 400 c 0
 750 262 638 150 500 150 c 0
650 400 m 0
 650 483 583 550 500 550 c 0
 417 550 350 483 350 400 c 0
 350 317 417 250 500 250 c 0
 583 250 650 317 650 400 c 0
500 -50 m 0
 251 -50 50 151 50 400 c 0
 50 649 251 850 500 850 c 0
 749 850 950 649 950 400 c 0
 950 151 749 -50 500 -50 c 0
500 50 m 0
 693 50 850 207 850 400 c 0
 850 593 693 750 500 750 c 0
 307 750 150 593 150 400 c 0
 150 207 307 50 500 50 c 0
EndSplineSet
Substitution2: "'ss01' Add Cartouche Lines-1" sikeTok.cart
Substitution2: "'ss02' Add Container Lines-1" sikeTok.cont
EndChar

StartChar: sinTok
Encoding: 93 989533 93
Width: 1000
VWidth: 950
Flags: HW
HStem: 150 100<58.4375 391.562 608.438 941.562>
VStem: 450 100<308.438 641.562>
LayerCount: 2
Fore
SplineSet
50 200 m 0
 50 228 72 250 100 250 c 2
 100 250 350 250 350 250 c 2
 378 250 400 228 400 200 c 0
 400 172 378 150 350 150 c 2
 350 150 100 150 100 150 c 2
 72 150 50 172 50 200 c 0
500 650 m 0
 528 650 550 628 550 600 c 2
 550 600 550 350 550 350 c 2
 550 322 528 300 500 300 c 0
 472 300 450 322 450 350 c 2
 450 350 450 600 450 600 c 2
 450 628 472 650 500 650 c 0
600 200 m 0
 600 228 622 250 650 250 c 2
 650 250 900 250 900 250 c 2
 928 250 950 228 950 200 c 0
 950 172 928 150 900 150 c 2
 900 150 650 150 650 150 c 2
 622 150 600 172 600 200 c 0
EndSplineSet
Substitution2: "'ss01' Add Cartouche Lines-1" sinTok.cart
Substitution2: "'ss02' Add Container Lines-1" sinTok.cont
EndChar

StartChar: sinaTok
Encoding: 94 989534 94
Width: 1000
VWidth: 950
Flags: HW
HStem: -50 100<409.912 590.088> 450 100<409.722 590.088>
VStem: 200 100<160.672 340.849 474 841.562> 700 100<159.912 340.088>
LayerCount: 2
Fore
SplineSet
300 250 m 0
 300 140 390 50 500 50 c 0
 610 50 700 140 700 250 c 0
 700 360 610 450 500 450 c 0
 390 450 300 360 300 250 c 0
200 250 m 2
 200 250 200 800 200 800 c 2
 200 828 222 850 250 850 c 0
 278 850 300 828 300 800 c 2
 300 800 300 474 300 474 c 1
 353 521 423 550 500 550 c 0
 666 550 800 416 800 250 c 0
 800 84 666 -50 500 -50 c 0
 334 -50 200 84 200 250 c 2
EndSplineSet
Substitution2: "'ss01' Add Cartouche Lines-1" sinaTok.cart
Substitution2: "'ss02' Add Container Lines-1" sinaTok.cont
EndChar

StartChar: sinpinTok
Encoding: 95 989535 95
Width: 1000
VWidth: 950
Flags: HW
HStem: -50 100<58.4375 650> 325 150<823.417 926.583> 750 100<58.4375 650>
VStem: 650 100<50 750> 800 150<348.417 451.583>
CounterMasks: 1 e0
LayerCount: 2
Fore
SplineSet
875 325 m 0
 834 325 800 359 800 400 c 0
 800 441 834 475 875 475 c 0
 916 475 950 441 950 400 c 0
 950 359 916 325 875 325 c 0
50 800 m 0
 50 828 72 850 100 850 c 2
 100 850 700 850 700 850 c 2
 728 850 750 828 750 800 c 2
 750 800 750 0 750 0 c 2
 750 -28 728 -50 700 -50 c 2
 700 -50 100 -50 100 -50 c 2
 72 -50 50 -28 50 0 c 0
 50 28 72 50 100 50 c 2
 100 50 650 50 650 50 c 1
 650 50 650 750 650 750 c 1
 650 750 100 750 100 750 c 2
 72 750 50 772 50 800 c 0
EndSplineSet
Substitution2: "'ss01' Add Cartouche Lines-1" sinpinTok.cart
Substitution2: "'ss02' Add Container Lines-1" sinpinTok.cont
EndChar

StartChar: sitelenTok
Encoding: 96 989536 96
Width: 1000
VWidth: 950
Flags: HW
HStem: -50 100<250 750> 350 100<308.438 391.562 458.438 541.562 608.438 691.562> 750 100<250 750>
VStem: 150 100<50 750> 300 100<358.438 441.562> 450 100<358.438 441.562> 600 100<358.438 441.562> 750 100<50 750>
CounterMasks: 1 e0
LayerCount: 2
Fore
SplineSet
700 400 m 0
 700 372 678 350 650 350 c 0
 622 350 600 372 600 400 c 0
 600 428 622 450 650 450 c 0
 678 450 700 428 700 400 c 0
550 400 m 0
 550 372 528 350 500 350 c 0
 472 350 450 372 450 400 c 0
 450 428 472 450 500 450 c 0
 528 450 550 428 550 400 c 0
400 400 m 0
 400 372 378 350 350 350 c 0
 322 350 300 372 300 400 c 0
 300 428 322 450 350 450 c 0
 378 450 400 428 400 400 c 0
250 750 m 1
 250 750 250 50 250 50 c 1
 250 50 750 50 750 50 c 1
 750 50 750 750 750 750 c 1
 250 750 l 1
150 800 m 2
 150 828 172 850 200 850 c 2
 200 850 800 850 800 850 c 2
 828 850 850 828 850 800 c 2
 850 800 850 0 850 0 c 2
 850 -28 828 -50 800 -50 c 2
 800 -50 200 -50 200 -50 c 2
 172 -50 150 -28 150 0 c 2
 150 800 l 2
EndSplineSet
Substitution2: "'ss01' Add Cartouche Lines-1" sitelenTok.cart
Substitution2: "'ss02' Add Container Lines-1" sitelenTok.cont
EndChar

StartChar: sonaTok
Encoding: 97 989537 97
Width: 1000
VWidth: 950
Flags: HW
HStem: -50 100<250 750> 550 100<250 750> 689.922 146.156<268.668 330.351 668.73 730.397> 700 150<458.438 541.562>
VStem: 150 100<50 550> 239.922 119.156<724.233 801.418> 450 100<708.438 841.562> 639.922 119.156<724.202 801.383> 750 100<50 550>
LayerCount: 2
Fore
SplineSet
239.921875 786.4140625 m 0
 239.921875 811.452148438 260.278320312 836.078125 290.4140625 836.078125 c 0
 309.825195312 836.078125 328.514648438 824.4609375 336 805 c 2
 336 805 355 759 355 759 c 2
 357.766601562 752.4609375 359.078125 745.731445312 359.078125 739.163085938 c 0
 359.078125 714.198242188 338.635742188 689.921875 308.727539062 689.921875 c 0
 289.55078125 689.921875 271.233398438 701.5390625 263 721 c 2
 263 721 244 767 244 767 c 2
 241.233398438 773.288085938 239.921875 779.891601562 239.921875 786.4140625 c 0
708.727539062 836.078125 m 0
 738.741210938 836.078125 759.078125 811.361328125 759.078125 786.4140625 c 0
 759.078125 779.891601562 757.766601562 773.288085938 755 767 c 2
 755 767 736 721 736 721 c 2
 728.514648438 701.5390625 709.825195312 689.921875 690.4140625 689.921875 c 0
 660.422851562 689.921875 639.921875 714.1171875 639.921875 739.163085938 c 0
 639.921875 745.731445312 641.233398438 752.4609375 644 759 c 2
 644 759 663 805 663 805 c 2
 671.233398438 824.4609375 689.55078125 836.078125 708.727539062 836.078125 c 0
500 850 m 0
 528 850 550 828 550 800 c 2
 550 800 550 750 550 750 c 2
 550 722 528 700 500 700 c 0
 472 700 450 722 450 750 c 2
 450 750 450 800 450 800 c 2
 450 828 472 850 500 850 c 0
250 550 m 1
 250 550 250 50 250 50 c 1
 250 50 750 50 750 50 c 1
 750 50 750 550 750 550 c 1
 250 550 l 1
150 600 m 2
 150 628 172 650 200 650 c 2
 200 650 800 650 800 650 c 2
 828 650 850 628 850 600 c 2
 850 600 850 0 850 0 c 2
 850 -28 828 -50 800 -50 c 2
 800 -50 200 -50 200 -50 c 2
 172 -50 150 -28 150 0 c 2
 150 600 l 2
EndSplineSet
Substitution2: "'ss01' Add Cartouche Lines-1" sonaTok.cart
Substitution2: "'ss02' Add Container Lines-1" sonaTok.cont
EndChar

StartChar: soweliTok
Encoding: 98 989538 98
Width: 1000
VWidth: 950
Flags: HW
HStem: -50 300<158.438 241.562 358.438 441.562 558.438 638.056> 425 150<373.417 476.583 623.417 726.583> 750 100<58.4375 695.711>
VStem: 150 100<-41.5625 241.562> 350 150<448.417 551.583> 350 100<-41.5625 241.562> 550 100<-41.5625 156.605> 600 150<448.417 551.583> 850 100<403.745 596.496>
LayerCount: 2
Fore
SplineSet
425 425 m 0
 384 425 350 459 350 500 c 0
 350 541 384 575 425 575 c 0
 466 575 500 541 500 500 c 0
 500 459 466 425 425 425 c 0
750 500 m 0
 750 459 716 425 675 425 c 0
 634 425 600 459 600 500 c 0
 600 541 634 575 675 575 c 0
 716 575 750 541 750 500 c 0
200 250 m 0
 228 250 250 228 250 200 c 2
 250 200 250 0 250 0 c 2
 250 -28 228 -50 200 -50 c 0
 172 -50 150 -28 150 0 c 2
 150 0 150 200 150 200 c 2
 150 228 172 250 200 250 c 0
450 200 m 2
 450 200 450 0 450 0 c 2
 450 -28 428 -50 400 -50 c 0
 372 -50 350 -28 350 0 c 2
 350 0 350 200 350 200 c 2
 350 228 372 250 400 250 c 0
 428 250 450 228 450 200 c 2
50 800 m 0
 50 828 72 850 100 850 c 2
 100 850 600 850 600 850 c 2
 793 850 950 693 950 500 c 0
 950 324 820 178 650 154 c 1
 650 154 650 0 650 0 c 2
 650 -28 628 -50 600 -50 c 0
 572 -50 550 -28 550 0 c 2
 550 0 550 200 550 200 c 2
 550 228 572 250 600 250 c 0
 738 250 850 362 850 500 c 0
 850 638 738 750 600 750 c 2
 600 750 100 750 100 750 c 2
 72 750 50 772 50 800 c 0
EndSplineSet
Substitution2: "'ss01' Add Cartouche Lines-1" soweliTok.cart
Substitution2: "'ss02' Add Container Lines-1" soweliTok.cont
EndChar

StartChar: suliTok
Encoding: 99 989539 99
Width: 1000
VWidth: 950
Flags: HW
LayerCount: 2
Fore
SplineSet
849.783203125 849.603515625 m 0
 877.828125 849.603515625 899.603515625 826.778320312 899.603515625 800.216796875 c 0
 899.603515625 789.333007812 896.168945312 778.27734375 889 769 c 0
 777 625 695 443 638 289 c 0
 582 135 554 13 549 -10 c 0
 544 -33 524 -50 500 -50 c 0
 476 -50 456 -33 451 -10 c 0
 446 13 418 135 362 289 c 0
 305 443 223 625 111 769 c 0
 103.831054688 778.27734375 100.396484375 789.333007812 100.396484375 800.216796875 c 0
 100.396484375 826.771484375 122.146484375 849.603515625 150.216796875 849.603515625 c 0
 165.143554688 849.603515625 179.747070312 843.14453125 189 831 c 0
 311 675 398 482 456 323 c 0
 473 276 488 232 500 192 c 1
 512 232 527 276 544 323 c 0
 602 482 689 675 811 831 c 0
 820.252929688 843.14453125 834.856445312 849.603515625 849.783203125 849.603515625 c 0
EndSplineSet
Substitution2: "'ss01' Add Cartouche Lines-1" suliTok.cart
Substitution2: "'ss02' Add Container Lines-1" suliTok.cont
EndChar

StartChar: sunoTok
Encoding: 100 989540 100
Width: 1000
VWidth: 950
Flags: HW
HStem: 104 96<409.692 450 550 590.308> 350 100<58.4375 207.462 792.538 941.562> 600 96<409.692 450 550 590.308>
VStem: 204 96<309.692 350 450 490.308> 450 100<-41.5625 107.462 692.538 841.562> 700 96<309.692 350 450 490.308>
CounterMasks: 1 fc
LayerCount: 2
Fore
SplineSet
500 600 m 0
 390 600 300 510 300 400 c 0
 300 290 390 200 500 200 c 0
 610 200 700 290 700 400 c 0
 700 510 610 600 500 600 c 0
450 800 m 2
 450 828 472 850 500 850 c 0
 528 850 550 828 550 800 c 2
 550 800 550 696 550 696 c 1
 676 675 775 576 796 450 c 1
 796 450 900 450 900 450 c 2
 928 450 950 428 950 400 c 0
 950 372 928 350 900 350 c 2
 900 350 796 350 796 350 c 1
 775 224 676 125 550 104 c 1
 550 104 550 0 550 0 c 2
 550 -28 528 -50 500 -50 c 0
 472 -50 450 -28 450 0 c 2
 450 0 450 104 450 104 c 1
 324 125 225 224 204 350 c 1
 204 350 100 350 100 350 c 2
 72 350 50 372 50 400 c 0
 50 428 72 450 100 450 c 2
 100 450 204 450 204 450 c 1
 225 576 324 675 450 696 c 1
 450 800 l 2
EndSplineSet
Substitution2: "'ss01' Add Cartouche Lines-1" sunoTok.cart
Substitution2: "'ss02' Add Container Lines-1" sunoTok.cont
EndChar

StartChar: supaTok
Encoding: 101 989541 101
Width: 1000
VWidth: 950
Flags: HW
HStem: 600 100<58.4375 300 400 600 700 941.562>
VStem: 300 100<108.438 600> 600 100<108.438 600>
LayerCount: 2
Fore
SplineSet
100 700 m 2
 100 700 900 700 900 700 c 2
 928 700 950 678 950 650 c 0
 950 622 928 600 900 600 c 2
 900 600 700 600 700 600 c 1
 700 600 700 150 700 150 c 2
 700 122 678 100 650 100 c 0
 622 100 600 122 600 150 c 2
 600 150 600 600 600 600 c 1
 600 600 400 600 400 600 c 1
 400 600 400 150 400 150 c 2
 400 122 378 100 350 100 c 0
 322 100 300 122 300 150 c 2
 300 150 300 600 300 600 c 1
 300 600 100 600 100 600 c 2
 72 600 50 622 50 650 c 0
 50 678 72 700 100 700 c 2
EndSplineSet
Substitution2: "'ss01' Add Cartouche Lines-1" supaTok.cart
Substitution2: "'ss02' Add Container Lines-1" supaTok.cont
EndChar

StartChar: suwiTok
Encoding: 102 989542 102
Width: 1000
VWidth: 950
Flags: HW
HStem: 150 150<453.417 556.583>
VStem: 430 150<173.417 276.583>
LayerCount: 2
Fore
SplineSet
580 225 m 0
 580 184 546 150 505 150 c 0
 464 150 430 184 430 225 c 0
 430 266 464 300 505 300 c 0
 546 300 580 266 580 225 c 0
600 400 m 0
 573.591796875 400 550 423.58203125 550 450 c 0
 550 462.75 555 475.5 565 485 c 2
 565 485 715 635 715 635 c 2
 724.5 645 737.25 650 750 650 c 0
 762.75 650 775.5 645 785 635 c 2
 785 635 935 485 935 485 c 2
 945 475.5 950 462.75 950 450 c 0
 950 423.591796875 926.41796875 400 900 400 c 0
 887.25 400 874.5 405 865 415 c 2
 865 415 750 529 750 529 c 1
 750 529 635 415 635 415 c 2
 625.5 405 612.75 400 600 400 c 0
100 400 m 0
 73.591796875 400 50 423.58203125 50 450 c 0
 50 462.75 55 475.5 65 485 c 2
 65 485 215 635 215 635 c 2
 224.5 645 237.25 650 250 650 c 0
 262.75 650 275.5 645 285 635 c 2
 285 635 435 485 435 485 c 2
 445 475.5 450 462.75 450 450 c 0
 450 423.591796875 426.41796875 400 400 400 c 0
 387.25 400 374.5 405 365 415 c 2
 365 415 250 529 250 529 c 1
 250 529 135 415 135 415 c 2
 125.5 405 112.75 400 100 400 c 0
EndSplineSet
Substitution2: "'ss01' Add Cartouche Lines-1" suwiTok.cart
Substitution2: "'ss02' Add Container Lines-1" suwiTok.cont
EndChar

StartChar: tanTok
Encoding: 103 989543 103
Width: 1000
VWidth: 950
Flags: HW
HStem: 25 100<533.438 677.623> 675 100<469.593 679.858>
VStem: 850 100<295.142 504.858>
LayerCount: 2
Fore
SplineSet
50 475 m 0
 50 501.408203125 73.58203125 525 100 525 c 0
 112.75 525 125.5 520 135 510 c 2
 135 510 202 443 202 443 c 1
 224 630 383 775 575 775 c 0
 782 775 950 607 950 400 c 0
 950 193 782 25 575 25 c 0
 547 25 525 47 525 75 c 0
 525 103 547 125 575 125 c 0
 727 125 850 248 850 400 c 0
 850 552 727 675 575 675 c 0
 440 675 328 578 305 450 c 1
 305 450 365 510 365 510 c 2
 374.5 520 387.25 525 400 525 c 0
 426.408203125 525 450 501.41796875 450 475 c 0
 450 462.25 445 449.5 435 440 c 2
 435 440 285 290 285 290 c 2
 275.5 280 262.75 275 250 275 c 0
 237.25 275 224.5 280 215 290 c 2
 215 290 65 440 65 440 c 2
 55 449.5 50 462.25 50 475 c 0
EndSplineSet
Substitution2: "'ss01' Add Cartouche Lines-1" tanTok.cart
Substitution2: "'ss02' Add Container Lines-1" tanTok.cont
EndChar

StartChar: tasoTok
Encoding: 104 989544 104
Width: 1000
VWidth: 950
Flags: HW
HStem: 350 100<258.438 550>
VStem: 550 100<-41.5625 350 450 841.562>
LayerCount: 2
Fore
SplineSet
650 800 m 2
 650 800 650 0 650 0 c 2
 650 -28 628 -50 600 -50 c 0
 572 -50 550 -28 550 0 c 2
 550 0 550 350 550 350 c 1
 550 350 300 350 300 350 c 2
 272 350 250 372 250 400 c 0
 250 428 272 450 300 450 c 2
 300 450 550 450 550 450 c 1
 550 450 550 800 550 800 c 2
 550 828 572 850 600 850 c 0
 628 850 650 828 650 800 c 2
EndSplineSet
Substitution2: "'ss01' Add Cartouche Lines-1" tasoTok.cart
Substitution2: "'ss02' Add Container Lines-1" tasoTok.cont
EndChar

StartChar: tawaTok
Encoding: 105 989545 105
Width: 1000
VWidth: 950
Flags: HW
HStem: -50 100<264 441.562 639 841.562>
LayerCount: 2
Fore
SplineSet
200 -50 m 2
 173.030273438 -50 149.890625 -27.404296875 149.890625 0.8681640625 c 0
 149.890625 4.58984375 150.264648438 8.3251953125 151 12 c 2
 151 12 351 812 351 812 c 2
 357 834 377 850 400 850 c 0
 423 850 443 834 449 812 c 2
 449 812 639 50 639 50 c 1
 639 50 800 50 800 50 c 2
 828 50 850 28 850 0 c 0
 850 -28 828 -50 800 -50 c 2
 800 -50 600 -50 600 -50 c 2
 577 -50 557 -34 551 -12 c 2
 551 -12 400 594 400 594 c 1
 400 594 264 50 264 50 c 1
 264 50 400 50 400 50 c 2
 428 50 450 28 450 0 c 0
 450 -28 428 -50 400 -50 c 2
 200 -50 l 2
EndSplineSet
Substitution2: "'ss01' Add Cartouche Lines-1" tawaTok.cart
Substitution2: "'ss02' Add Container Lines-1" tawaTok.cont
EndChar

StartChar: teloTok
Encoding: 106 989546 106
Width: 1000
VWidth: 950
Flags: HW
HStem: 0.25 106.956<617.437 772.45> 292.794 106.956<227.743 382.46> 400.25 106.956<617.437 772.45> 692.794 106.956<227.743 382.46>
VStem: 50.2529 99.6875<37.5613 209.042 437.561 609.042> 65 96.8438<9.04999 125.849 409.05 525.849> 838.166 96.834<274.151 390.877 674.151 790.877> 850.06 99.6777<190.99 362.392 590.99 762.392>
LayerCount: 2
Fore
SplineSet
161.84375 452.97265625 m 0
 161.84375 426.849609375 143.21484375 399.896484375 112.384765625 399.896484375 c 0
 91.669921875 399.896484375 72.1044921875 413.8984375 65 436 c 0
 55.001953125 466.208007812 50.2529296875 497.048828125 50.2529296875 527.368164062 c 0
 50.2529296875 639.57421875 115.29296875 744.63671875 220 784 c 0
 248.4140625 794.681640625 277.376953125 799.75 305.823242188 799.75 c 0
 410.529296875 799.75 508.254882812 731.08984375 546 621 c 0
 546 620 547 619 547 618 c 0
 569.788085938 549.63671875 629.624023438 507.206054688 693.513671875 507.206054688 c 0
 789.87109375 507.206054688 850.059570312 590.609375 850.059570312 673.28515625 c 0
 850.059570312 691.751953125 847.1484375 710.555664062 841 729 c 0
 839.084960938 734.958007812 838.166015625 741.005859375 838.166015625 746.932617188 c 0
 838.166015625 772.875 857.25 800.103515625 888.500976562 800.103515625 c 0
 908.953125 800.103515625 927.895507812 786.1015625 935 764 c 0
 944.98828125 733.823242188 949.737304688 703.013671875 949.737304688 672.723632812 c 0
 949.737304688 560.482421875 884.5234375 455.374023438 779 416 c 0
 750.798828125 405.318359375 722.004882812 400.25 693.690429688 400.25 c 0
 589.470703125 400.25 491.745117188 468.91015625 454 579 c 0
 454 580 453 581 453 582 c 0
 430.211914062 650.36328125 370.375976562 692.793945312 306.486328125 692.793945312 c 0
 210.12890625 692.793945312 149.940429688 609.390625 149.940429688 526.71484375 c 0
 149.940429688 508.248046875 152.8515625 489.444335938 159 471 c 0
 160.924804688 465.010742188 161.84375 458.9296875 161.84375 452.97265625 c 0
161.84375 52.97265625 m 0
 161.84375 26.849609375 143.21484375 -0.103515625 112.384765625 -0.103515625 c 0
 91.669921875 -0.103515625 72.1044921875 13.8984375 65 36 c 0
 55.001953125 66.2080078125 50.2529296875 97.048828125 50.2529296875 127.368164062 c 0
 50.2529296875 239.57421875 115.29296875 344.63671875 220 384 c 0
 248.4140625 394.681640625 277.376953125 399.75 305.823242188 399.75 c 0
 410.529296875 399.75 508.254882812 331.08984375 546 221 c 0
 546 220 547 219 547 218 c 0
 569.788085938 149.63671875 629.624023438 107.206054688 693.513671875 107.206054688 c 0
 789.87109375 107.206054688 850.059570312 190.609375 850.059570312 273.28515625 c 0
 850.059570312 291.751953125 847.1484375 310.555664062 841 329 c 0
 839.084960938 334.958007812 838.166015625 341.005859375 838.166015625 346.932617188 c 0
 838.166015625 372.875 857.25 400.103515625 888.500976562 400.103515625 c 0
 908.953125 400.103515625 927.895507812 386.1015625 935 364 c 0
 944.98828125 333.823242188 949.737304688 303.013671875 949.737304688 272.723632812 c 0
 949.737304688 160.482421875 884.5234375 55.3740234375 779 16 c 0
 750.798828125 5.318359375 722.004882812 0.25 693.690429688 0.25 c 0
 589.470703125 0.25 491.745117188 68.91015625 454 179 c 0
 454 180 453 181 453 182 c 0
 430.211914062 250.36328125 370.375976562 292.793945312 306.486328125 292.793945312 c 0
 210.12890625 292.793945312 149.940429688 209.390625 149.940429688 126.71484375 c 0
 149.940429688 108.248046875 152.8515625 89.4443359375 159 71 c 0
 160.924804688 65.0107421875 161.84375 58.9296875 161.84375 52.97265625 c 0
EndSplineSet
Substitution2: "'ss01' Add Cartouche Lines-1" teloTok.cart
Substitution2: "'ss02' Add Container Lines-1" teloTok.cont
EndChar

StartChar: tenpoTok
Encoding: 107 989547 107
Width: 1000
VWidth: 950
Flags: HW
HStem: -50 100<383.579 616.421> 350 100<550 691.562> 750 100<383.579 616.421>
VStem: 50 100<283.579 516.421> 450 250<358.438 441.562> 450 100<450 691.562> 850 100<283.579 516.421>
CounterMasks: 1 e0
LayerCount: 2
Fore
SplineSet
500 700 m 0
 528 700 550 678 550 650 c 2
 550 650 550 450 550 450 c 1
 550 450 650 450 650 450 c 2
 678 450 700 428 700 400 c 0
 700 372 678 350 650 350 c 2
 650 350 500 350 500 350 c 2
 472 350 450 372 450 400 c 2
 450 400 450 650 450 650 c 2
 450 678 472 700 500 700 c 0
500 -50 m 0
 251 -50 50 151 50 400 c 0
 50 649 251 850 500 850 c 0
 749 850 950 649 950 400 c 0
 950 151 749 -50 500 -50 c 0
500 50 m 0
 693 50 850 207 850 400 c 0
 850 593 693 750 500 750 c 0
 307 750 150 593 150 400 c 0
 150 207 307 50 500 50 c 0
EndSplineSet
Substitution2: "'ss01' Add Cartouche Lines-1" tenpoTok.cart
Substitution2: "'ss02' Add Container Lines-1" tenpoTok.cont
EndChar

StartChar: tokiTok
Encoding: 108 989548 108
Width: 1000
VWidth: 950
Flags: HW
HStem: 0 100<409.912 590.088> 500 100<409.912 590.088> 650 200<458.438 541.562>
VStem: 200 100<209.912 390.088> 450 100<658.438 841.562> 700 100<209.912 390.088>
CounterMasks: 1 1c
LayerCount: 2
Fore
SplineSet
749.814453125 782.888671875 m 0
 778.944335938 782.888671875 799.888671875 758.81640625 799.888671875 733.407226562 c 0
 799.888671875 724.77734375 797.666992188 716 793 708 c 2
 793 708 743 621 743 621 c 2
 733.666992188 605 717.22265625 596.111328125 700.185546875 596.111328125 c 0
 670.969726562 596.111328125 650.111328125 621.005859375 650.111328125 645.814453125 c 0
 650.111328125 654.333007812 652.333007812 663 657 671 c 2
 657 671 707 758 707 758 c 2
 716.333007812 774 732.77734375 782.888671875 749.814453125 782.888671875 c 0
200.111328125 733.407226562 m 0
 200.111328125 758.81640625 221.025390625 782.888671875 250.185546875 782.888671875 c 0
 267.22265625 782.888671875 283.666992188 774 293 758 c 2
 293 758 343 671 343 671 c 2
 347.666992188 663 349.888671875 654.333007812 349.888671875 645.814453125 c 0
 349.888671875 621.00390625 329.061523438 596.111328125 299.814453125 596.111328125 c 0
 282.77734375 596.111328125 266.333007812 605 257 621 c 2
 257 621 207 708 207 708 c 2
 202.333007812 716 200.111328125 724.77734375 200.111328125 733.407226562 c 0
500 850 m 0
 528 850 550 828 550 800 c 2
 550 800 550 700 550 700 c 2
 550 672 528 650 500 650 c 0
 472 650 450 672 450 700 c 2
 450 700 450 800 450 800 c 2
 450 828 472 850 500 850 c 0
200 300 m 0
 200 466 334 600 500 600 c 0
 666 600 800 466 800 300 c 0
 800 134 666 0 500 0 c 0
 334 0 200 134 200 300 c 0
500 500 m 0
 390 500 300 410 300 300 c 0
 300 190 390 100 500 100 c 0
 610 100 700 190 700 300 c 0
 700 410 610 500 500 500 c 0
EndSplineSet
Substitution2: "'ss01' Add Cartouche Lines-1" tokiTok.cart
Substitution2: "'ss02' Add Container Lines-1" tokiTok.cont
EndChar

StartChar: tomoTok
Encoding: 109 989549 109
Width: 1000
VWidth: 950
Flags: HW
HStem: -50 100<150 850>
VStem: 50 100<50 475> 850 100<50 475>
LayerCount: 2
Fore
SplineSet
150 475 m 1
 150 475 150 50 150 50 c 1
 150 50 850 50 850 50 c 1
 850 50 850 475 850 475 c 1
 850 475 500 738 500 738 c 1
 150 475 l 1
470 840 m 2
 479 846.5 489.5 849.75 500 849.75 c 0
 510.5 849.75 521 846.5 530 840 c 2
 530 840 930 540 930 540 c 2
 943 531 950 516 950 500 c 2
 950 500 950 0 950 0 c 2
 950 -28 928 -50 900 -50 c 2
 900 -50 100 -50 100 -50 c 2
 72 -50 50 -28 50 0 c 2
 50 0 50 500 50 500 c 2
 50 516 57 531 70 540 c 2
 470 840 l 2
EndSplineSet
Substitution2: "'ss01' Add Cartouche Lines-1" tomoTok.cart
Substitution2: "'ss02' Add Container Lines-1" tomoTok.cont
EndChar

StartChar: tuTok
Encoding: 110 989550 110
Width: 1000
VWidth: 950
Flags: HW
VStem: 200 100<-41.5625 841.562> 700 100<-41.5625 841.562>
LayerCount: 2
Fore
SplineSet
250 -50 m 0
 222 -50 200 -28 200 0 c 2
 200 0 200 800 200 800 c 2
 200 828 222 850 250 850 c 0
 278 850 300 828 300 800 c 2
 300 800 300 0 300 0 c 2
 300 -28 278 -50 250 -50 c 0
750 -50 m 0
 722 -50 700 -28 700 0 c 2
 700 0 700 800 700 800 c 2
 700 828 722 850 750 850 c 0
 778 850 800 828 800 800 c 2
 800 800 800 0 800 0 c 2
 800 -28 778 -50 750 -50 c 0
EndSplineSet
Substitution2: "'ss01' Add Cartouche Lines-1" tuTok.cart
Substitution2: "'ss02' Add Container Lines-1" tuTok.cont
EndChar

StartChar: unpaTok
Encoding: 111 989551 111
Width: 1000
VWidth: 950
Flags: HW
HStem: -18 100<407.892 592.52> 275 100<378.993 622.002> 718.237 99.8398<226.676 379.646 620.646 773.324>
VStem: 49.8477 100.218<486.983 630.608> 243 100<149.832 286.484> 658 100<149.781 286.597> 849.935 100.218<485.964 630.608>
LayerCount: 2
Fore
SplineSet
279 406 m 1
 314.946289062 499.0390625 371.864257812 593.510742188 431 666 c 1
 422 673 414 679 406 683 c 0
 364.943359375 707.4765625 327.626953125 718.237304688 296.01953125 718.237304688 c 0
 287.594726562 718.237304688 279.576171875 717.47265625 272 716 c 0
 238 710 205 688 176 639 c 0
 157.684570312 606.29296875 150.065429688 578.29296875 150.065429688 553.600585938 c 0
 150.065429688 540.544921875 152.1953125 528.413085938 156 517 c 0
 168.297851562 480.107421875 218.46875 426.176757812 279 406 c 1
570 666 m 1
 629.1484375 593.495117188 685.965820312 499.263671875 722 406 c 1
 734 411 744 415 752 420 c 0
 804 450 833 484 844 517 c 0
 847.8046875 528.413085938 849.934570312 540.544921875 849.934570312 553.600585938 c 0
 849.934570312 578.29296875 842.315429688 606.29296875 824 639 c 0
 795 688 762 710 728 716 c 0
 720.423828125 717.47265625 712.44921875 718.237304688 704.084960938 718.237304688 c 0
 672.705078125 718.237304688 635.846679688 707.4765625 594 683 c 0
 587 679 579 673 570 666 c 1
624 383 m 1
 592.275390625 457.024414062 547.176757812 534.500976562 500 593 c 1
 454.34765625 534.032226562 408.576171875 456.676757812 377 383 c 1
 416 378 458 375 500 375 c 0
 543 375 585 378 624 383 c 1
500 738 m 1
 549.62890625 781.01171875 631.921875 818.077148438 703.109375 818.077148438 c 0
 717.46484375 818.077148438 731.77734375 816.759765625 746 814 c 0
 814 802 870 758 910 689 c 0
 936.385742188 644.14453125 950.15234375 598.41796875 950.15234375 553.831054688 c 0
 950.15234375 530.825195312 946.487304688 508.123046875 939 486 c 0
 917 422 867 371 802 333 c 0
 787 324 770 317 751 311 c 1
 756 290 758 270 758 251 c 0
 758 175 738 106 692 56 c 0
 645 6 579 -18 500 -18 c 0
 422 -18 355 6 309 57 c 0
 263 106 243 175 243 251 c 0
 243 270 245 290 249 310 c 1
 161.663085938 343.963867188 88.47265625 406.081054688 61 486 c 0
 53.5126953125 508.123046875 49.84765625 530.825195312 49.84765625 553.831054688 c 0
 49.84765625 598.41796875 63.6142578125 644.14453125 90 689 c 0
 130 758 186 802 254 814 c 0
 268.22265625 816.759765625 282.580078125 818.077148438 296.997070312 818.077148438 c 0
 367.16796875 818.077148438 452.897460938 781.73828125 500 738 c 1
382 124 m 0
 405 99 442 82 500 82 c 0
 558 82 595 99 619 124 c 0
 642 150 658 191 658 251 c 0
 658 261 657 273 654 287 c 1
 606 279 553 275 500 275 c 0
 448 275 395 279 347 287 c 1
 344 273 343 261 343 251 c 0
 343 191 359 150 382 124 c 0
EndSplineSet
Substitution2: "'ss01' Add Cartouche Lines-1" unpaTok.cart
Substitution2: "'ss02' Add Container Lines-1" unpaTok.cont
EndChar

StartChar: utaTok
Encoding: 112 989552 112
Width: 1000
VWidth: 950
Flags: HW
HStem: 50 150<448.417 551.583> 250 100<384.879 615.121> 650 100<154 846>
VStem: 425 150<73.4173 176.583>
LayerCount: 2
Fore
SplineSet
575 125 m 0
 575 84 541 50 500 50 c 0
 459 50 425 84 425 125 c 0
 425 166 459 200 500 200 c 0
 541 200 575 166 575 125 c 0
154 650 m 1
 178 480 324 350 500 350 c 0
 676 350 822 480 846 650 c 1
 154 650 l 1
50 700 m 0
 50 728 72 750 100 750 c 2
 100 750 900 750 900 750 c 2
 928 750 950 728 950 700 c 0
 950 451 749 250 500 250 c 0
 251 250 50 451 50 700 c 0
EndSplineSet
Substitution2: "'ss01' Add Cartouche Lines-1" utaTok.cart
Substitution2: "'ss02' Add Container Lines-1" utaTok.cont
EndChar

StartChar: utalaTok
Encoding: 113 989553 113
Width: 1000
VWidth: 950
Flags: HW
LayerCount: 2
Fore
SplineSet
800.369140625 850.161132812 m 0
 828.474609375 850.161132812 850.161132812 824.970703125 850.161132812 799.630859375 c 0
 850.161132812 789.295898438 846.884765625 778.91015625 840 770 c 2
 840 770 563 400 563 400 c 1
 563 400 783 106 783 106 c 1
 783 106 853 316 853 316 c 2
 859.353515625 336.649414062 878.954101562 349.73046875 899.77734375 349.73046875 c 0
 929.979492188 349.73046875 949.73046875 325.81640625 949.73046875 300.22265625 c 0
 949.73046875 294.827148438 948.8515625 289.350585938 947 284 c 2
 947 284 847 -16 847 -16 c 2
 841.462890625 -34.8271484375 822.900390625 -49.681640625 799.737304688 -49.681640625 c 0
 784.397460938 -49.681640625 769.32421875 -42.71484375 760 -30 c 2
 760 -30 500 317 500 317 c 1
 500 317 240 -30 240 -30 c 2
 230.67578125 -42.71484375 215.602539062 -49.681640625 200.262695312 -49.681640625 c 0
 177.0703125 -49.681640625 158.538085938 -34.830078125 153 -16 c 2
 153 -16 53 284 53 284 c 2
 51.1484375 289.350585938 50.26953125 294.827148438 50.26953125 300.22265625 c 0
 50.26953125 325.818359375 70.0068359375 349.73046875 100.22265625 349.73046875 c 0
 121.045898438 349.73046875 140.646484375 336.649414062 147 316 c 2
 147 316 217 106 217 106 c 1
 217 106 438 400 438 400 c 1
 438 400 160 770 160 770 c 2
 153.115234375 778.91015625 149.838867188 789.295898438 149.838867188 799.630859375 c 0
 149.838867188 824.96875 171.504882812 850.161132812 199.630859375 850.161132812 c 0
 214.813476562 850.161132812 229.884765625 843.08984375 240 830 c 2
 240 830 500 483 500 483 c 1
 500 483 760 830 760 830 c 2
 770.115234375 843.08984375 785.186523438 850.161132812 800.369140625 850.161132812 c 0
EndSplineSet
Substitution2: "'ss01' Add Cartouche Lines-1" utalaTok.cart
Substitution2: "'ss02' Add Container Lines-1" utalaTok.cont
EndChar

StartChar: waloTok
Encoding: 114 989554 114
Width: 1000
VWidth: 950
Flags: HW
HStem: 0 100<197 803>
LayerCount: 2
Fore
SplineSet
649 368 m 1
 649 368 500 625 500 625 c 1
 500 625 350 366 350 366 c 1
 350 364 349 363 348 362 c 0
 348 361 347 359 346 358 c 2
 346 358 197 100 197 100 c 1
 197 100 803 100 803 100 c 1
 803 100 655 356 655 356 c 2
 653.465820312 359.068359375 649 363.444335938 649 368 c 1
50.111328125 504.592773438 m 0
 50.111328125 533.883789062 74.05078125 554.888671875 99.5927734375 554.888671875 c 0
 108.22265625 554.888671875 117 552.666992188 125 548 c 2
 125 548 287 455 287 455 c 1
 287 455 457 750 457 750 c 2
 466 765 482 775 500 775 c 0
 518 775 534 765 543 750 c 2
 543 750 713 455 713 455 c 1
 713 455 875 548 875 548 c 2
 883 552.666992188 891.666992188 554.888671875 900.185546875 554.888671875 c 0
 925.129882812 554.888671875 949.888671875 534.000976562 949.888671875 504.592773438 c 0
 949.888671875 487.333007812 941 470.666992188 925 462 c 2
 925 462 763 369 763 369 c 1
 763 369 933 75 933 75 c 2
 937.5 67.5 939.75 58.75 939.75 50 c 0
 939.75 21.1142578125 915.727539062 0 890 0 c 2
 890 0 110 0 110 0 c 2
 84.2666015625 0 60.25 21.1005859375 60.25 50 c 0
 60.25 58.75 62.5 67.5 67 75 c 2
 67 75 237 369 237 369 c 1
 237 369 75 462 75 462 c 2
 59 470.666992188 50.111328125 487.333007812 50.111328125 504.592773438 c 0
EndSplineSet
Substitution2: "'ss01' Add Cartouche Lines-1" waloTok.cart
Substitution2: "'ss02' Add Container Lines-1" waloTok.cont
EndChar

StartChar: wanTok
Encoding: 115 989555 115
Width: 1000
VWidth: 950
Flags: HW
VStem: 550 100<-41.5625 679>
LayerCount: 2
Fore
SplineSet
599.390625 850.038085938 m 0
 629.4609375 850.038085938 650 825.353515625 650 800 c 2
 650 800 650 0 650 0 c 2
 650 -28 628 -50 600 -50 c 0
 572 -50 550 -28 550 0 c 2
 550 0 550 679 550 679 c 1
 550 679 385 515 385 515 c 2
 375.5 505 362.75 500 350 500 c 0
 323.591796875 500 300 523.58203125 300 550 c 0
 300 562.75 305 575.5 315 585 c 2
 315 585 565 835 565 835 c 2
 574.266601562 844.928710938 586.600585938 850.038085938 599.390625 850.038085938 c 0
EndSplineSet
Substitution2: "'ss01' Add Cartouche Lines-1" wanTok.cart
Substitution2: "'ss02' Add Container Lines-1" wanTok.cont
EndChar

StartChar: wasoTok
Encoding: 116 989556 116
Width: 1000
VWidth: 950
Flags: HW
HStem: -50 300<208.438 291.562> 150 100<300 750> 300 150<203.417 306.583 453.417 556.583>
VStem: 180 150<323.417 426.583> 200 100<-41.5625 150> 430 150<323.417 426.583>
LayerCount: 2
Fore
SplineSet
330 375 m 0
 330 334 296 300 255 300 c 0
 214 300 180 334 180 375 c 0
 180 416 214 450 255 450 c 0
 296 450 330 416 330 375 c 0
580 375 m 0
 580 334 546 300 505 300 c 0
 464 300 430 334 430 375 c 0
 430 416 464 450 505 450 c 0
 546 450 580 416 580 375 c 0
349.838867188 799.630859375 m 0
 349.838867188 824.96875 371.504882812 850.161132812 399.630859375 850.161132812 c 0
 414.813476562 850.161132812 429.884765625 843.08984375 440 830 c 2
 440 830 890 230 890 230 c 2
 896.5078125 221.125 899.866210938 210.5 899.866210938 199.78125 c 0
 899.866210938 170.150390625 875.102539062 150 850 150 c 2
 850 150 300 150 300 150 c 1
 300 150 300 0 300 0 c 2
 300 -28 278 -50 250 -50 c 0
 222 -50 200 -28 200 0 c 2
 200 0 200 200 200 200 c 2
 200 228 222 250 250 250 c 2
 250 250 750 250 750 250 c 1
 750 250 360 770 360 770 c 2
 353.115234375 778.91015625 349.838867188 789.295898438 349.838867188 799.630859375 c 0
EndSplineSet
Substitution2: "'ss01' Add Cartouche Lines-1" wasoTok.cart
Substitution2: "'ss02' Add Container Lines-1" wasoTok.cont
EndChar

StartChar: wawaTok
Encoding: 117 989557 117
Width: 1000
VWidth: 950
Flags: HW
HStem: 0 100<409.912 590.088> 500 100<409.912 590.088>
VStem: 200 100<209.912 390.088> 700 100<209.912 390.088>
LayerCount: 2
Fore
SplineSet
95 700 m 0
 121 700 147 681 150 655 c 2
 150 655 200 105 200 105 c 2
 200.092773438 103.70703125 200.137695312 102.421875 200.137695312 101.1484375 c 0
 200.137695312 74.828125 180.752929688 52.861328125 155 50 c 1
 151 50 l 2
 125 50 103 69 100 95 c 2
 100 95 50 645 50 645 c 2
 49.9072265625 646.29296875 49.8623046875 647.578125 49.8623046875 648.8515625 c 0
 49.8623046875 675.171875 69.2470703125 697.138671875 95 700 c 0
950 645 m 2
 950 645 900 95 900 95 c 2
 897 69 875 50 849 50 c 0
 823.056640625 52.8828125 799.8828125 75.1533203125 799.8828125 101.731445312 c 0
 799.8828125 102.814453125 799.921875 103.904296875 800 105 c 2
 800 105 850 655 850 655 c 2
 853 681 875 700 901 700 c 0
 926.943359375 697.1171875 950.1171875 674.846679688 950.1171875 648.268554688 c 0
 950.1171875 647.185546875 950.078125 646.095703125 950 645 c 2
200 300 m 0
 200 466 334 600 500 600 c 0
 666 600 800 466 800 300 c 0
 800 134 666 0 500 0 c 0
 334 0 200 134 200 300 c 0
500 500 m 0
 390 500 300 410 300 300 c 0
 300 190 390 100 500 100 c 0
 610 100 700 190 700 300 c 0
 700 410 610 500 500 500 c 0
EndSplineSet
Substitution2: "'ss01' Add Cartouche Lines-1" wawaTok.cart
Substitution2: "'ss02' Add Container Lines-1" wawaTok.cont
EndChar

StartChar: wekaTok
Encoding: 118 989558 118
Width: 1000
VWidth: 950
Flags: HW
LayerCount: 2
Fore
SplineSet
650 500 m 0
 623.591796875 500 600 523.58203125 600 550 c 0
 600 562.75 605 575.5 615 585 c 2
 615 585 865 835 865 835 c 2
 874.5 845 887.25 850 900 850 c 0
 926.408203125 850 950 826.41796875 950 800 c 0
 950 787.25 945 774.5 935 765 c 2
 935 765 685 515 685 515 c 2
 675.5 505 662.75 500 650 500 c 0
100 -50 m 0
 73.591796875 -50 50 -26.41796875 50 0 c 0
 50 12.75 55 25.5 65 35 c 2
 65 35 340 310 340 310 c 2
 349.5 320 362.25 325 375 325 c 0
 401.408203125 325 425 301.41796875 425 275 c 0
 425 262.25 420 249.5 410 240 c 2
 410 240 135 -35 135 -35 c 2
 125.5 -45 112.75 -50 100 -50 c 0
600 250 m 0
 600 276.408203125 623.58203125 300 650 300 c 0
 662.75 300 675.5 295 685 285 c 2
 685 285 935 35 935 35 c 2
 945 25.5 950 12.75 950 0 c 0
 950 -26.408203125 926.41796875 -50 900 -50 c 0
 887.25 -50 874.5 -45 865 -35 c 2
 865 -35 615 215 615 215 c 2
 605 224.5 600 237.25 600 250 c 0
50 800 m 0
 50 826.408203125 73.58203125 850 100 850 c 0
 112.75 850 125.5 845 135 835 c 2
 135 835 410 560 410 560 c 2
 420 550.5 425 537.75 425 525 c 0
 425 498.591796875 401.41796875 475 375 475 c 0
 362.25 475 349.5 480 340 490 c 2
 340 490 65 765 65 765 c 2
 55 774.5 50 787.25 50 800 c 0
EndSplineSet
Substitution2: "'ss01' Add Cartouche Lines-1" wekaTok.cart
EndChar

StartChar: wileTok
Encoding: 119 989559 119
Width: 1000
VWidth: 950
Flags: HW
HStem: -50 100<231.457 377.38 622.655 768.35>
VStem: 50 100<173.172 503.359> 450 100.001<122.22 240.883> 850 100<168.571 503.391>
LayerCount: 2
Fore
SplineSet
249.978515625 750.000976562 m 0
 276.25920312 750.000976562 300 727.588736163 300 700.01953125 c 0
 300 686.088867188 294.2109375 672.231445312 282.896484375 662.345703125 c 0
 231.620117188 617.548828125 199.243164062 573.286132812 179.19140625 524.924804688 c 0
 158.98828125 476.198242188 150 420 150 350 c 0
 150 237.126042683 168.940215453 122.108057862 231 71 c 0
 249 58 270 50 300 50 c 0
 383 50 450 117 450 200 c 0
 450 228 472 250 500 250 c 0
 528 250 550.000976562 227.614257812 550.000976562 200 c 0
 550.000976562 117.157226562 617.158203125 50 700.000976562 50 c 0
 729.696289062 50 751.481445312 58.2890625 768.598632812 71.228515625 c 0
 832.11505582 119.248188476 850 238.413572131 850 350 c 0
 850 420.184570312 841.01171875 476.198242188 820.80859375 524.924804688 c 0
 800.756835938 573.286132812 768.379882812 617.548828125 717.103515625 662.345703125 c 0
 705.7890625 672.231445312 700 686.088867188 700 700.01953125 c 0
 700 727.5707727 723.731969742 750.000976562 750.021484375 750.000976562 c 0
 761.693359375 750.000976562 773.416992188 745.936523438 782.8984375 737.654296875 c 0
 889.670646048 644.370948144 950 534.474607903 950 350 c 0
 950 264.458007812 939.912109375 168.584960938 905.606445312 92.2529296875 c 0
 871.846340935 17.1430490308 806.212500024 -50 700.000976562 -50 c 0
 618.220703125 -50 545.611328125 -10.732421875 500 49.9765625 c 1
 454.388671875 -10.732421875 381.779296875 -50 299.999023438 -50 c 0
 193.826445585 -50 128.146100746 17.1598648699 94.3935546875 92.2529296875 c 0
 60.087890625 168.584960938 50 264.458007812 50 350 c 0
 50 534.311328609 110.426751093 644.456040806 217.1015625 737.654296875 c 0
 226.583007812 745.936523438 238.306640625 750.000976562 249.978515625 750.000976562 c 0
EndSplineSet
Substitution2: "'ss01' Add Cartouche Lines-1" wileTok.cart
Substitution2: "'ss02' Add Container Lines-1" wileTok.cont
EndChar

StartChar: namakoTok
Encoding: 120 989560 120
Width: 1000
VWidth: 950
Flags: HW
HStem: 350 100<58.4375 391.562 608.438 941.562>
VStem: 450 100<-41.5625 291.562 508.438 841.562>
LayerCount: 2
Fore
SplineSet
50 400 m 0
 50 428 72 450 100 450 c 2
 100 450 350 450 350 450 c 2
 378 450 400 428 400 400 c 0
 400 372 378 350 350 350 c 2
 350 350 100 350 100 350 c 2
 72 350 50 372 50 400 c 0
500 300 m 0
 528 300 550 278 550 250 c 2
 550 250 550 0 550 0 c 2
 550 -28 528 -50 500 -50 c 0
 472 -50 450 -28 450 0 c 2
 450 0 450 250 450 250 c 2
 450 278 472 300 500 300 c 0
500 850 m 0
 528 850 550 828 550 800 c 2
 550 800 550 550 550 550 c 2
 550 522 528 500 500 500 c 0
 472 500 450 522 450 550 c 2
 450 550 450 800 450 800 c 2
 450 828 472 850 500 850 c 0
600 400 m 0
 600 428 622 450 650 450 c 2
 650 450 900 450 900 450 c 2
 928 450 950 428 950 400 c 0
 950 372 928 350 900 350 c 2
 900 350 650 350 650 350 c 2
 622 350 600 372 600 400 c 0
EndSplineSet
Substitution2: "'ss01' Add Cartouche Lines-1" namakoTok.cart
Substitution2: "'ss02' Add Container Lines-1" namakoTok.cont
EndChar

StartChar: kinTok
Encoding: 121 989561 121
Width: 1000
VWidth: 950
Flags: HW
VStem: 450 100<-41.5625 63 237 341.562 408.438 841.562>
LayerCount: 2
Fore
SplineSet
320.111328125 224.814453125 m 0
 320.111328125 254.030273438 345.005859375 274.888671875 369.814453125 274.888671875 c 0
 378.333007812 274.888671875 387 272.666992188 395 268 c 2
 395 268 450 237 450 237 c 1
 450 237 450 300 450 300 c 2
 450 328 472 350 500 350 c 0
 528 350 550 328 550 300 c 2
 550 300 550 237 550 237 c 1
 550 237 605 268 605 268 c 2
 613 272.666992188 621.666992188 274.888671875 630.185546875 274.888671875 c 0
 654.99609375 274.888671875 679.888671875 254.061523438 679.888671875 224.814453125 c 0
 679.888671875 207.77734375 671 191.333007812 655 182 c 2
 655 182 600 150 600 150 c 1
 600 150 655 118 655 118 c 2
 671 108.666992188 679.888671875 92.22265625 679.888671875 75.185546875 c 0
 679.888671875 45.9697265625 654.994140625 25.111328125 630.185546875 25.111328125 c 0
 621.666992188 25.111328125 613 27.3330078125 605 32 c 2
 605 32 550 63 550 63 c 1
 550 63 550 0 550 0 c 2
 550 -28 528 -50 500 -50 c 0
 472 -50 450 -28 450 0 c 2
 450 0 450 63 450 63 c 1
 450 63 395 32 395 32 c 2
 387 27.3330078125 378.333007812 25.111328125 369.814453125 25.111328125 c 0
 345.00390625 25.111328125 320.111328125 45.9384765625 320.111328125 75.185546875 c 0
 320.111328125 92.22265625 329 108.666992188 345 118 c 2
 345 118 400 150 400 150 c 1
 400 150 345 182 345 182 c 2
 329 191.333007812 320.111328125 207.77734375 320.111328125 224.814453125 c 0
550 800 m 2
 550 800 550 450 550 450 c 2
 550 422 528 400 500 400 c 0
 472 400 450 422 450 450 c 2
 450 450 450 800 450 800 c 2
 450 828 472 850 500 850 c 0
 528 850 550 828 550 800 c 2
EndSplineSet
Substitution2: "'ss01' Add Cartouche Lines-1" kinTok.cart
Substitution2: "'ss02' Add Container Lines-1" kinTok.cont
EndChar

StartChar: okoTok
Encoding: 122 989562 122
Width: 1000
VWidth: 950
Flags: HW
HStem: 125 100<370.405 629.595> 300 200<438.358 561.642> 575 100<370.405 629.595>
VStem: 400 200<338.358 461.642>
CounterMasks: 1 e0
LayerCount: 2
Fore
SplineSet
831 400 m 1
 759 506 637 575 500 575 c 0
 363 575 241 506 169 400 c 1
 241 294 363 225 500 225 c 0
 637 225 759 294 831 400 c 1
880 500 m 1
 881 499 l 1
 906 469 929 436 947 400 c 1
 928 364 906 330 880 300 c 0
 788 193 652 125 500 125 c 0
 348 125 212 193 120 300 c 0
 94 330 72 364 53 400 c 1
 72 436 94 470 120 500 c 0
 212 607 348 675 500 675 c 0
 652 675 788 607 880 500 c 1
600 400 m 0
 600 345 555 300 500 300 c 0
 445 300 400 345 400 400 c 0
 400 455 445 500 500 500 c 0
 555 500 600 455 600 400 c 0
EndSplineSet
Substitution2: "'ss01' Add Cartouche Lines-1" okoTok.cart
Substitution2: "'ss02' Add Container Lines-1" okoTok.cont
EndChar

StartChar: kipisiTok
Encoding: 123 989563 123
Width: 1000
VWidth: 950
Flags: HW
HStem: 50 200<688.358 811.642> 550 200<187.358 310.642>
VStem: 149 200<588.358 711.642> 650 200<88.3579 211.642>
LayerCount: 2
Fore
SplineSet
850 150 m 0
 850 95 805 50 750 50 c 0
 695 50 650 95 650 150 c 0
 650 205 695 250 750 250 c 0
 805 250 850 205 850 150 c 0
349 650 m 0
 349 595 304 550 249 550 c 0
 194 550 149 595 149 650 c 0
 149 705 194 750 249 750 c 0
 304 750 349 705 349 650 c 0
800 750 m 0
 826.408203125 750 850 726.41796875 850 700 c 0
 850 687.25 845 674.5 835 665 c 2
 835 665 235 65 235 65 c 2
 225.5 55 212.75 50 200 50 c 0
 173.591796875 50 150 73.58203125 150 100 c 0
 150 112.75 155 125.5 165 135 c 2
 165 135 765 735 765 735 c 2
 774.5 745 787.25 750 800 750 c 0
EndSplineSet
Substitution2: "'ss01' Add Cartouche Lines-1" kipisiTok.cart
Substitution2: "'ss02' Add Container Lines-1" kipisiTok.cont
EndChar

StartChar: lekoTok
Encoding: 124 989564 124
Width: 1000
VWidth: 950
Flags: HW
HStem: -50 100<150 850> 150 100<350 650> 550 100<350 650> 750 100<150 850>
VStem: 50 100<50 750> 250 100<250 550> 650 100<250 550> 850 100<50 750>
LayerCount: 2
Fore
SplineSet
350 550 m 1
 350 550 350 250 350 250 c 1
 350 250 650 250 650 250 c 1
 650 250 650 550 650 550 c 1
 350 550 l 1
250 600 m 2
 250 628 272 650 300 650 c 2
 300 650 700 650 700 650 c 2
 728 650 750 628 750 600 c 2
 750 600 750 200 750 200 c 2
 750 172 728 150 700 150 c 2
 700 150 300 150 300 150 c 2
 272 150 250 172 250 200 c 2
 250 600 l 2
150 750 m 1
 150 750 150 50 150 50 c 1
 150 50 850 50 850 50 c 1
 850 50 850 750 850 750 c 1
 150 750 l 1
50 800 m 2
 50 828 72 850 100 850 c 2
 100 850 900 850 900 850 c 2
 928 850 950 828 950 800 c 2
 950 800 950 0 950 0 c 2
 950 -28 928 -50 900 -50 c 2
 900 -50 100 -50 100 -50 c 2
 72 -50 50 -28 50 0 c 2
 50 800 l 2
EndSplineSet
Substitution2: "'ss01' Add Cartouche Lines-1" lekoTok.cart
Substitution2: "'ss02' Add Container Lines-1" lekoTok.cont
EndChar

StartChar: monsutaTok
Encoding: 125 989565 125
Width: 1000
VWidth: 950
Flags: HW
LayerCount: 2
Fore
SplineSet
949.939453125 351.747070312 m 0
 949.939453125 326.57421875 930.193359375 302.490234375 900.259765625 302.490234375 c 0
 880.294921875 302.490234375 861.625 314.17578125 854 334 c 2
 854 334 838 371 838 371 c 1
 838 371 793 257 793 257 c 2
 785 238 766 226 746 226 c 0
 725 226 707 239 699 258 c 2
 699 258 628 446 628 446 c 1
 628 446 548 185 548 185 c 2
 541 164 522 150 500 150 c 0
 478 150 459 164 452 185 c 2
 452 185 372 446 372 446 c 1
 372 446 301 258 301 258 c 2
 293 239 275 226 254 226 c 0
 234 226 215 238 207 257 c 2
 207 257 162 371 162 371 c 1
 162 371 146 334 146 334 c 2
 138.375 314.17578125 119.705078125 302.490234375 99.740234375 302.490234375 c 0
 69.830078125 302.490234375 50.060546875 326.577148438 50.060546875 351.747070312 c 0
 50.060546875 358.129882812 51.3154296875 364.654296875 54 371 c 2
 54 371 115 523 115 523 c 2
 123 542 141 555 162 555 c 0
 182 555 200 542 208 523 c 2
 208 523 252 413 252 413 c 1
 252 413 330 618 330 618 c 2
 337.711914062 637.279296875 355.64453125 650.053710938 376.633789062 650.053710938 c 0
 399.288085938 650.053710938 417.830078125 635.486328125 425 615 c 2
 425 615 500 370 500 370 c 1
 500 370 575 615 575 615 c 2
 582.169921875 635.486328125 600.716796875 650.053710938 623.366210938 650.053710938 c 0
 644.35546875 650.053710938 662.288085938 637.279296875 670 618 c 2
 670 618 748 413 748 413 c 1
 748 413 792 523 792 523 c 2
 800 542 818 555 838 555 c 0
 859 555 877 542 885 523 c 2
 885 523 946 371 946 371 c 2
 948.684570312 364.654296875 949.939453125 358.129882812 949.939453125 351.747070312 c 0
EndSplineSet
Substitution2: "'ss01' Add Cartouche Lines-1" monsutaTok.cart
Substitution2: "'ss02' Add Container Lines-1" monsutaTok.cont
EndChar

StartChar: tonsiTok
Encoding: 126 989566 126
Width: 1000
VWidth: 950
Flags: HW
HStem: 214 96<411.02 450 550 588.98> 710 100<411.513 588.736>
VStem: 200 100<421.092 600.721> 450 100<6.4375 218.02> 700 100<421.092 600.721>
CounterMasks: 1 38
LayerCount: 2
Fore
SplineSet
500 310 m 0
 611 310 700 400 700 510 c 0
 700 546 691 579 674 609 c 1
 674 609 674 610 673 610 c 1
 673 610 673 611 673 611 c 1
 638 670 574 710 500 710 c 0
 427 710 362 670 328 611 c 0
 327 611 327 610 327 610 c 1
 327 610 326 609 326 609 c 1
 310 579 300 546 300 510 c 0
 300 400 390 310 500 310 c 0
50.111328125 740.814453125 m 0
 50.111328125 770.030273438 75.005859375 790.888671875 99.814453125 790.888671875 c 0
 108.333007812 790.888671875 117 788.666992188 125 784 c 2
 125 784 269 701 269 701 c 1
 324 768 407 810 500 810 c 0
 593 810 676 768 731 701 c 1
 731 701 875 784 875 784 c 2
 883 788.666992188 891.77734375 790.888671875 900.444335938 790.888671875 c 0
 925.419921875 790.888671875 950.192382812 771.268554688 950.192382812 741.6953125 c 0
 950.192382812 724.345703125 941.275390625 707.494140625 925 698 c 2
 925 698 781 615 781 615 c 1
 793 582 800 547 800 510 c 0
 800 361 692 238 550 214 c 1
 550 214 550 48 550 48 c 2
 550 20 528 -2 500 -2 c 0
 472 -2 450 20 450 48 c 2
 450 48 450 214 450 214 c 1
 308 238 200 361 200 510 c 0
 200 547 207 582 219 615 c 1
 219 615 75 698 75 698 c 2
 59 707.333007812 50.111328125 723.77734375 50.111328125 740.814453125 c 0
EndSplineSet
Substitution2: "'ss01' Add Cartouche Lines-1" tonsiTok.cart
Substitution2: "'ss02' Add Container Lines-1" tonsiTok.cont
EndChar

StartChar: jasimaTok
Encoding: 127 989567 127
Width: 1000
VWidth: 950
Flags: HW
HStem: 0.238281 107.064<617.815 772.517> 292.697 106.823<227.524 381.567> 400.238 107.064<617.815 772.517> 692.697 106.823<227.524 381.567>
VStem: 50.2529 99.6875<37.5613 208.945 437.561 608.945> 65 96.8438<9.04999 125.849 409.05 525.849> 450 100<-41.5625 48 172.08 227.92 352 448 572.08 627.92 752 841.562> 838.166 96.834<274.151 390.877 674.151 790.877> 850.06 99.6777<191.015 362.392 591.015 762.392>
LayerCount: 2
Fore
SplineSet
161.84375 452.97265625 m 0
 161.84375 426.849609375 143.21484375 399.896484375 112.384765625 399.896484375 c 0
 91.669921875 399.896484375 72.1044921875 413.8984375 65 436 c 0
 55.001953125 466.208007812 50.2529296875 497.048828125 50.2529296875 527.368164062 c 0
 50.2529296875 639.57421875 115.29296875 744.63671875 220 784 c 0
 248.091796875 794.534179688 276.799804688 799.520507812 305.041992188 799.520507812 c 0
 357.228515625 799.520507812 407.82421875 782.49609375 450 752 c 1
 450 752 450 800 450 800 c 2
 450 828 472 850 500 850 c 0
 528 850 550 828 550 800 c 2
 550 800 550 610 550 610 c 1
 574.200195312 546.768554688 631.916992188 507.302734375 693.655273438 507.302734375 c 0
 790.00390625 507.302734375 850.059570312 590.658203125 850.059570312 673.28515625 c 0
 850.059570312 691.751953125 847.1484375 710.555664062 841 729 c 0
 839.084960938 734.958007812 838.166015625 741.005859375 838.166015625 746.932617188 c 0
 838.166015625 772.875 857.25 800.103515625 888.500976562 800.103515625 c 0
 908.953125 800.103515625 927.895507812 786.1015625 935 764 c 0
 944.98828125 733.823242188 949.737304688 703.013671875 949.737304688 672.723632812 c 0
 949.737304688 560.482421875 884.5234375 455.374023438 779 416 c 0
 750.935546875 405.342773438 722.11328125 400.23828125 693.69921875 400.23828125 c 0
 642.131835938 400.23828125 591.909179688 417.051757812 550 448 c 1
 550 448 550 210 550 210 c 1
 574.200195312 146.768554688 631.916992188 107.302734375 693.655273438 107.302734375 c 0
 790.00390625 107.302734375 850.059570312 190.658203125 850.059570312 273.28515625 c 0
 850.059570312 291.751953125 847.1484375 310.555664062 841 329 c 0
 839.084960938 334.958007812 838.166015625 341.005859375 838.166015625 346.932617188 c 0
 838.166015625 372.875 857.25 400.103515625 888.500976562 400.103515625 c 0
 908.953125 400.103515625 927.895507812 386.1015625 935 364 c 0
 944.98828125 333.823242188 949.737304688 303.013671875 949.737304688 272.723632812 c 0
 949.737304688 160.482421875 884.5234375 55.3740234375 779 16 c 0
 750.935546875 5.3427734375 722.11328125 0.23828125 693.69921875 0.23828125 c 0
 642.131835938 0.23828125 591.909179688 17.0517578125 550 48 c 1
 550 48 550 0 550 0 c 2
 550 -28 528 -50 500 -50 c 0
 472 -50 450 -28 450 0 c 2
 450 0 450 190 450 190 c 1
 425.01953125 253.231445312 367.131835938 292.697265625 305.831054688 292.697265625 c 0
 209.823242188 292.697265625 149.940429688 209.013671875 149.940429688 126.71484375 c 0
 149.940429688 108.248046875 152.8515625 89.4443359375 159 71 c 0
 160.924804688 65.0107421875 161.84375 58.9296875 161.84375 52.97265625 c 0
 161.84375 26.849609375 143.21484375 -0.103515625 112.384765625 -0.103515625 c 0
 91.669921875 -0.103515625 72.1044921875 13.8984375 65 36 c 0
 55.001953125 66.2080078125 50.2529296875 97.048828125 50.2529296875 127.368164062 c 0
 50.2529296875 239.57421875 115.29296875 344.63671875 220 384 c 0
 248.091796875 394.534179688 276.799804688 399.520507812 305.041992188 399.520507812 c 0
 357.228515625 399.520507812 407.82421875 382.49609375 450 352 c 1
 450 352 450 590 450 590 c 1
 425.01953125 653.231445312 367.131835938 692.697265625 305.831054688 692.697265625 c 0
 209.823242188 692.697265625 149.940429688 609.013671875 149.940429688 526.71484375 c 0
 149.940429688 508.248046875 152.8515625 489.444335938 159 471 c 0
 160.924804688 465.010742188 161.84375 458.9296875 161.84375 452.97265625 c 0
EndSplineSet
Substitution2: "'ss01' Add Cartouche Lines-1" jasimaTok.cart
EndChar

StartChar: kijetesantakaluTok
Encoding: 128 989568 128
Width: 1000
VWidth: 950
Flags: HW
HStem: -50 222<594.393 665.607> -50 100<280 320 400 461> 450 100<508.438 591.562 664.701 747.562>
VStem: 50 100<69.0167 224.858> 200 80<52 258> 320 80<50 270> 439.761 98.2393<134.016 191.391> 443 118.444<50.2351 132.999 133 160.159> 500 100<458.438 541.562> 590 80<-45.607 167.607> 641 100<700.425 747.695> 656 100<459.117 540.883> 700 100<-41.5625 337.592> 850 100<473.77 532.997>
LayerCount: 2
Fore
SplineSet
550 450 m 0
 522 450 500 472 500 500 c 0
 500 528 522 550 550 550 c 0
 578 550 600 528 600 500 c 0
 600 472 578 450 550 450 c 0
756 500 m 0
 756 472 734 450 706 450 c 0
 679 450 656 472 656 500 c 0
 656 528 679 550 706 550 c 0
 734 550 756 528 756 500 c 0
670 132 m 2
 670 132 670 -10 670 -10 c 2
 670 -32 652 -50 630 -50 c 0
 608 -50 590 -32 590 -10 c 2
 590 -10 590 132 590 132 c 2
 590 154 608 172 630 172 c 0
 652 172 670 154 670 132 c 2
200 258 m 1
 168.965820312 235.833007812 150 187.658203125 150 133 c 0
 150 104 156 84 166 71 c 0
 171 64 181 56 200 52 c 1
 200 258 l 1
320 50 m 1
 320 50 320 270 320 270 c 1
 314 270 307 269 301 269 c 2
 280 269 l 1
 280 269 280 50 280 50 c 1
 320 50 l 1
741 740 m 2
 741 738 l 2
 741 722 741 709 742 700 c 1
 800 669 848 643 881 619 c 0
 917 593 950 558 950 508 c 0
 950 460 919 421 890 393 c 0
 865 368 833 345 800 323 c 1
 800 323 800 0 800 0 c 2
 800 -28 778 -50 750 -50 c 0
 722 -50 700 -28 700 0 c 2
 700 0 700 377 700 377 c 1
 700 377 723 392 723 392 c 2
 763 418 797 442 820 465 c 0
 846 490 850 503 850 508 c 0
 850 509 850 518 822 538 c 0
 794 559 749 583 683 618 c 0
 644.7578125 639.510742188 641 680.916992188 641 736 c 2
 641 748 l 1
 566 738 510 696 471 631 c 0
 424 554 400 444 400 320 c 2
 400 320 400 50 400 50 c 1
 400 50 461 50 461 50 c 1
 460 55 460 61 459 67 c 0
 455.012695312 88.2666015625 450.162109375 110.514648438 444 129 c 0
 444 131 443 133 443 133 c 1
 443 133 443 134 443 134 c 1
 443 134 442 134 442 134 c 1
 442 135 l 1
 440.487304688 139.91796875 439.760742188 144.90625 439.760742188 149.825195312 c 0
 439.760742188 174.293945312 458.916992188 200.239257812 489.825195312 200.239257812 c 0
 510.912109375 200.239257812 530.702148438 186.893554688 538 165 c 1
 538 163 l 1
 541.880859375 159.119140625 542.87109375 147.452148438 545 140 c 0
 552.1953125 113.016601562 561.444335938 74.3837890625 561.444335938 38.4072265625 c 0
 561.444335938 -8.2421875 537.272460938 -50 490 -50 c 2
 490 -50 225 -50 225 -50 c 2
 164 -50 117 -29 87 10 c 0
 58 47 50 93 50 133 c 0
 50 194 68 250 97 293 c 0
 126 334 170 368 225 368 c 0
 248 368 271 369 292 369 c 2
 301 369 l 1
 313.693359375 616.51953125 422.35546875 850 675 850 c 0
 710.966796875 850 734.500976562 820.490234375 738 789 c 0
 741 774 741 754 741 740 c 2
EndSplineSet
Substitution2: "'ss01' Add Cartouche Lines-1" kijetesantakaluTok.cart
Substitution2: "'ss02' Add Container Lines-1" kijetesantakaluTok.cont
EndChar

StartChar: sokoTok
Encoding: 129 989569 129
Width: 1000
VWidth: 950
Flags: HW
HStem: 350 100<155 450 550 847> 750 100<385.879 616.121>
VStem: 450 100<-41.5625 350>
LayerCount: 2
Fore
SplineSet
501 750 m 0
 325 750 179 620 155 450 c 1
 155 450 847 450 847 450 c 1
 823 620 677 750 501 750 c 0
901 350 m 2
 901 350 550 350 550 350 c 1
 550 350 550 0 550 0 c 2
 550 -28 528 -50 500 -50 c 0
 472 -50 450 -28 450 0 c 2
 450 0 450 350 450 350 c 1
 450 350 101 350 101 350 c 2
 73 350 51 372 51 400 c 0
 51 649 252 850 501 850 c 0
 750 850 951 649 951 400 c 0
 951 372 929 350 901 350 c 2
EndSplineSet
Substitution2: "'ss01' Add Cartouche Lines-1" sokoTok.cart
Substitution2: "'ss02' Add Container Lines-1" sokoTok.cont
EndChar

StartChar: mesoTok
Encoding: 130 989570 130
Width: 1000
VWidth: 950
Flags: HW
HStem: 300 200<438.358 561.642>
VStem: 150 100<-41.5625 841.562> 400 200<338.358 461.642> 750 100<-41.5625 841.562>
CounterMasks: 1 70
LayerCount: 2
Fore
SplineSet
600 400 m 0
 600 345 555 300 500 300 c 0
 445 300 400 345 400 400 c 0
 400 455 445 500 500 500 c 0
 555 500 600 455 600 400 c 0
800 850 m 0
 828 850 850 828 850 800 c 2
 850 800 850 0 850 0 c 2
 850 -28 828 -50 800 -50 c 0
 772 -50 750 -28 750 0 c 2
 750 0 750 800 750 800 c 2
 750 828 772 850 800 850 c 0
200 850 m 0
 228 850 250 828 250 800 c 2
 250 800 250 0 250 0 c 2
 250 -28 228 -50 200 -50 c 0
 172 -50 150 -28 150 0 c 2
 150 0 150 800 150 800 c 2
 150 828 172 850 200 850 c 0
EndSplineSet
Substitution2: "'ss01' Add Cartouche Lines-1" mesoTok.cart
Substitution2: "'ss02' Add Container Lines-1" mesoTok.cont
EndChar

StartChar: epikuTok
Encoding: 131 989571 131
Width: 1000
VWidth: 950
Flags: HW
HStem: -50 100<383.579 616.421> 562 284<459.117 540.883>
VStem: 50 100<287.381 441.562> 450 100<570.701 837.562> 850 100<287.381 441.562>
CounterMasks: 1 38
LayerCount: 2
Fore
SplineSet
100 450 m 0
 128 450 150 428 150 400 c 0
 150 207 307 50 500 50 c 0
 693 50 850 207 850 400 c 0
 850 428 872 450 900 450 c 0
 928 450 950 428 950 400 c 0
 950 151 749 -50 500 -50 c 0
 251 -50 50 151 50 400 c 0
 50 428 72 450 100 450 c 0
680.272460938 523.921875 m 0
 650.258789062 523.921875 629.921875 548.638671875 629.921875 573.5859375 c 0
 629.921875 580.108398438 631.233398438 586.711914062 634 593 c 2
 704 763 l 2
 712.233398438 782.4609375 730.55078125 794.078125 749.727539062 794.078125 c 0
 779.741210938 794.078125 800.078125 769.361328125 800.078125 744.4140625 c 0
 800.078125 737.891601562 798.766601562 731.288085938 796 725 c 2
 796 725 726 555 726 555 c 2
 717.766601562 535.5390625 699.44921875 523.921875 680.272460938 523.921875 c 0
199.921875 744.4140625 m 0
 199.921875 769.365234375 220.239257812 794.078125 250.272460938 794.078125 c 0
 269.44921875 794.078125 287.766601562 782.4609375 296 763 c 2
 296 763 366 593 366 593 c 2
 368.766601562 586.711914062 370.078125 580.108398438 370.078125 573.5859375 c 0
 370.078125 548.634765625 349.760742188 523.921875 319.727539062 523.921875 c 0
 300.55078125 523.921875 282.233398438 535.5390625 274 555 c 2
 274 555 204 725 204 725 c 2
 201.233398438 731.288085938 199.921875 737.891601562 199.921875 744.4140625 c 0
500 846 m 0
 528 846 550 824 550 796 c 2
 550 796 550 612 550 612 c 2
 550 585 528 562 500 562 c 0
 472 562 450 585 450 612 c 2
 450 612 450 796 450 796 c 2
 450 824 472 846 500 846 c 0
EndSplineSet
Substitution2: "'ss01' Add Cartouche Lines-1" epikuTok.cart
Substitution2: "'ss02' Add Container Lines-1" epikuTok.cont
EndChar

StartChar: kokosilaTok
Encoding: 132 989572 132
Width: 1000
VWidth: 950
Flags: HW
HStem: 0 100<410.011 590.088> 500 100<409.912 590.676> 650 200<458.438 541.562>
VStem: 200 100<233.18 390.088> 450 100<658.438 841.562> 700 100<209.912 374.989>
CounterMasks: 1 1c
LayerCount: 2
Fore
SplineSet
749.814453125 782.888671875 m 0
 778.944335938 782.888671875 799.888671875 758.81640625 799.888671875 733.407226562 c 0
 799.888671875 724.77734375 797.666992188 716 793 708 c 2
 793 708 743 621 743 621 c 2
 733.666992188 605 717.22265625 596.111328125 700.185546875 596.111328125 c 0
 670.969726562 596.111328125 650.111328125 621.005859375 650.111328125 645.814453125 c 0
 650.111328125 654.333007812 652.333007812 663 657 671 c 2
 657 671 707 758 707 758 c 2
 716.333007812 774 732.77734375 782.888671875 749.814453125 782.888671875 c 0
200.111328125 733.407226562 m 0
 200.111328125 758.81640625 221.025390625 782.888671875 250.185546875 782.888671875 c 0
 267.22265625 782.888671875 283.666992188 774 293 758 c 2
 293 758 343 671 343 671 c 2
 347.666992188 663 349.888671875 654.333007812 349.888671875 645.814453125 c 0
 349.888671875 621.00390625 329.061523438 596.111328125 299.814453125 596.111328125 c 0
 282.77734375 596.111328125 266.333007812 605 257 621 c 2
 257 621 207 708 207 708 c 2
 202.333007812 716 200.111328125 724.77734375 200.111328125 733.407226562 c 0
685 376 m 1
 685 376 368 149 368 149 c 1
 404 119 450 100 500 100 c 0
 610 100 700 190 700 300 c 0
 700 327 695 352 685 376 c 1
500 500 m 0
 390 500 300 410 300 300 c 0
 300 276 304 253 312 232 c 1
 312 232 625 456 625 456 c 1
 591 484 547 500 500 500 c 0
209.350585938 47.623046875 m 0
 183.326171875 47.623046875 159.623046875 69.0791015625 159.623046875 97.6494140625 c 0
 159.623046875 113.193359375 166.708984375 128.333984375 180 138 c 2
 180 138 228 172 228 172 c 1
 210 211 200 254 200 300 c 0
 200 466 334 600 500 600 c 0
 581 600 655 568 709 516 c 1
 709 516 761 553 761 553 c 2
 770.10546875 559.333984375 780.463867188 562.376953125 790.649414062 562.376953125 c 0
 816.673828125 562.376953125 840.376953125 540.920898438 840.376953125 512.350585938 c 0
 840.376953125 496.806640625 833.291015625 481.666015625 820 472 c 2
 820 472 768 435 768 435 c 1
 788 395 800 349 800 300 c 0
 800 134 666 0 500 0 c 0
 416 0 340 35 286 90 c 1
 286 90 239 57 239 57 c 2
 229.89453125 50.666015625 219.536132812 47.623046875 209.350585938 47.623046875 c 0
500 850 m 0
 528 850 550 828 550 800 c 2
 550 800 550 700 550 700 c 2
 550 672 528 650 500 650 c 0
 472 650 450 672 450 700 c 2
 450 700 450 800 450 800 c 2
 450 828 472 850 500 850 c 0
EndSplineSet
Substitution2: "'ss01' Add Cartouche Lines-1" kokosilaTok.cart
Substitution2: "'ss02' Add Container Lines-1" kokosilaTok.cont
EndChar

StartChar: lanpanTok
Encoding: 133 989573 133
Width: 1000
VWidth: 950
Flags: HW
HStem: -50 150<357.438 440.299> -1.07812 152.156<168.035 229.947 567.77 629.344> 152 100<303.504 496.496>
VStem: 50 100<406.289 841.562> 140.616 117.36<33.42 118.437> 349 100<-40.8829 90.8829> 540.49 117.032<31.6127 117.91> 650 100<406.289 613>
LayerCount: 2
Fore
SplineSet
657.522460938 51.5361328125 m 0
 657.522460938 26.501953125 638.21875 -1.078125 607.321289062 -1.078125 c 0
 588.0546875 -1.078125 570.485351562 10.5390625 563 30 c 2
 563 30 544 79 544 79 c 2
 541.625 85.17578125 540.490234375 91.5771484375 540.490234375 97.9091796875 c 0
 540.490234375 122.8984375 559.963867188 151.078125 591.098632812 151.078125 c 0
 609.9453125 151.078125 627.514648438 139.4609375 635 120 c 2
 635 120 654 70 654 70 c 2
 656.389648438 64.0263671875 657.522460938 57.7666015625 657.522460938 51.5361328125 c 0
191.240234375 -1.078125 m 0
 160.395507812 -1.078125 140.616210938 27.384765625 140.616210938 52.232421875 c 0
 140.616210938 58.2333984375 141.69921875 64.2490234375 144 70 c 2
 144 70 163 120 163 120 c 2
 170.485351562 139.4609375 188.614257812 151.078125 207.744140625 151.078125 c 0
 239.046875 151.078125 257.9765625 122.418945312 257.9765625 96.8134765625 c 0
 257.9765625 90.83984375 257.014648438 84.8193359375 255 79 c 2
 255 79 235 30 235 30 c 1
 228.263671875 10.5390625 210.322265625 -1.078125 191.240234375 -1.078125 c 0
399 -50 m 0
 371 -50 349 -28 349 0 c 2
 349 0 349 50 349 50 c 2
 349 78 371 100 399 100 c 0
 426 100 449 78 449 50 c 2
 449 50 449 0 449 0 c 2
 449 -28 426 -50 399 -50 c 0
949.888671875 451.555664062 m 0
 949.888671875 426.451171875 930.213867188 401.807617188 900.484375 401.807617188 c 0
 882.909179688 401.807617188 865.815429688 410.724609375 857 427 c 2
 857 427 750 613 750 613 c 1
 750 613 750 502 750 502 c 2
 750 309 593 152 400 152 c 0
 207 152 50 309 50 502 c 2
 50 502 50 800 50 800 c 2
 50 828 72 850 100 850 c 0
 128 850 150 828 150 800 c 2
 150 800 150 502 150 502 c 2
 150 364 262 252 400 252 c 0
 538 252 650 364 650 502 c 2
 650 502 650 800 650 800 c 2
 650 826.40234375 670.265625 849.833007812 700.5859375 849.833007812 c 0
 717.952148438 849.833007812 734.26171875 840.887695312 743 825 c 2
 743 825 943 477 943 477 c 2
 947.666992188 469 949.888671875 460.22265625 949.888671875 451.555664062 c 0
EndSplineSet
Substitution2: "'ss01' Add Cartouche Lines-1" lanpanTok.cart
Substitution2: "'ss02' Add Container Lines-1" lanpanTok.cont
EndChar

StartChar: nTok
Encoding: 134 989574 134
Width: 1000
VWidth: 950
Flags: HW
HStem: 250 100<439.527 560.473>
VStem: 300 100<-41.5625 209.304> 450 100<408.438 841.562> 600 100<-41.5625 209.304>
CounterMasks: 1 70
LayerCount: 2
Fore
SplineSet
500 850 m 0
 528 850 550 828 550 800 c 2
 550 800 550 450 550 450 c 2
 550 422 528 400 500 400 c 0
 472 400 450 422 450 450 c 2
 450 450 450 800 450 800 c 2
 450 828 472 850 500 850 c 0
500 250 m 0
 445 250 400 205 400 150 c 2
 400 150 400 0 400 0 c 2
 400 -28 378 -50 350 -50 c 0
 322 -50 300 -28 300 0 c 2
 300 0 300 150 300 150 c 2
 300 260 390 350 500 350 c 0
 610 350 700 260 700 150 c 2
 700 150 700 0 700 0 c 2
 700 -28 678 -50 650 -50 c 0
 622 -50 600 -28 600 0 c 2
 600 0 600 150 600 150 c 2
 600 205 555 250 500 250 c 0
EndSplineSet
Substitution2: "'ss01' Add Cartouche Lines-1" nTok.cart
Substitution2: "'ss02' Add Container Lines-1" nTok.cont
EndChar

StartChar: misikekeTok
Encoding: 135 989575 135
Width: 1000
VWidth: 950
Flags: HW
HStem: -50 100<423.917 576.083> 350 100<350 650> 750 100<423.917 576.083>
VStem: 250 100<125.684 350 450 674.316> 650 100<125.684 350 450 674.316>
CounterMasks: 1 e0
LayerCount: 2
Fore
SplineSet
350 350 m 1
 350 350 350 200 350 200 c 2
 350 117 417 50 500 50 c 0
 583 50 650 117 650 200 c 2
 650 200 650 350 650 350 c 1
 350 350 l 1
650 450 m 1
 650 450 650 600 650 600 c 2
 650 683 583 750 500 750 c 0
 417 750 350 683 350 600 c 2
 350 600 350 450 350 450 c 1
 650 450 l 1
500 850 m 0
 638 850 750 738 750 600 c 2
 750 600 750 200 750 200 c 2
 750 62 638 -50 500 -50 c 0
 362 -50 250 62 250 200 c 2
 250 200 250 600 250 600 c 2
 250 738 362 850 500 850 c 0
EndSplineSet
Substitution2: "'ss01' Add Cartouche Lines-1" misikekeTok.cart
Substitution2: "'ss02' Add Container Lines-1" misikekeTok.cont
EndChar

StartChar: kuTok
Encoding: 136 989576 136
Width: 1000
VWidth: 950
Flags: HW
HStem: -50 100<250 438 540 750> 150 150<573.417 676.583> 750 100<250 520>
VStem: 150 100<50 750> 550 150<173.417 276.583> 750 100<50 323 442 728>
LayerCount: 2
Fore
SplineSet
438 50 m 1
 438 50 309 626 309 626 c 2
 308.059570312 629.76171875 307.610351562 633.548828125 307.610351562 637.291015625 c 0
 307.610351562 657.419921875 320.60546875 676.25390625 340 683 c 2
 340 683 520 750 520 750 c 1
 520 750 250 750 250 750 c 1
 250 750 250 50 250 50 c 1
 438 50 l 1
750 323 m 1
 750 323 433 528 433 528 c 1
 433 528 540 50 540 50 c 1
 540 50 750 50 750 50 c 1
 750 323 l 1
750 442 m 1
 750 442 750 728 750 728 c 1
 750 728 468 624 468 624 c 1
 750 442 l 1
799 850 m 2
 828.302734375 850 850 829.291992188 850 799 c 2
 850 0 l 2
 850 -28 828 -50 800 -50 c 2
 200 -50 l 2
 172 -50 150 -28 150 0 c 2
 150 0 150 800 150 800 c 2
 150 828 172 850 200 850 c 2
 799 850 l 2
700 225 m 0
 700 184 666 150 625 150 c 0
 584 150 550 184 550 225 c 0
 550 266 584 300 625 300 c 0
 666 300 700 266 700 225 c 0
EndSplineSet
Substitution2: "'ss01' Add Cartouche Lines-1" kuTok.cart
Substitution2: "'ss02' Add Container Lines-1" kuTok.cont
EndChar

StartChar: teTok
Encoding: 137 12300 137
AltUni2: 002015.ffffffff.0 002014.ffffffff.0 002013.ffffffff.0 002012.ffffffff.0 00002d.ffffffff.0 0000b7.ffffffff.0 00002c.ffffffff.0 00002e.ffffffff.0
Width: 500
VWidth: 950
Flags: HW
HStem: 900 100<500 1490.77>
VStem: 400 100<-90.7701 900>
LayerCount: 2
Fore
SplineSet
400 -50 m 2
 400 950 l 2
 400 977.595703125 422.404296875 1000 450 1000 c 2
 1450 1000 l 2
 1477.59570312 1000 1500 977.595703125 1500 950 c 0
 1500 922.404296875 1477.59570312 900 1450 900 c 2
 500 900 l 1
 500 -50 l 2
 500 -77.595703125 477.595703125 -100 450 -100 c 0
 422.404296875 -100 400 -77.595703125 400 -50 c 2
EndSplineSet
EndChar

StartChar: toTok
Encoding: 138 12301 138
Width: 500
VWidth: 950
Flags: HW
HStem: -200 100<-990.77 0>
VStem: 0 100<-100 890.77>
LayerCount: 2
Fore
SplineSet
100 850 m 2
 100 -150 l 2
 100 -177.595703125 77.595703125 -200 50 -200 c 2
 -950 -200 l 2
 -977.595703125 -200 -1000 -177.595703125 -1000 -150 c 0
 -1000 -122.404296875 -977.595703125 -100 -950 -100 c 2
 0 -100 l 1
 0 850 l 2
 0 877.595703125 22.404296875 900 50 900 c 0
 77.595703125 900 100 877.595703125 100 850 c 2
EndSplineSet
EndChar

StartChar: interpunctTok
Encoding: 140 989580 140
AltUni2: 003002.ffffffff.0 00002e.ffffffff.0 00ff0e.ffffffff.0 00002c.ffffffff.0 00ff0c.ffffffff.0
Width: 1000
VWidth: 950
Flags: HW
HStem: 300 200<438.358 561.642>
VStem: 400 200<338.358 461.642>
LayerCount: 2
Fore
SplineSet
600 400 m 0
 600 345 555 300 500 300 c 0
 445 300 400 345 400 400 c 0
 400 455 445 500 500 500 c 0
 555 500 600 455 600 400 c 0
EndSplineSet
Substitution2: "'ss01' Add Cartouche Lines-1" interpunctTok.cart
EndChar

StartChar: doubleDot
Encoding: 141 -1 141
Width: 1000
VWidth: 950
Flags: HW
HStem: 300 200<213.358 336.642 663.358 786.642>
VStem: 175 200<338.358 461.642> 625 200<338.358 461.642>
LayerCount: 2
Fore
SplineSet
375 400 m 0
 375 345 330 300 275 300 c 0
 220 300 175 345 175 400 c 0
 175 455 220 500 275 500 c 0
 330 500 375 455 375 400 c 0
825 400 m 0
 825 345 780 300 725 300 c 0
 670 300 625 345 625 400 c 0
 625 455 670 500 725 500 c 0
 780 500 825 455 825 400 c 0
EndSplineSet
LCarets2: 1 0
Ligature2: "'liga' Misc-1" interpunctTok interpunctTok
Substitution2: "'ss01' Add Cartouche Lines-1" doubleDot.cart
EndChar

StartChar: colon
Encoding: 142 58 142
AltUni2: 00ff1a.ffffffff.0 00003b.ffffffff.0 00ff1b.ffffffff.0
Width: 1000
VWidth: 950
Flags: HW
HStem: 75 200<438.358 561.642> 525 200<438.358 561.642>
VStem: 400 200<113.358 236.642 563.358 686.642>
LayerCount: 2
Fore
SplineSet
500 275 m 0
 555 275 600 230 600 175 c 0
 600 120 555 75 500 75 c 0
 445 75 400 120 400 175 c 0
 400 230 445 275 500 275 c 0
500 725 m 0
 555 725 600 680 600 625 c 0
 600 570 555 525 500 525 c 0
 445 525 400 570 400 625 c 0
 400 680 445 725 500 725 c 0
EndSplineSet
Substitution2: "'ss01' Add Cartouche Lines-1" colon.cart
EndChar

StartChar: cartStartTok
Encoding: 144 989584 144
Width: 500
VWidth: 950
Flags: HW
HStem: -200 100<380.081 533.291> 900 100<376.376 536.075>
VStem: 250 100<-69.1358 874.414>
LayerCount: 2
Fore
SplineSet
250 -50 m 2
 250 850 l 2
 250 927 317 1000 399 1000 c 2
 500 1000 l 2
 530.435859227 1000 544.300731201 976.660581333 544.300731201 952.532704666 c 0
 544.300731201 926.717643343 528.429011786 900 500 900 c 0
 360 900 350 887 350 750 c 2
 350 50 l 2
 350 -84 366 -100 500 -100 c 0
 526 -100 541 -127 541 -153 c 0
 541 -177 528 -200 500 -200 c 2
 399 -200 l 2
 317 -200 250 -133 250 -50 c 2
EndSplineSet
EndChar

StartChar: cartEndTok
Encoding: 145 989585 145
Width: 500
VWidth: 950
Flags: HW
HStem: -200 100<-33.2913 119.919> 900 100<-36.0751 123.624>
VStem: 150 100<-69.1358 874.414>
LayerCount: 2
Fore
SplineSet
250 -50 m 2
 250 -133 183 -200 101 -200 c 2
 0 -200 l 2
 -28 -200 -41 -177 -41 -153 c 0
 -41 -127 -26 -100 0 -100 c 0
 134 -100 150 -84 150 50 c 2
 150 750 l 2
 150 887 140 900 0 900 c 0
 -28.4290117859 900 -44.3007312006 926.717643343 -44.3007312006 952.532704666 c 0
 -44.3007312006 976.660581333 -30.4358592271 1000 0 1000 c 2
 101 1000 l 2
 183 1000 250 927 250 850 c 2
 250 -50 l 2
EndSplineSet
EndChar

StartChar: cartExtCombTok
Encoding: 146 989586 146
Width: 0
Flags: HW
HStem: -200 100<-1040.78 40.7753> 899.973 100<-1040.78 40.7753>
LayerCount: 2
Fore
SplineSet
-1050 -150 m 0
 -1050 -122.385742188 -1027.61425781 -100 -1000 -100 c 2
 0 -100 l 2
 27.6142578125 -100 50 -122.385742188 50 -150 c 0
 50 -177.614257812 27.6142578125 -200 0 -200 c 2
 -1000 -200 l 2
 -1027.61425781 -200 -1050 -177.614257812 -1050 -150 c 0
-1050 949.97265625 m 0
 -1050 977.586914062 -1027.61425781 999.97265625 -1000 999.97265625 c 2
 0 999.97265625 l 2
 27.6142578125 999.97265625 50 977.586914062 50 949.97265625 c 0
 50 922.358398438 27.6142578125 899.97265625 0 899.97265625 c 2
 -1000 899.97265625 l 2
 -1027.61425781 899.97265625 -1050 922.358398438 -1050 949.97265625 c 0
EndSplineSet
EndChar

StartChar: contStartCombTok
Encoding: 150 989590 150
Width: 500
Flags: HW
HStem: -200 100<459.117 540.883>
VStem: 450 100<-191.461 -108.539>
LayerCount: 2
Fore
SplineSet
500 -200 m 0
 472 -200 450 -177.614257812 450 -150 c 0
 450 -122.385742188 472 -100 500 -100 c 0
 528 -100 550 -122.385742188 550 -150 c 0
 550 -177.614257812 528 -200 500 -200 c 0
EndSplineSet
EndChar

StartChar: contEndTok
Encoding: 151 989591 151
Width: 500
Flags: HW
HStem: -200 100<-40.8829 40.8829>
VStem: -50 100<-191.461 -108.539>
LayerCount: 2
Fore
SplineSet
0 -200 m 0
 -28 -200 -50 -177.614257812 -50 -150 c 0
 -50 -122.385742188 -28 -100 0 -100 c 0
 28 -100 50 -122.385742188 50 -150 c 0
 50 -177.614257812 28 -200 0 -200 c 0
EndSplineSet
EndChar

StartChar: contExtCombTok
Encoding: 152 989592 152
Width: 0
Flags: HW
HStem: -200 100<-1040.78 40.7753>
LayerCount: 2
Fore
SplineSet
-1050 -150 m 0
 -1050 -122.385742188 -1027.61425781 -100 -1000 -100 c 2
 0 -100 l 2
 27.6142578125 -100 50 -122.385742188 50 -150 c 0
 50 -177.614257812 27.6142578125 -200 0 -200 c 2
 -1000 -200 l 2
 -1027.61425781 -200 -1050 -177.614257812 -1050 -150 c 0
EndSplineSet
EndChar

StartChar: tripleDot
Encoding: 157 -1 157
Width: 1000
VWidth: 950
Flags: HW
HStem: 300 200<88.3579 211.642 438.358 561.642 788.358 911.642>
VStem: 50 200<338.358 461.642> 400 200<338.358 461.642> 750 200<338.358 461.642>
CounterMasks: 1 70
LayerCount: 2
Fore
SplineSet
250 400 m 0
 250 345 205 300 150 300 c 0
 95 300 50 345 50 400 c 0
 50 455 95 500 150 500 c 0
 205 500 250 455 250 400 c 0
950 400 m 0
 950 345 905 300 850 300 c 0
 795 300 750 345 750 400 c 0
 750 455 795 500 850 500 c 0
 905 500 950 455 950 400 c 0
600 400 m 0
 600 345 555 300 500 300 c 0
 445 300 400 345 400 400 c 0
 400 455 445 500 500 500 c 0
 555 500 600 455 600 400 c 0
EndSplineSet
Ligature2: "'liga' Misc-1" interpunctTok interpunctTok interpunctTok
EndChar

StartChar: itanTok
Encoding: 159 -1 159
Width: 1000
Flags: HW
HStem: -100 100<370.982 626.625> -52.1318 312.132<251.357 332.907> -52.1318 100<39.2247 145.031> 51 200<488.262 611.738> 300 100<300 700> 492.5 75<326.198 392.5 467.5 532.5 607.5 673.802> 632.5 75<326.198 392.5 467.5 532.5 607.5 673.802> 800 100<373.375 626.625>
VStem: 0 100<271.783 526.625> 200 100<400 590.775> 242.132 100<94.2041 250.775> 392.5 75<426.198 492.5 567.5 632.5 707.5 773.802> 450 200<89.2617 212.738> 532.5 75<426.198 492.5 567.5 632.5 707.5 773.802> 700 100<400 590.775> 900 100<273.375 526.625>
LayerCount: 2
Fore
SplineSet
250 600 m 0
 277.614257812 600 300 577.614257812 300 550 c 2
 300 400 l 1
 700 400 l 1
 700 550 l 2
 700 577.614257812 722.385742188 600 750 600 c 0
 777.614257812 600 800 577.614257812 800 550 c 2
 800 350 l 2
 800 322.385742188 777.614257812 300 750 300 c 2
 250 300 l 2
 222.385742188 300 200 322.385742188 200 350 c 2
 200 550 l 2
 200 577.614257812 222.385742188 600 250 600 c 0
550 51 m 0
 494.772460938 51 450 95.7724609375 450 151 c 0
 450 206.227539062 494.772460938 251 550 251 c 0
 605.227539062 251 650 206.227539062 650 151 c 0
 650 95.7724609375 605.227539062 51 550 51 c 0
430 777.5 m 0
 450.7109375 777.5 467.5 760.7109375 467.5 740 c 2
 467.5 707.5 l 1
 532.5 707.5 l 1
 532.5 740 l 2
 532.5 760.7109375 549.2890625 777.5 570 777.5 c 0
 590.7109375 777.5 607.5 760.7109375 607.5 740 c 2
 607.5 707.5 l 1
 640 707.5 l 2
 660.7109375 707.5 677.5 690.7109375 677.5 670 c 0
 677.5 649.2890625 660.7109375 632.5 640 632.5 c 2
 607.5 632.5 l 1
 607.5 567.5 l 1
 640 567.5 l 2
 660.7109375 567.5 677.5 550.7109375 677.5 530 c 0
 677.5 509.2890625 660.7109375 492.5 640 492.5 c 2
 607.5 492.5 l 1
 607.5 460 l 2
 607.5 439.2890625 590.7109375 422.5 570 422.5 c 0
 549.2890625 422.5 532.5 439.2890625 532.5 460 c 2
 532.5 492.5 l 1
 467.5 492.5 l 1
 467.5 460 l 2
 467.5 439.2890625 450.7109375 422.5 430 422.5 c 0
 409.2890625 422.5 392.5 439.2890625 392.5 460 c 2
 392.5 492.5 l 1
 360 492.5 l 2
 339.2890625 492.5 322.5 509.2890625 322.5 530 c 0
 322.5 550.7109375 339.2890625 567.5 360 567.5 c 2
 392.5 567.5 l 1
 392.5 632.5 l 1
 360 632.5 l 2
 339.2890625 632.5 322.5 649.2890625 322.5 670 c 0
 322.5 690.7109375 339.2890625 707.5 360 707.5 c 2
 392.5 707.5 l 1
 392.5 740 l 2
 392.5 760.7109375 409.2890625 777.5 430 777.5 c 0
467.5 632.5 m 1
 467.5 567.5 l 1
 532.5 567.5 l 1
 532.5 632.5 l 1
 467.5 632.5 l 1
145.03125 47.8681640625 m 1
 55.380859375 138.236328125 0 262.650390625 0 400 c 0
 0 676.141601562 223.858398438 900 500 900 c 0
 776.141601562 900 1000 676.141601562 1000 400 c 0
 1000 123.858398438 776.141601562 -100 500 -100 c 0
 423.521484375 -100 351.051757812 -82.8291015625 286.23828125 -52.1318359375 c 1
 80 -52.1318359375 l 2
 52.3857421875 -52.1318359375 30 -29.74609375 30 -2.1318359375 c 0
 30 25.482421875 52.3857421875 47.8681640625 80 47.8681640625 c 2
 145.03125 47.8681640625 l 1
900 400 m 0
 900 620.9140625 720.9140625 800 500 800 c 0
 279.0859375 800 100 620.9140625 100 400 c 0
 100 277.341796875 155.208984375 167.579101562 242.131835938 94.2041015625 c 1
 242.131835938 210 l 2
 242.131835938 237.614257812 264.517578125 260 292.131835938 260 c 0
 319.74609375 260 342.131835938 237.614257812 342.131835938 210 c 2
 342.131835938 32.359375 l 1
 390.565429688 11.5341796875 443.934570312 0 500 0 c 0
 720.9140625 0 900 179.0859375 900 400 c 0
EndSplineSet
Ligature2: "'liga' Misc-1" ijoTok tanTok anpaTok nanpaTok
Substitution2: "'ss02' Add Container Lines-1" itanTok.cont
Substitution2: "'ss01' Add Cartouche Lines-1" itanTok.cart
EndChar

StartChar: pakeTok
Encoding: 160 989600 160
Width: 1000
Flags: HW
HStem: 750 100<59.2247 450 550 940.775>
VStem: 450 100<-40.7753 750>
LayerCount: 2
Fore
SplineSet
100 850 m 2
 900 850 l 2
 927.614257812 850 950 827.614257812 950 800 c 0
 950 772.385742188 927.614257812 750 900 750 c 2
 550 750 l 1
 550 0 l 2
 550 -27.6142578125 527.614257812 -50 500 -50 c 0
 472.385742188 -50 450 -27.6142578125 450 0 c 2
 450 750 l 1
 100 750 l 2
 72.3857421875 750 50 772.385742188 50 800 c 0
 50 827.614257812 72.3857421875 850 100 850 c 2
EndSplineSet
Substitution2: "'ss01' Add Cartouche Lines-1" pakeTok.cart
Substitution2: "'ss02' Add Container Lines-1" pakeTok.cont
EndChar

StartChar: apejaTok
Encoding: 161 989601 161
Width: 1000
Flags: HW
HStem: -50 100<443.66 555.34> 219 100<443.66 555.34> 450 100<259.66 371.34 628.66 740.34> 719 100<259.66 371.34 628.66 740.34>
VStem: 131 100<578.66 690.34> 315 100<78.6596 190.34> 400 100<579.635 689.365> 500 100<579.635 689.365> 584 100<78.6596 190.34> 769 100<578.66 690.34>
LayerCount: 2
Fore
SplineSet
131 634.5 m 0
 131 736.397460938 213.602539062 819 315.5 819 c 0
 417.397460938 819 500 736.397460938 500 634.5 c 1
 500 736.397460938 582.602539062 819 684.5 819 c 0
 786.397460938 819 869 736.397460938 869 634.5 c 0
 869 532.602539062 786.397460938 450 684.5 450 c 0
 582.602539062 450 500 532.602539062 500 634.5 c 1
 500 532.602539062 417.397460938 450 315.5 450 c 0
 213.602539062 450 131 532.602539062 131 634.5 c 0
231 634.5 m 0
 231 587.83203125 268.83203125 550 315.5 550 c 0
 362.16796875 550 400 587.83203125 400 634.5 c 0
 400 681.16796875 362.16796875 719 315.5 719 c 0
 268.83203125 719 231 681.16796875 231 634.5 c 0
684.5 719 m 0
 637.83203125 719 600 681.16796875 600 634.5 c 0
 600 587.83203125 637.83203125 550 684.5 550 c 0
 731.16796875 550 769 587.83203125 769 634.5 c 0
 769 681.16796875 731.16796875 719 684.5 719 c 0
315 134.5 m 0
 315 236.397460938 397.602539062 319 499.5 319 c 0
 601.397460938 319 684 236.397460938 684 134.5 c 0
 684 32.6025390625 601.397460938 -50 499.5 -50 c 0
 397.602539062 -50 315 32.6025390625 315 134.5 c 0
415 134.5 m 0
 415 87.83203125 452.83203125 50 499.5 50 c 0
 546.16796875 50 584 87.83203125 584 134.5 c 0
 584 181.16796875 546.16796875 219 499.5 219 c 0
 452.83203125 219 415 181.16796875 415 134.5 c 0
800.000244141 230 m 0
 800.000244141 203.114694415 776.898682422 179.999755859 750 179.999755859 c 0
 737.203857422 179.999755859 724.407714844 184.881347656 714.64453125 194.64453125 c 2
 500 409.2890625 l 1
 285.35546875 194.64453125 l 2
 275.592285156 184.881347656 262.796142578 179.999755859 250 179.999755859 c 0
 223.114694415 179.999755859 199.999755859 203.101317578 199.999755859 230 c 0
 199.999755859 242.796142578 204.881347656 255.592285156 214.64453125 265.35546875 c 2
 464.64453125 515.35546875 l 2
 474.407714844 525.118652344 487.203857422 530.000244141 500 530.000244141 c 0
 512.796142578 530.000244141 525.592285156 525.118652344 535.35546875 515.35546875 c 2
 785.35546875 265.35546875 l 2
 795.118652344 255.592285156 800.000244141 242.796142578 800.000244141 230 c 0
EndSplineSet
Substitution2: "'ss01' Add Cartouche Lines-1" apejaTok.cart
Substitution2: "'ss02' Add Container Lines-1" apejaTok.cont
EndChar

StartChar: majunaTok
Encoding: 162 989602 162
Width: 1000
Flags: HW
HStem: 150 100<59.2247 390.775 609.225 940.775>
VStem: 450 100<309.225 640.775>
LayerCount: 2
Fore
SplineSet
600 200 m 0
 600 227.614257812 622.385742188 250 650 250 c 2
 900 250 l 2
 927.614257812 250 950 227.614257812 950 200 c 0
 950 172.385742188 927.614257812 150 900 150 c 2
 650 150 l 2
 622.385742188 150 600 172.385742188 600 200 c 0
500 650 m 0
 527.614257812 650 550 627.614257812 550 600 c 2
 550 350 l 2
 550 322.385742188 527.614257812 300 500 300 c 0
 472.385742188 300 450 322.385742188 450 350 c 2
 450 600 l 2
 450 627.614257812 472.385742188 650 500 650 c 0
50 200 m 0
 50 227.614257812 72.3857421875 250 100 250 c 2
 350 250 l 2
 377.614257812 250 400 227.614257812 400 200 c 0
 400 172.385742188 377.614257812 150 350 150 c 2
 100 150 l 2
 72.3857421875 150 50 172.385742188 50 200 c 0
149.999755859 500 m 0
 149.999755859 526.885305585 173.101317578 550.000244141 200 550.000244141 c 0
 212.796142578 550.000244141 225.592285156 545.118652344 235.35546875 535.35546875 c 2
 435.35546875 335.35546875 l 2
 445.118652344 325.592285156 450.000244141 312.796142578 450.000244141 300 c 0
 450.000244141 273.114694415 426.898682422 249.999755859 400 249.999755859 c 0
 387.203857422 249.999755859 374.407714844 254.881347656 364.64453125 264.64453125 c 2
 164.64453125 464.64453125 l 2
 154.881347656 474.407714844 149.999755859 487.203857422 149.999755859 500 c 0
600 249.999755859 m 0
 573.114694415 249.999755859 549.999755859 273.101317578 549.999755859 300 c 0
 549.999755859 312.796142578 554.881347656 325.592285156 564.64453125 335.35546875 c 2
 764.64453125 535.35546875 l 2
 774.407714844 545.118652344 787.203857422 550.000244141 800 550.000244141 c 0
 826.885305585 550.000244141 850.000244141 526.898682422 850.000244141 500 c 0
 850.000244141 487.203857422 845.118652344 474.407714844 835.35546875 464.64453125 c 2
 635.35546875 264.64453125 l 2
 625.592285156 254.881347656 612.796142578 249.999755859 600 249.999755859 c 0
EndSplineSet
Substitution2: "'ss01' Add Cartouche Lines-1" majunaTok.cart
Substitution2: "'ss02' Add Container Lines-1" majunaTok.cont
EndChar

StartChar: poweTok
Encoding: 163 989603 163
Width: 1000
Flags: HW
HStem: 150 100<59.2247 940.775>
LayerCount: 2
Fore
SplineSet
650.000244141 400 m 0
 650.000244141 373.114694415 626.898682422 349.999755859 600 349.999755859 c 0
 587.203857422 349.999755859 574.407714844 354.881347656 564.64453125 364.64453125 c 2
 500 429.2890625 l 1
 435.35546875 364.64453125 l 2
 425.592285156 354.881347656 412.796142578 349.999755859 400 349.999755859 c 0
 373.114694415 349.999755859 349.999755859 373.101317578 349.999755859 400 c 0
 349.999755859 412.796142578 354.881347656 425.592285156 364.64453125 435.35546875 c 2
 429.2890625 500 l 1
 364.64453125 564.64453125 l 2
 354.881347656 574.407714844 349.999755859 587.203857422 349.999755859 600 c 0
 349.999755859 626.885305585 373.101317578 650.000244141 400 650.000244141 c 0
 412.796142578 650.000244141 425.592285156 645.118652344 435.35546875 635.35546875 c 2
 500 570.7109375 l 1
 564.64453125 635.35546875 l 2
 574.407714844 645.118652344 587.203857422 650.000244141 600 650.000244141 c 0
 626.885305585 650.000244141 650.000244141 626.898682422 650.000244141 600 c 0
 650.000244141 587.203857422 645.118652344 574.407714844 635.35546875 564.64453125 c 2
 570.7109375 500 l 1
 635.35546875 435.35546875 l 2
 645.118652344 425.592285156 650.000244141 412.796142578 650.000244141 400 c 0
50 200 m 0
 50 227.614257812 72.3857421875 250 100 250 c 2
 900 250 l 2
 927.614257812 250 950 227.614257812 950 200 c 0
 950 172.385742188 927.614257812 150 900 150 c 2
 100 150 l 2
 72.3857421875 150 50 172.385742188 50 200 c 0
EndSplineSet
Substitution2: "'ss01' Add Cartouche Lines-1" poweTok.cart
Substitution2: "'ss02' Add Container Lines-1" poweTok.cont
EndChar

StartChar: piContTok
Encoding: 656 989587 656
Width: 500
VWidth: 950
Flags: HW
HStem: -200 100<300 741.562>
VStem: 200 100<-100 891.562>
LayerCount: 2
Fore
SplineSet
250 900 m 0
 278 900 300 878 300 850 c 2
 300 850 300 -100 300 -100 c 1
 300 -100 700 -100 700 -100 c 2
 728 -100 750 -122 750 -150 c 0
 750 -178 728 -200 700 -200 c 2
 700 -200 250 -200 250 -200 c 2
 222 -200 200 -178 200 -150 c 2
 200 -150 200 850 200 850 c 2
 200 878 222 900 250 900 c 0
EndSplineSet
Ligature2: "'liga' Substite Container Glyphs-1" piTok contStartCombTok
LCarets2: 1 0
EndChar

